<svg xmlns="http://www.w3.org/2000/svg" version="1.1" width="1024" height="680">
<rect x="0" y="0" width="1024" height="680" fill="#565653" />
<g transform="scale(4.000000) translate(0.5 0.5)">
<polygon fill="#d9e2e1" fill-opacity="0.501961" points="173,116 232,41 120,-16" />
<polygon fill="#000000" fill-opacity="0.501961" points="30,10 145,10 28,159" />
<polygon fill="#fdffff" fill-opacity="0.501961" points="70,-16 18,10 156,9" />
<polygon fill="#000100" fill-opacity="0.501961" points="225,165 140,143 223,77" />
<polygon fill="#dac2b1" fill-opacity="0.501961" points="131,183 138,134 50,134" />
<polygon fill="#000000" fill-opacity="0.501961" points="139,95 136,10 82,93" />
<polygon fill="#ababb1" fill-opacity="0.501961" points="29,60 29,-16 -16,64" />
<polygon fill="#bab1aa" fill-opacity="0.501961" points="72,95 170,98 87,122" />
<polygon fill="#c9d0ce" fill-opacity="0.501961" points="137,-16 140,70 198,76" />
<polygon fill="#0e1211" fill-opacity="0.501961" points="-16,113 6,72 119,135" />
<polygon fill="#111e18" fill-opacity="0.501961" points="271,161 251,94 160,89" />
<polygon fill="#7b8080" fill-opacity="0.501961" points="142,-16 225,18 243,104" />
<polygon fill="#6e6d65" fill-opacity="0.501961" points="186,97 84,105 236,143" />
<polygon fill="#000000" fill-opacity="0.501961" points="136,12 105,51 35,10" />
<polygon fill="#89877e" fill-opacity="0.501961" points="-4,120 70,121 -10,158" />
<polygon fill="#ffd797" fill-opacity="0.501961" points="95,65 93,50 104,54" />
<polygon fill="#827769" fill-opacity="0.501961" points="37,168 160,147 207,185" />
<polygon fill="#070809" fill-opacity="0.501961" points="189,164 225,147 108,122" />
<polygon fill="#1b1d1a" fill-opacity="0.501961" points="25,56 31,163 55,141" />
<polygon fill="#998a7d" fill-opacity="0.501961" points="168,154 159,130 156,171" />
<polygon fill="#cec5bf" fill-opacity="0.501961" points="114,121 85,112 144,113" />
<polygon fill="#161613" fill-opacity="0.501961" points="126,116 186,134 70,132" />
<polygon fill="#232b2c" fill-opacity="0.501961" points="259,-11 268,73 215,-14" />
<polygon fill="#9e8e81" fill-opacity="0.501961" points="88,159 53,120 53,152" />
<polygon fill="#cab9ad" fill-opacity="0.501961" points="148,157 61,135 127,134" />
<polygon fill="#000000" fill-opacity="0.501961" points="195,93 240,91 187,121" />
<polygon fill="#a1a5a5" fill-opacity="0.501961" points="114,-16 207,93 180,-16" />
<polygon fill="#9e8f82" fill-opacity="0.501961" points="202,124 244,145 232,154" />
<polygon fill="#e2dad4" fill-opacity="0.501961" points="155,120 133,112 166,114" />
<polygon fill="#667260" fill-opacity="0.501961" points="137,52 138,84 195,108" />
<polygon fill="#6d7171" fill-opacity="0.501961" points="172,-16 239,48 225,90" />
<polygon fill="#d4cbc7" fill-opacity="0.501961" points="87,95 121,99 74,106" />
<polygon fill="#6d655c" fill-opacity="0.501961" points="193,161 48,148 97,178" />
<polygon fill="#000000" fill-opacity="0.501961" points="169,147 138,146 137,137" />
<polygon fill="#2f2a28" fill-opacity="0.501961" points="156,111 96,112 126,103" />
<polygon fill="#000000" fill-opacity="0.501961" points="183,141 169,158 235,157" />
<polygon fill="#737374" fill-opacity="0.501961" points="-1,40 51,-9 7,-6" />
<polygon fill="#3b3c38" fill-opacity="0.501961" points="144,137 201,119 80,118" />
<polygon fill="#c7cdcc" fill-opacity="0.501961" points="138,47 181,81 138,3" />
<polygon fill="#c9ced8" fill-opacity="0.501961" points="78,-16 57,9 136,9" />
<polygon fill="#bbb6b1" fill-opacity="0.501961" points="70,111 86,96 70,99" />
<polygon fill="#0a0909" fill-opacity="0.501961" points="61,118 68,133 101,132" />
<polygon fill="#1d1b15" fill-opacity="0.501961" points="101,96 138,97 137,10" />
<polygon fill="#1b1a1b" fill-opacity="0.501961" points="158,111 173,114 171,102" />
<polygon fill="#000002" fill-opacity="0.501961" points="209,75 209,114 220,76" />
<polygon fill="#1c2526" fill-opacity="0.501961" points="39,41 -16,124 80,95" />
<polygon fill="#8e9491" fill-opacity="0.501961" points="197,91 168,90 230,55" />
<polygon fill="#060f0a" fill-opacity="0.501961" points="154,98 168,91 137,91" />
<polygon fill="#b8b4aa" fill-opacity="0.501961" points="59,145 52,121 63,122" />
<polygon fill="#524c3e" fill-opacity="0.501961" points="163,162 271,152 258,179" />
<polygon fill="#abaaae" fill-opacity="0.501961" points="29,9 30,48 13,53" />
<polygon fill="#3e3a37" fill-opacity="0.501961" points="82,102 112,112 113,102" />
<polygon fill="#181510" fill-opacity="0.501961" points="41,157 53,146 52,113" />
<polygon fill="#d6cec8" fill-opacity="0.501961" points="146,97 112,97 134,103" />
<polygon fill="#051916" fill-opacity="0.501961" points="249,97 238,130 214,126" />
<polygon fill="#5f6057" fill-opacity="0.501961" points="265,130 271,149 209,130" />
<polygon fill="#53524d" fill-opacity="0.501961" points="43,169 33,120 50,118" />
<polygon fill="#8f8b86" fill-opacity="0.501961" points="-16,127 28,121 24,148" />
<polygon fill="#9b8b82" fill-opacity="0.501961" points="166,148 148,162 101,150" />
<polygon fill="#4d5454" fill-opacity="0.501961" points="201,-16 262,147 254,34" />
<polygon fill="#938c81" fill-opacity="0.501961" points="121,163 60,183 53,163" />
<polygon fill="#363831" fill-opacity="0.501961" points="41,28 64,105 107,70" />
<polygon fill="#bdaea3" fill-opacity="0.501961" points="136,134 100,157 84,135" />
<polygon fill="#050005" fill-opacity="0.501961" points="139,10 30,11 63,33" />
<polygon fill="#292e32" fill-opacity="0.501961" points="219,143 181,121 168,144" />
<polygon fill="#afa294" fill-opacity="0.501961" points="162,147 163,133 156,133" />
<polygon fill="#83877f" fill-opacity="0.501961" points="199,120 226,140 196,129" />
<polygon fill="#332c22" fill-opacity="0.501961" points="102,38 130,60 99,96" />
<polygon fill="#3f3f37" fill-opacity="0.501961" points="135,161 94,161 115,167" />
<polygon fill="#cc9068" fill-opacity="0.501961" points="100,51 88,54 100,65" />
<polygon fill="#000000" fill-opacity="0.501961" points="39,110 31,106 28,139" />
<polygon fill="#89877b" fill-opacity="0.501961" points="166,163 171,185 89,163" />
<polygon fill="#66686c" fill-opacity="0.501961" points="-3,2 -16,98 15,69" />
<polygon fill="#3d362d" fill-opacity="0.501961" points="51,163 36,134 25,163" />
<polygon fill="#000000" fill-opacity="0.501961" points="174,158 163,142 225,149" />
<polygon fill="#868c81" fill-opacity="0.501961" points="194,95 181,109 141,99" />
<polygon fill="#464441" fill-opacity="0.501961" points="60,117 89,131 123,118" />
<polygon fill="#6b6e6d" fill-opacity="0.501961" points="243,58 192,-7 237,99" />
<polygon fill="#20201e" fill-opacity="0.501961" points="30,109 57,120 93,112" />
<polygon fill="#565951" fill-opacity="0.501961" points="210,115 187,114 217,134" />
<polygon fill="#cec7c1" fill-opacity="0.501961" points="134,118 132,112 114,114" />
<polygon fill="#000000" fill-opacity="0.501961" points="226,144 179,144 221,157" />
<polygon fill="#0b090b" fill-opacity="0.501961" points="229,92 197,92 236,107" />
<polygon fill="#5b5b57" fill-opacity="0.501961" points="70,112 68,102 76,106" />
<polygon fill="#929694" fill-opacity="0.501961" points="189,9 188,90 210,91" />
<polygon fill="#a7ada8" fill-opacity="0.501961" points="194,86 192,47 152,74" />
<polygon fill="#010100" fill-opacity="0.501961" points="112,133 112,126 138,132" />
<polygon fill="#403f3f" fill-opacity="0.501961" points="28,96 -16,88 29,55" />
<polygon fill="#b6b1ac" fill-opacity="0.501961" points="149,116 164,112 180,117" />
<polygon fill="#000102" fill-opacity="0.501961" points="77,133 63,131 64,124" />
<polygon fill="#312c24" fill-opacity="0.501961" points="97,14 97,44 83,65" />
<polygon fill="#8d8c8e" fill-opacity="0.501961" points="39,-16 51,10 24,9" />
<polygon fill="#605d52" fill-opacity="0.501961" points="225,160 150,159 220,185" />
<polygon fill="#53463a" fill-opacity="0.501961" points="34,163 51,148 95,163" />
<polygon fill="#010709" fill-opacity="0.501961" points="157,127 138,146 159,148" />
<polygon fill="#0f0f0e" fill-opacity="0.501961" points="30,120 8,112 66,90" />
<polygon fill="#080b0c" fill-opacity="0.501961" points="219,85 176,118 214,111" />
<polygon fill="#877a72" fill-opacity="0.501961" points="52,131 119,160 68,159" />
<polygon fill="#818382" fill-opacity="0.501961" points="227,81 200,15 154,-14" />
<polygon fill="#e6c09c" fill-opacity="0.501961" points="97,49 94,57 99,63" />
</g>
</svg>