<svg xmlns="http://www.w3.org/2000/svg" version="1.1" width="1024" height="680">
<rect x="0" y="0" width="1024" height="680" fill="#715d46" />
<g transform="scale(4.000000) translate(0.5 0.5)">
<polygon fill="#eeffff" fill-opacity="0.501961" points="77,8 256,33 19,70" />
<polygon fill="#491000" fill-opacity="0.501961" points="263,185 -16,165 257,75" />
<polygon fill="#ffffff" fill-opacity="0.501961" points="157,2 190,96 199,33" />
<polygon fill="#ffbe4e" fill-opacity="0.501961" points="62,99 187,135 199,90" />
<polygon fill="#000000" fill-opacity="0.501961" points="88,56 72,91 202,90" />
<polygon fill="#ffffff" fill-opacity="0.501961" points="66,25 156,24 76,61" />
<polygon fill="#310c00" fill-opacity="0.501961" points="168,182 -16,170 -6,84" />
<polygon fill="#000000" fill-opacity="0.501961" points="238,116 271,68 215,48" />
<polygon fill="#152e08" fill-opacity="0.501961" points="175,46 125,94 140,28" />
<polygon fill="#c0cfd4" fill-opacity="0.501961" points="238,-16 242,32 200,53" />
<polygon fill="#848c8d" fill-opacity="0.501961" points="33,-11 25,73 85,67" />
<polygon fill="#e4eee6" fill-opacity="0.501961" points="193,-15 168,51 200,92" />
<polygon fill="#7b806a" fill-opacity="0.501961" points="133,-16 241,25 27,23" />
<polygon fill="#000004" fill-opacity="0.501961" points="199,70 199,-5 210,33" />
<polygon fill="#954610" fill-opacity="0.501961" points="195,146 59,88 6,128" />
<polygon fill="#050400" fill-opacity="0.501961" points="67,81 62,24 52,74" />
<polygon fill="#cdd0d4" fill-opacity="0.501961" points="29,77 31,93 81,91" />
<polygon fill="#1d2530" fill-opacity="0.501961" points="28,-16 -16,31 29,70" />
<polygon fill="#ffd569" fill-opacity="0.501961" points="135,118 99,94 192,93" />
<polygon fill="#000000" fill-opacity="0.501961" points="50,69 77,80 14,77" />
<polygon fill="#3d464d" fill-opacity="0.501961" points="271,9 204,103 224,30" />
<polygon fill="#2d1700" fill-opacity="0.501961" points="271,181 253,130 80,182" />
<polygon fill="#ffffff" fill-opacity="0.501961" points="130,47 76,58 70,23" />
<polygon fill="#7f4a1d" fill-opacity="0.501961" points="271,98 34,141 166,152" />
<polygon fill="#d2ddd0" fill-opacity="0.501961" points="210,65 232,-16 210,-15" />
<polygon fill="#6f7b59" fill-opacity="0.501961" points="95,57 156,37 124,71" />
<polygon fill="#c3c2be" fill-opacity="0.501961" points="30,66 30,-7 56,71" />
<polygon fill="#00050a" fill-opacity="0.501961" points="248,56 271,103 197,95" />
<polygon fill="#231404" fill-opacity="0.501961" points="0,31 -16,168 25,169" />
<polygon fill="#aaa6a7" fill-opacity="0.501961" points="21,73 10,41 10,102" />
<polygon fill="#d4d4d9" fill-opacity="0.501961" points="204,30 205,66 228,24" />
<polygon fill="#0c2209" fill-opacity="0.501961" points="121,88 145,45 185,92" />
<polygon fill="#504d3c" fill-opacity="0.501961" points="113,1 112,46 102,8" />
<polygon fill="#94937a" fill-opacity="0.501961" points="52,3 182,25 205,-16" />
<polygon fill="#070600" fill-opacity="0.501961" points="56,48 64,80 55,106" />
<polygon fill="#ffffff" fill-opacity="0.501961" points="109,52 58,45 109,19" />
<polygon fill="#69300e" fill-opacity="0.501961" points="-16,93 92,96 -16,122" />
<polygon fill="#2f322f" fill-opacity="0.501961" points="210,60 191,22 209,-16" />
<polygon fill="#52514d" fill-opacity="0.501961" points="69,-13 65,59 31,-12" />
<polygon fill="#ffffff" fill-opacity="0.501961" points="195,23 194,70 161,25" />
<polygon fill="#57574f" fill-opacity="0.501961" points="173,85 234,92 226,47" />
<polygon fill="#bd743b" fill-opacity="0.501961" points="193,92 97,129 214,119" />
<polygon fill="#8b8f8b" fill-opacity="0.501961" points="271,76 223,37 213,-16" />
<polygon fill="#ffffff" fill-opacity="0.501961" points="118,63 124,21 112,49" />
<polygon fill="#41240a" fill-opacity="0.501961" points="46,149 17,185 42,73" />
<polygon fill="#141919" fill-opacity="0.501961" points="77,93 90,55 112,53" />
<polygon fill="#c8cfb7" fill-opacity="0.501961" points="69,75 64,63 83,59" />
<polygon fill="#89885f" fill-opacity="0.501961" points="140,25 129,43 188,46" />
<polygon fill="#0e1d0a" fill-opacity="0.501961" points="122,94 110,44 108,89" />
<polygon fill="#747858" fill-opacity="0.501961" points="100,72 142,33 151,60" />
<polygon fill="#fffbf4" fill-opacity="0.501961" points="39,83 29,78 30,94" />
<polygon fill="#ede5e5" fill-opacity="0.501961" points="63,80 71,95 72,81" />
<polygon fill="#0d1510" fill-opacity="0.501961" points="165,88 72,67 73,92" />
<polygon fill="#e1c26b" fill-opacity="0.501961" points="149,89 123,91 110,103" />
<polygon fill="#807d77" fill-opacity="0.501961" points="68,34 34,-1 40,54" />
<polygon fill="#3c362d" fill-opacity="0.501961" points="17,94 16,29 26,59" />
<polygon fill="#583010" fill-opacity="0.501961" points="160,125 129,174 271,130" />
<polygon fill="#ada39e" fill-opacity="0.501961" points="15,53 15,31 10,41" />
<polygon fill="#bb5927" fill-opacity="0.501961" points="133,122 96,95 29,109" />
<polygon fill="#555441" fill-opacity="0.501961" points="203,26 230,22 205,12" />
<polygon fill="#dcd9d7" fill-opacity="0.501961" points="203,49 208,54 207,33" />
<polygon fill="#ffffff" fill-opacity="0.501961" points="146,25 117,38 113,24" />
<polygon fill="#405331" fill-opacity="0.501961" points="132,43 184,78 167,41" />
<polygon fill="#373c42" fill-opacity="0.501961" points="242,50 242,-12 265,-16" />
<polygon fill="#2e2d31" fill-opacity="0.501961" points="12,-16 8,103 -16,27" />
<polygon fill="#000000" fill-opacity="0.501961" points="271,78 251,102 227,47" />
<polygon fill="#e3d7d7" fill-opacity="0.501961" points="40,64 31,74 30,33" />
<polygon fill="#e1dad8" fill-opacity="0.501961" points="55,80 45,92 44,79" />
<polygon fill="#713c18" fill-opacity="0.501961" points="124,125 71,157 -16,89" />
<polygon fill="#ffffff" fill-opacity="0.501961" points="211,26 227,24 212,45" />
<polygon fill="#000000" fill-opacity="0.501961" points="104,-16 113,-15 112,17" />
<polygon fill="#ac9c8c" fill-opacity="0.501961" points="27,69 22,53 20,74" />
<polygon fill="#885a2e" fill-opacity="0.501961" points="102,122 222,119 136,146" />
<polygon fill="#a39f82" fill-opacity="0.501961" points="107,25 109,-5 52,-16" />
<polygon fill="#3b382f" fill-opacity="0.501961" points="10,-16 71,19 72,-16" />
<polygon fill="#fefefc" fill-opacity="0.501961" points="193,24 169,25 190,83" />
<polygon fill="#000000" fill-opacity="0.501961" points="48,69 82,79 27,78" />
<polygon fill="#888670" fill-opacity="0.501961" points="175,78 203,106 191,72" />
<polygon fill="#281904" fill-opacity="0.501961" points="-15,173 19,125 81,185" />
<polygon fill="#bcbbb2" fill-opacity="0.501961" points="240,-12 242,50 230,13" />
<polygon fill="#ffffff" fill-opacity="0.501961" points="96,26 81,65 71,24" />
<polygon fill="#000000" fill-opacity="0.501961" points="222,59 216,64 216,47" />
<polygon fill="#73350c" fill-opacity="0.501961" points="270,103 198,98 230,151" />
<polygon fill="#b4bd98" fill-opacity="0.501961" points="110,68 109,52 102,76" />
<polygon fill="#212021" fill-opacity="0.501961" points="29,60 23,42 29,20" />
<polygon fill="#c9d4d0" fill-opacity="0.501961" points="211,63 214,49 215,59" />
<polygon fill="#564b4e" fill-opacity="0.501961" points="250,19 230,37 223,31" />
<polygon fill="#87926c" fill-opacity="0.501961" points="157,77 142,75 155,72" />
<polygon fill="#12110c" fill-opacity="0.501961" points="210,0 200,41 197,-12" />
<polygon fill="#707e5f" fill-opacity="0.501961" points="184,58 169,72 161,59" />
<polygon fill="#878269" fill-opacity="0.501961" points="82,24 200,-11 187,24" />
<polygon fill="#908b76" fill-opacity="0.501961" points="115,9 197,-16 197,25" />
<polygon fill="#d8d5ce" fill-opacity="0.501961" points="207,29 203,26 203,41" />
<polygon fill="#e4e4d9" fill-opacity="0.501961" points="185,46 168,24 150,24" />
<polygon fill="#b6aea9" fill-opacity="0.501961" points="7,86 16,96 13,63" />
<polygon fill="#93948c" fill-opacity="0.501961" points="68,43 60,21 34,49" />
<polygon fill="#0d1803" fill-opacity="0.501961" points="106,81 111,62 128,78" />
<polygon fill="#d5dbbf" fill-opacity="0.501961" points="126,63 119,63 122,72" />
<polygon fill="#828284" fill-opacity="0.501961" points="227,39 224,59 217,37" />
<polygon fill="#969681" fill-opacity="0.501961" points="74,75 59,70 75,51" />
</g>
</svg>