<svg xmlns="http://www.w3.org/2000/svg" version="1.1" width="1024" height="680">
<rect x="0" y="0" width="1024" height="680" fill="#0d0b09" />
<g transform="scale(4.000000) translate(0.5 0.5)">
<polygon fill="#605348" fill-opacity="0.501961" points="245,141 106,72 98,136" />
<polygon fill="#ffffff" fill-opacity="0.501961" points="168,132 164,116 170,99" />
<polygon fill="#7f6350" fill-opacity="0.501961" points="105,128 137,89 150,117" />
<polygon fill="#000000" fill-opacity="0.501961" points="121,185 171,185 160,72" />
<polygon fill="#493c33" fill-opacity="0.501961" points="190,40 134,55 173,15" />
<polygon fill="#000000" fill-opacity="0.501961" points="23,185 137,81 -9,-16" />
<polygon fill="#685f58" fill-opacity="0.501961" points="207,118 161,127 181,150" />
<polygon fill="#ffffa2" fill-opacity="0.501961" points="78,33 74,29 75,38" />
<polygon fill="#010000" fill-opacity="0.501961" points="153,56 184,135 214,60" />
<polygon fill="#faf4e8" fill-opacity="0.501961" points="165,100 166,125 171,104" />
<polygon fill="#000000" fill-opacity="0.501961" points="271,155 270,-3 189,-16" />
<polygon fill="#372e28" fill-opacity="0.501961" points="111,71 155,83 97,108" />
<polygon fill="#000000" fill-opacity="0.501961" points="11,-16 220,5 -16,44" />
<polygon fill="#746354" fill-opacity="0.501961" points="107,86 139,139 112,120" />
<polygon fill="#000200" fill-opacity="0.501961" points="134,100 138,114 124,123" />
<polygon fill="#000000" fill-opacity="0.501961" points="-16,162 91,185 112,102" />
<polygon fill="#292721" fill-opacity="0.501961" points="217,105 237,147 192,145" />
<polygon fill="#060402" fill-opacity="0.501961" points="170,88 256,105 169,121" />
<polygon fill="#38322b" fill-opacity="0.501961" points="98,106 127,153 101,149" />
<polygon fill="#928c86" fill-opacity="0.501961" points="192,123 187,132 214,120" />
<polygon fill="#000000" fill-opacity="0.501961" points="116,75 130,116 112,94" />
<polygon fill="#b08069" fill-opacity="0.501961" points="145,109 143,94 134,112" />
<polygon fill="#1a1715" fill-opacity="0.501961" points="187,134 121,136 181,155" />
<polygon fill="#060405" fill-opacity="0.501961" points="163,67 142,90 164,135" />
<polygon fill="#3e342c" fill-opacity="0.501961" points="174,48 195,20 154,26" />
<polygon fill="#c6a891" fill-opacity="0.501961" points="122,121 125,112 115,117" />
<polygon fill="#181714" fill-opacity="0.501961" points="239,85 203,124 241,145" />
<polygon fill="#312b24" fill-opacity="0.501961" points="230,101 214,71 198,72" />
<polygon fill="#000100" fill-opacity="0.501961" points="178,-16 79,32 85,110" />
<polygon fill="#746e61" fill-opacity="0.501961" points="56,83 54,87 52,74" />
<polygon fill="#000000" fill-opacity="0.501961" points="257,166 153,145 53,180" />
<polygon fill="#1a1815" fill-opacity="0.501961" points="129,58 176,8 137,99" />
<polygon fill="#bcbcb8" fill-opacity="0.501961" points="187,129 192,128 193,118" />
<polygon fill="#5c463b" fill-opacity="0.501961" points="99,106 104,88 121,74" />
<polygon fill="#0a0703" fill-opacity="0.501961" points="193,141 199,132 197,118" />
<polygon fill="#000000" fill-opacity="0.501961" points="-16,63 37,185 58,-16" />
<polygon fill="#000000" fill-opacity="0.501961" points="271,13 228,110 217,-16" />
<polygon fill="#b7b6b1" fill-opacity="0.501961" points="202,117 201,130 199,121" />
<polygon fill="#797769" fill-opacity="0.501961" points="125,133 135,123 130,120" />
<polygon fill="#080604" fill-opacity="0.501961" points="175,121 212,118 191,34" />
<polygon fill="#39332b" fill-opacity="0.501961" points="196,132 227,125 214,112" />
<polygon fill="#474241" fill-opacity="0.501961" points="133,78 139,88 117,75" />
<polygon fill="#87736f" fill-opacity="0.501961" points="171,124 163,139 166,125" />
<polygon fill="#a67a64" fill-opacity="0.501961" points="129,99 129,106 121,115" />
<polygon fill="#978881" fill-opacity="0.501961" points="178,134 181,123 177,123" />
<polygon fill="#1d1a15" fill-opacity="0.501961" points="178,38 234,41 183,20" />
<polygon fill="#edc3ad" fill-opacity="0.501961" points="124,118 126,116 124,111" />
<polygon fill="#060e09" fill-opacity="0.501961" points="118,129 129,122 124,120" />
<polygon fill="#000000" fill-opacity="0.501961" points="202,-16 141,16 238,27" />
<polygon fill="#000000" fill-opacity="0.501961" points="111,102 104,100 107,126" />
<polygon fill="#262018" fill-opacity="0.501961" points="181,95 191,99 210,70" />
<polygon fill="#ffffff" fill-opacity="0.501961" points="168,108 167,102 166,108" />
<polygon fill="#1c1815" fill-opacity="0.501961" points="112,158 154,136 167,96" />
<polygon fill="#5d4739" fill-opacity="0.501961" points="179,31 176,50 168,32" />
<polygon fill="#2f3130" fill-opacity="0.501961" points="239,99 238,127 234,111" />
<polygon fill="#060605" fill-opacity="0.501961" points="271,148 236,185 226,123" />
<polygon fill="#4d493a" fill-opacity="0.501961" points="85,104 82,98 81,110" />
<polygon fill="#000000" fill-opacity="0.501961" points="26,185 114,170 81,104" />
<polygon fill="#000000" fill-opacity="0.501961" points="235,96 235,127 219,99" />
<polygon fill="#000000" fill-opacity="0.501961" points="188,57 271,42 270,101" />
<polygon fill="#18120e" fill-opacity="0.501961" points="174,125 176,145 169,155" />
<polygon fill="#000000" fill-opacity="0.501961" points="137,116 130,115 127,110" />
<polygon fill="#1d1917" fill-opacity="0.501961" points="132,117 186,148 166,152" />
<polygon fill="#50514d" fill-opacity="0.501961" points="174,80 181,75 178,74" />
<polygon fill="#000000" fill-opacity="0.501961" points="219,130 213,127 216,114" />
<polygon fill="#413a33" fill-opacity="0.501961" points="100,119 107,144 118,147" />
<polygon fill="#4c392d" fill-opacity="0.501961" points="99,102 100,120 104,106" />
<polygon fill="#ffbc73" fill-opacity="0.501961" points="75,29 74,38 78,35" />
<polygon fill="#836e5c" fill-opacity="0.501961" points="110,122 119,107 121,126" />
<polygon fill="#000000" fill-opacity="0.501961" points="14,52 60,-16 74,37" />
<polygon fill="#37302a" fill-opacity="0.501961" points="175,35 143,37 159,24" />
<polygon fill="#181511" fill-opacity="0.501961" points="195,45 121,45 134,64" />
<polygon fill="#0d0c06" fill-opacity="0.501961" points="105,118 115,109 102,99" />
<polygon fill="#e8ac8e" fill-opacity="0.501961" points="128,109 131,106 130,108" />
<polygon fill="#000200" fill-opacity="0.501961" points="117,72 114,97 124,109" />
<polygon fill="#5d5e59" fill-opacity="0.501961" points="128,135 116,133 109,125" />
<polygon fill="#a07563" fill-opacity="0.501961" points="136,101 142,97 145,114" />
<polygon fill="#000000" fill-opacity="0.501961" points="138,65 205,46 161,83" />
<polygon fill="#030303" fill-opacity="0.501961" points="53,70 143,53 58,98" />
<polygon fill="#3c3530" fill-opacity="0.501961" points="188,132 178,151 181,122" />
<polygon fill="#1a1b18" fill-opacity="0.501961" points="242,92 251,91 248,125" />
<polygon fill="#7a6055" fill-opacity="0.501961" points="174,101 167,98 166,100" />
<polygon fill="#171616" fill-opacity="0.501961" points="170,81 141,94 151,98" />
<polygon fill="#070504" fill-opacity="0.501961" points="171,112 169,87 220,119" />
<polygon fill="#1e1a17" fill-opacity="0.501961" points="126,74 127,105 110,80" />
<polygon fill="#6c4f43" fill-opacity="0.501961" points="145,95 139,116 148,121" />
<polygon fill="#745947" fill-opacity="0.501961" points="132,109 126,105 132,91" />
<polygon fill="#573e34" fill-opacity="0.501961" points="173,136 169,119 167,142" />
<polygon fill="#201d17" fill-opacity="0.501961" points="211,27 225,39 203,54" />
<polygon fill="#040301" fill-opacity="0.501961" points="147,127 176,170 136,138" />
<polygon fill="#a0a6a2" fill-opacity="0.501961" points="167,132 167,122 164,127" />
<polygon fill="#878581" fill-opacity="0.501961" points="188,136 190,121 194,133" />
<polygon fill="#2c2425" fill-opacity="0.501961" points="145,129 146,98 155,117" />
<polygon fill="#000000" fill-opacity="0.501961" points="215,81 195,84 184,77" />
<polygon fill="#887d69" fill-opacity="0.501961" points="83,106 84,103 82,100" />
<polygon fill="#8b7b66" fill-opacity="0.501961" points="133,120 131,126 129,118" />
<polygon fill="#65655d" fill-opacity="0.501961" points="130,135 117,121 129,126" />
<polygon fill="#48433b" fill-opacity="0.501961" points="218,126 224,126 219,109" />
<polygon fill="#665b50" fill-opacity="0.501961" points="211,124 209,120 201,130" />
<polygon fill="#020100" fill-opacity="0.501961" points="95,122 82,98 112,49" />
</g>
</svg>