<svg xmlns="http://www.w3.org/2000/svg" version="1.1" width="1024" height="680">
<rect x="0" y="0" width="1024" height="680" fill="#605950" />
<g transform="scale(4.000000) translate(0.5 0.5)">
<polygon fill="#ffdbb4" fill-opacity="0.501961" points="271,172 70,185 161,121" />
<polygon fill="#ffffff" fill-opacity="0.501961" points="32,-16 72,26 42,88" />
<polygon fill="#030507" fill-opacity="0.501961" points="74,147 270,90 -16,63" />
<polygon fill="#ffffdd" fill-opacity="0.501961" points="116,-7 271,37 254,-16" />
<polygon fill="#000000" fill-opacity="0.501961" points="227,44 69,51 100,0" />
<polygon fill="#e4d9d3" fill-opacity="0.501961" points="93,50 210,49 205,84" />
<polygon fill="#000000" fill-opacity="0.501961" points="33,124 37,14 -16,8" />
<polygon fill="#9c816c" fill-opacity="0.501961" points="-16,94 -12,185 156,170" />
<polygon fill="#00080b" fill-opacity="0.501961" points="153,4 77,84 79,11" />
<polygon fill="#e6e1dd" fill-opacity="0.501961" points="37,84 67,88 38,-14" />
<polygon fill="#2b2f31" fill-opacity="0.501961" points="257,72 271,156 168,74" />
<polygon fill="#f1f7ff" fill-opacity="0.501961" points="43,14 -15,5 39,-16" />
<polygon fill="#000005" fill-opacity="0.501961" points="37,11 26,114 -16,69" />
<polygon fill="#84715e" fill-opacity="0.501961" points="126,88 131,127 249,153" />
<polygon fill="#b2bac4" fill-opacity="0.501961" points="111,8 33,-10 188,-16" />
<polygon fill="#fad1b4" fill-opacity="0.501961" points="248,-16 271,18 153,18" />
<polygon fill="#7f765f" fill-opacity="0.501961" points="211,10 218,114 245,92" />
<polygon fill="#ffffff" fill-opacity="0.501961" points="126,65 161,72 196,59" />
<polygon fill="#7b6c62" fill-opacity="0.501961" points="70,89 38,79 80,-9" />
<polygon fill="#0a1c20" fill-opacity="0.501961" points="209,16 76,29 213,52" />
<polygon fill="#000309" fill-opacity="0.501961" points="199,122 214,86 126,76" />
<polygon fill="#1b2517" fill-opacity="0.501961" points="235,56 271,14 251,151" />
<polygon fill="#767242" fill-opacity="0.501961" points="271,46 234,17 185,63" />
<polygon fill="#28251e" fill-opacity="0.501961" points="110,27 87,158 41,134" />
<polygon fill="#d6ccc6" fill-opacity="0.501961" points="151,70 105,51 113,66" />
<polygon fill="#131618" fill-opacity="0.501961" points="154,27 152,59 164,56" />
<polygon fill="#b09079" fill-opacity="0.501961" points="160,19 218,16 141,-16" />
<polygon fill="#09080b" fill-opacity="0.501961" points="125,145 130,104 31,83" />
<polygon fill="#141f23" fill-opacity="0.501961" points="126,57 92,16 160,-4" />
<polygon fill="#c5a98d" fill-opacity="0.501961" points="122,175 245,134 253,185" />
<polygon fill="#ffffff" fill-opacity="0.501961" points="55,41 40,58 37,-16" />
<polygon fill="#191e1d" fill-opacity="0.501961" points="-16,19 -1,109 47,74" />
<polygon fill="#978886" fill-opacity="0.501961" points="77,26 48,-16 54,75" />
<polygon fill="#faf2e9" fill-opacity="0.501961" points="208,73 184,74 173,62" />
<polygon fill="#aa9381" fill-opacity="0.501961" points="-10,147 108,172 -15,185" />
<polygon fill="#685b4d" fill-opacity="0.501961" points="131,145 26,112 50,157" />
<polygon fill="#433d37" fill-opacity="0.501961" points="152,122 46,73 151,86" />
<polygon fill="#3b3a23" fill-opacity="0.501961" points="202,124 262,27 201,81" />
<polygon fill="#00070d" fill-opacity="0.501961" points="-16,7 37,72 35,16" />
<polygon fill="#bca380" fill-opacity="0.501961" points="234,46 271,15 211,40" />
<polygon fill="#ffffff" fill-opacity="0.501961" points="166,51 190,50 167,59" />
<polygon fill="#1a2224" fill-opacity="0.501961" points="108,6 159,48 235,51" />
<polygon fill="#000003" fill-opacity="0.501961" points="156,109 195,116 164,89" />
<polygon fill="#5d6f7f" fill-opacity="0.501961" points="215,116 244,56 234,113" />
<polygon fill="#a18770" fill-opacity="0.501961" points="140,141 105,144 101,185" />
<polygon fill="#fff8eb" fill-opacity="0.501961" points="122,49 157,50 143,56" />
<polygon fill="#a68d74" fill-opacity="0.501961" points="198,135 151,122 160,112" />
<polygon fill="#fae5cd" fill-opacity="0.501961" points="271,31 206,-7 271,0" />
<polygon fill="#515642" fill-opacity="0.501961" points="52,59 26,58 34,64" />
<polygon fill="#3b3833" fill-opacity="0.501961" points="142,70 187,74 161,80" />
<polygon fill="#ffffff" fill-opacity="0.501961" points="41,12 30,3 28,13" />
<polygon fill="#334852" fill-opacity="0.501961" points="125,144 130,100 149,131" />
<polygon fill="#745e46" fill-opacity="0.501961" points="256,168 271,139 162,111" />
<polygon fill="#1d1e24" fill-opacity="0.501961" points="218,126 265,134 262,89" />
<polygon fill="#2f2a35" fill-opacity="0.501961" points="196,53 214,60 189,61" />
<polygon fill="#fffdf5" fill-opacity="0.501961" points="194,71 210,72 192,63" />
<polygon fill="#8c8583" fill-opacity="0.501961" points="57,14 156,0 125,-16" />
<polygon fill="#1f1f1c" fill-opacity="0.501961" points="102,67 132,70 65,135" />
<polygon fill="#b79a83" fill-opacity="0.501961" points="266,-16 154,21 155,-16" />
<polygon fill="#1c1512" fill-opacity="0.501961" points="217,84 207,75 183,76" />
<polygon fill="#5d6762" fill-opacity="0.501961" points="68,83 22,74 40,69" />
<polygon fill="#e9e3e5" fill-opacity="0.501961" points="54,62 45,74 37,62" />
<polygon fill="#86746b" fill-opacity="0.501961" points="43,-16 76,62 74,-16" />
<polygon fill="#aa9375" fill-opacity="0.501961" points="233,45 208,12 216,44" />
<polygon fill="#c7bfb6" fill-opacity="0.501961" points="118,48 106,62 105,48" />
<polygon fill="#ffffff" fill-opacity="0.501961" points="52,59 38,56 39,8" />
<polygon fill="#978164" fill-opacity="0.501961" points="-14,98 -16,141 42,117" />
<polygon fill="#2f241c" fill-opacity="0.501961" points="119,59 127,58 127,41" />
<polygon fill="#cbbfa2" fill-opacity="0.501961" points="50,81 62,90 29,81" />
<polygon fill="#1a1e1d" fill-opacity="0.501961" points="207,82 218,76 213,49" />
<polygon fill="#696059" fill-opacity="0.501961" points="196,57 170,58 190,64" />
<polygon fill="#4b3e26" fill-opacity="0.501961" points="102,58 88,73 40,60" />
<polygon fill="#524a41" fill-opacity="0.501961" points="134,57 168,59 156,51" />
<polygon fill="#181f22" fill-opacity="0.501961" points="124,48 141,3 183,49" />
<polygon fill="#151c1e" fill-opacity="0.501961" points="77,60 77,12 123,6" />
<polygon fill="#ccb096" fill-opacity="0.501961" points="152,163 177,134 271,178" />
<polygon fill="#c7b3ae" fill-opacity="0.501961" points="210,51 196,50 209,64" />
<polygon fill="#4f4d49" fill-opacity="0.501961" points="184,85 193,62 193,77" />
<polygon fill="#fffff9" fill-opacity="0.501961" points="182,73 157,61 154,69" />
<polygon fill="#355509" fill-opacity="0.501961" points="227,34 239,37 222,23" />
<polygon fill="#615d57" fill-opacity="0.501961" points="151,85 129,85 154,120" />
<polygon fill="#24201c" fill-opacity="0.501961" points="0,103 31,82 62,118" />
<polygon fill="#405217" fill-opacity="0.501961" points="271,38 242,64 224,49" />
<polygon fill="#7e624c" fill-opacity="0.501961" points="216,78 230,89 215,121" />
<polygon fill="#1e1e17" fill-opacity="0.501961" points="216,145 219,112 223,126" />
<polygon fill="#d0c0bc" fill-opacity="0.501961" points="27,-16 57,38 49,4" />
<polygon fill="#1e1c19" fill-opacity="0.501961" points="74,92 32,83 33,110" />
<polygon fill="#0c0a0d" fill-opacity="0.501961" points="213,111 201,119 182,104" />
<polygon fill="#0f0f00" fill-opacity="0.501961" points="108,34 88,68 99,70" />
<polygon fill="#5a4234" fill-opacity="0.501961" points="20,110 16,88 -16,97" />
<polygon fill="#766e66" fill-opacity="0.501961" points="124,80 106,86 106,80" />
<polygon fill="#ecddd2" fill-opacity="0.501961" points="151,58 151,50 135,51" />
<polygon fill="#947c63" fill-opacity="0.501961" points="217,61 216,47 242,67" />
<polygon fill="#706d67" fill-opacity="0.501961" points="180,71 190,82 150,78" />
<polygon fill="#dcccc4" fill-opacity="0.501961" points="124,58 156,62 133,68" />
<polygon fill="#1c1a18" fill-opacity="0.501961" points="63,97 144,103 59,132" />
<polygon fill="#000408" fill-opacity="0.501961" points="-14,94 15,87 24,32" />
<polygon fill="#302d2a" fill-opacity="0.501961" points="202,54 191,58 206,61" />
<polygon fill="#c6c2c4" fill-opacity="0.501961" points="58,55 49,9 45,56" />
<polygon fill="#111518" fill-opacity="0.501961" points="130,141 119,106 84,129" />
</g>
</svg>