<svg xmlns="http://www.w3.org/2000/svg" version="1.1" width="1024" height="680">
<rect x="0" y="0" width="1024" height="680" fill="#5f4b34" />
<g transform="scale(4.000000) translate(0.5 0.5)">
<polygon fill="#ffffe3" fill-opacity="0.501961" points="65,46 -16,179 70,148" />
<polygon fill="#0b0302" fill-opacity="0.501961" points="267,81 263,168 10,171" />
<polygon fill="#ffe3c0" fill-opacity="0.501961" points="-16,165 69,78 -10,82" />
<polygon fill="#ffff75" fill-opacity="0.501961" points="66,140 129,102 203,101" />
<polygon fill="#200b00" fill-opacity="0.501961" points="68,-14 222,89 70,120" />
<polygon fill="#ffffc6" fill-opacity="0.501961" points="200,75 243,76 235,50" />
<polygon fill="#564232" fill-opacity="0.501961" points="28,1 5,70 271,54" />
<polygon fill="#ffd880" fill-opacity="0.501961" points="107,139 75,127 172,99" />
<polygon fill="#050000" fill-opacity="0.501961" points="209,58 187,99 71,69" />
<polygon fill="#0f0201" fill-opacity="0.501961" points="48,145 83,150 77,124" />
<polygon fill="#ffff62" fill-opacity="0.501961" points="-1,17 22,25 0,31" />
<polygon fill="#070000" fill-opacity="0.501961" points="186,42 158,24 176,-16" />
<polygon fill="#000000" fill-opacity="0.501961" points="270,107 170,166 254,185" />
<polygon fill="#fff5df" fill-opacity="0.501961" points="48,77 67,69 67,143" />
<polygon fill="#a78565" fill-opacity="0.501961" points="-8,157 53,67 42,130" />
<polygon fill="#944600" fill-opacity="0.501961" points="132,113 154,82 68,123" />
<polygon fill="#fbd2a8" fill-opacity="0.501961" points="242,77 231,50 230,102" />
<polygon fill="#ffffff" fill-opacity="0.501961" points="141,103 128,117 158,109" />
<polygon fill="#000000" fill-opacity="0.501961" points="85,104 68,66 70,145" />
<polygon fill="#6e5842" fill-opacity="0.501961" points="266,109 231,81 187,126" />
<polygon fill="#917661" fill-opacity="0.501961" points="228,29 197,-16 271,5" />
<polygon fill="#ffffff" fill-opacity="0.501961" points="80,133 81,122 102,125" />
<polygon fill="#412e1f" fill-opacity="0.501961" points="62,21 71,70 -16,34" />
<polygon fill="#f2c997" fill-opacity="0.501961" points="205,62 204,83 240,64" />
<polygon fill="#f2cab0" fill-opacity="0.501961" points="-3,145 46,148 2,178" />
<polygon fill="#4d3627" fill-opacity="0.501961" points="161,185 130,121 21,177" />
<polygon fill="#3c240d" fill-opacity="0.501961" points="218,99 193,137 185,46" />
<polygon fill="#6d6f82" fill-opacity="0.501961" points="99,1 157,-16 157,21" />
<polygon fill="#270f00" fill-opacity="0.501961" points="145,72 66,70 125,114" />
<polygon fill="#f78e2a" fill-opacity="0.501961" points="136,125 202,101 171,99" />
<polygon fill="#90714e" fill-opacity="0.501961" points="48,80 -16,86 3,54" />
<polygon fill="#ffffff" fill-opacity="0.501961" points="66,99 54,71 64,67" />
<polygon fill="#251811" fill-opacity="0.501961" points="243,100 246,31 271,98" />
<polygon fill="#d0b293" fill-opacity="0.501961" points="53,82 70,145 -16,92" />
<polygon fill="#ffda54" fill-opacity="0.501961" points="24,26 -16,13 6,30" />
<polygon fill="#533a21" fill-opacity="0.501961" points="215,26 217,92 231,35" />
<polygon fill="#5c4a38" fill-opacity="0.501961" points="116,3 151,52 -6,77" />
<polygon fill="#804400" fill-opacity="0.501961" points="99,85 80,81 79,119" />
<polygon fill="#ff9b36" fill-opacity="0.501961" points="92,137 119,116 153,115" />
<polygon fill="#d69201" fill-opacity="0.501961" points="140,93 169,107 133,106" />
<polygon fill="#090300" fill-opacity="0.501961" points="41,141 71,144 55,148" />
<polygon fill="#000000" fill-opacity="0.501961" points="118,66 68,93 67,66" />
<polygon fill="#1f150b" fill-opacity="0.501961" points="189,107 227,89 230,72" />
<polygon fill="#4a2400" fill-opacity="0.501961" points="167,102 141,71 144,104" />
<polygon fill="#edbe8a" fill-opacity="0.501961" points="230,75 217,70 230,50" />
<polygon fill="#000000" fill-opacity="0.501961" points="80,136 72,93 68,139" />
<polygon fill="#483727" fill-opacity="0.501961" points="98,32 271,31 203,62" />
<polygon fill="#ffffd5" fill-opacity="0.501961" points="87,125 107,127 121,118" />
<polygon fill="#cc7f31" fill-opacity="0.501961" points="113,123 81,148 80,136" />
<polygon fill="#c7a77f" fill-opacity="0.501961" points="240,89 241,80 214,97" />
<polygon fill="#493526" fill-opacity="0.501961" points="167,112 120,184 247,89" />
<polygon fill="#c56700" fill-opacity="0.501961" points="92,124 111,105 121,112" />
<polygon fill="#a16900" fill-opacity="0.501961" points="78,124 84,105 104,121" />
<polygon fill="#ffffac" fill-opacity="0.501961" points="181,100 169,107 164,103" />
<polygon fill="#10161a" fill-opacity="0.501961" points="130,20 66,9 67,-11" />
<polygon fill="#ae9374" fill-opacity="0.501961" points="6,134 49,148 40,92" />
<polygon fill="#00030b" fill-opacity="0.501961" points="156,-10 173,-6 172,30" />
<polygon fill="#cab597" fill-opacity="0.501961" points="6,131 31,90 -16,81" />
<polygon fill="#b29976" fill-opacity="0.501961" points="78,149 82,143 60,149" />
<polygon fill="#7c4e2e" fill-opacity="0.501961" points="116,12 160,34 65,19" />
<polygon fill="#372002" fill-opacity="0.501961" points="206,113 179,79 203,56" />
<polygon fill="#0a0200" fill-opacity="0.501961" points="125,65 171,93 194,61" />
<polygon fill="#ffffe6" fill-opacity="0.501961" points="224,69 233,57 237,65" />
<polygon fill="#8a6842" fill-opacity="0.501961" points="226,50 214,67 256,44" />
<polygon fill="#170f03" fill-opacity="0.501961" points="247,185 247,113 174,147" />
<polygon fill="#59473a" fill-opacity="0.501961" points="239,106 240,67 247,91" />
<polygon fill="#574938" fill-opacity="0.501961" points="100,60 230,61 140,36" />
<polygon fill="#e7cb9d" fill-opacity="0.501961" points="234,64 204,67 204,80" />
<polygon fill="#ffffff" fill-opacity="0.501961" points="66,72 60,66 51,79" />
<polygon fill="#ffffd8" fill-opacity="0.501961" points="135,105 132,116 158,111" />
<polygon fill="#503c2a" fill-opacity="0.501961" points="13,-15 103,27 41,79" />
<polygon fill="#ffffe3" fill-opacity="0.501961" points="83,130 94,129 80,122" />
<polygon fill="#442200" fill-opacity="0.501961" points="85,121 79,97 164,70" />
<polygon fill="#31353f" fill-opacity="0.501961" points="118,18 166,25 165,12" />
<polygon fill="#2f2413" fill-opacity="0.501961" points="124,34 70,29 102,21" />
<polygon fill="#795516" fill-opacity="0.501961" points="189,78 190,98 197,67" />
<polygon fill="#958582" fill-opacity="0.501961" points="122,-8 121,11 139,13" />
<polygon fill="#403229" fill-opacity="0.501961" points="66,180 -8,177 152,121" />
<polygon fill="#888086" fill-opacity="0.501961" points="151,0 166,18 153,13" />
<polygon fill="#dcb99f" fill-opacity="0.501961" points="44,140 24,165 51,152" />
<polygon fill="#d4af8f" fill-opacity="0.501961" points="67,86 59,117 69,150" />
<polygon fill="#ffbf46" fill-opacity="0.501961" points="23,25 5,19 -14,32" />
<polygon fill="#302411" fill-opacity="0.501961" points="148,159 249,104 176,185" />
<polygon fill="#fff44a" fill-opacity="0.501961" points="165,109 156,109 156,100" />
<polygon fill="#3d2a17" fill-opacity="0.501961" points="28,30 12,53 -16,31" />
<polygon fill="#d4b497" fill-opacity="0.501961" points="66,140 49,84 50,139" />
<polygon fill="#6c3d16" fill-opacity="0.501961" points="236,21 259,65 262,23" />
<polygon fill="#d49006" fill-opacity="0.501961" points="96,130 95,114 88,110" />
<polygon fill="#ffffde" fill-opacity="0.501961" points="120,120 97,122 97,129" />
<polygon fill="#2c1300" fill-opacity="0.501961" points="144,100 180,98 160,69" />
<polygon fill="#ffffe8" fill-opacity="0.501961" points="66,71 53,73 66,107" />
<polygon fill="#caae95" fill-opacity="0.501961" points="44,136 52,156 -4,148" />
<polygon fill="#ffffcc" fill-opacity="0.501961" points="172,106 165,107 170,99" />
<polygon fill="#634f3d" fill-opacity="0.501961" points="180,38 184,-16 235,26" />
<polygon fill="#582e06" fill-opacity="0.501961" points="113,115 81,108 108,100" />
<polygon fill="#0f0402" fill-opacity="0.501961" points="207,101 196,98 202,69" />
<polygon fill="#ffb31e" fill-opacity="0.501961" points="119,120 115,107 111,108" />
<polygon fill="#6c5949" fill-opacity="0.501961" points="246,114 271,117 271,68" />
<polygon fill="#856d47" fill-opacity="0.501961" points="218,69 227,76 210,81" />
<polygon fill="#303a3a" fill-opacity="0.501961" points="130,17 104,17 79,-8" />
</g>
</svg>