<svg xmlns="http://www.w3.org/2000/svg" version="1.1" width="1024" height="680">
<rect x="0" y="0" width="1024" height="680" fill="#59574e" />
<g transform="scale(4.000000) translate(0.5 0.5)">
<polygon fill="#f4e7dd" fill-opacity="0.501961" points="-16,148 198,118 195,185" />
<polygon fill="#ffffff" fill-opacity="0.501961" points="97,66 191,40 20,35" />
<polygon fill="#000000" fill-opacity="0.501961" points="227,52 271,-16 -16,4" />
<polygon fill="#ffffff" fill-opacity="0.501961" points="229,42 271,34 251,65" />
<polygon fill="#1d1201" fill-opacity="0.501961" points="6,-16 80,106 -16,169" />
<polygon fill="#00040f" fill-opacity="0.501961" points="224,151 228,53 271,104" />
<polygon fill="#ffffe8" fill-opacity="0.501961" points="75,111 80,79 87,122" />
<polygon fill="#ffffff" fill-opacity="0.501961" points="73,64 44,37 129,38" />
<polygon fill="#0c0d0b" fill-opacity="0.501961" points="-16,-3 45,38 115,3" />
<polygon fill="#2a210f" fill-opacity="0.501961" points="69,63 170,62 135,133" />
<polygon fill="#80885e" fill-opacity="0.501961" points="207,43 120,16 118,69" />
<polygon fill="#020300" fill-opacity="0.501961" points="246,-16 271,37 146,35" />
<polygon fill="#b9ada3" fill-opacity="0.501961" points="11,169 250,166 164,116" />
<polygon fill="#887162" fill-opacity="0.501961" points="-16,149 37,185 76,128" />
<polygon fill="#ffebb4" fill-opacity="0.501961" points="77,123 75,76 87,81" />
<polygon fill="#0b0903" fill-opacity="0.501961" points="171,80 186,49 238,33" />
<polygon fill="#384337" fill-opacity="0.501961" points="177,122 214,144 186,72" />
<polygon fill="#dbdedb" fill-opacity="0.501961" points="169,133 62,133 134,160" />
<polygon fill="#323021" fill-opacity="0.501961" points="159,101 30,126 132,134" />
<polygon fill="#9eb391" fill-opacity="0.501961" points="174,61 111,61 196,36" />
<polygon fill="#ffffff" fill-opacity="0.501961" points="236,37 271,47 231,50" />
<polygon fill="#d0a878" fill-opacity="0.501961" points="90,27 113,20 127,28" />
<polygon fill="#2d261a" fill-opacity="0.501961" points="75,66 20,29 74,126" />
<polygon fill="#9c8f5d" fill-opacity="0.501961" points="168,120 180,76 151,75" />
<polygon fill="#f8fff7" fill-opacity="0.501961" points="114,63 39,39 116,39" />
<polygon fill="#566e8a" fill-opacity="0.501961" points="196,65 205,144 230,43" />
<polygon fill="#e4b176" fill-opacity="0.501961" points="5,31 -6,25 24,27" />
<polygon fill="#887261" fill-opacity="0.501961" points="108,169 271,179 220,146" />
<polygon fill="#18160e" fill-opacity="0.501961" points="271,20 92,26 176,-16" />
<polygon fill="#ffffff" fill-opacity="0.501961" points="134,38 151,47 144,37" />
<polygon fill="#182e32" fill-opacity="0.501961" points="254,144 271,61 224,65" />
<polygon fill="#ffffff" fill-opacity="0.501961" points="76,39 65,54 33,37" />
<polygon fill="#6a7139" fill-opacity="0.501961" points="158,17 172,63 143,57" />
<polygon fill="#7d6b5c" fill-opacity="0.501961" points="48,132 33,185 -12,154" />
<polygon fill="#98a294" fill-opacity="0.501961" points="84,37 99,54 88,63" />
<polygon fill="#c9c4a3" fill-opacity="0.501961" points="85,122 74,118 85,90" />
<polygon fill="#2b2924" fill-opacity="0.501961" points="82,39 54,28 109,31" />
<polygon fill="#16130a" fill-opacity="0.501961" points="-2,-16 68,24 1,26" />
<polygon fill="#d8f9ff" fill-opacity="0.501961" points="244,62 258,58 253,38" />
<polygon fill="#424d49" fill-opacity="0.501961" points="219,124 186,111 146,121" />
<polygon fill="#0f0e08" fill-opacity="0.501961" points="87,94 88,124 103,125" />
<polygon fill="#a6a099" fill-opacity="0.501961" points="117,185 74,132 40,135" />
<polygon fill="#bdd9ec" fill-opacity="0.501961" points="271,62 233,60 255,54" />
<polygon fill="#d7a071" fill-opacity="0.501961" points="161,29 131,27 153,22" />
<polygon fill="#f6d187" fill-opacity="0.501961" points="174,95 175,77 168,77" />
<polygon fill="#3b3528" fill-opacity="0.501961" points="63,132 33,37 79,67" />
<polygon fill="#090b0d" fill-opacity="0.501961" points="228,151 226,139 254,163" />
<polygon fill="#cac9c0" fill-opacity="0.501961" points="177,126 137,122 164,163" />
<polygon fill="#2a2a2a" fill-opacity="0.501961" points="63,36 108,-16 9,37" />
<polygon fill="#26221b" fill-opacity="0.501961" points="153,79 208,29 259,27" />
<polygon fill="#2a1910" fill-opacity="0.501961" points="108,30 158,29 131,37" />
<polygon fill="#332d22" fill-opacity="0.501961" points="88,-3 64,24 189,26" />
<polygon fill="#1f1911" fill-opacity="0.501961" points="155,121 132,124 145,102" />
<polygon fill="#3c382d" fill-opacity="0.501961" points="82,61 134,63 91,107" />
<polygon fill="#947967" fill-opacity="0.501961" points="146,168 80,185 8,155" />
<polygon fill="#6a765e" fill-opacity="0.501961" points="104,110 119,88 88,91" />
<polygon fill="#485564" fill-opacity="0.501961" points="228,150 197,130 223,54" />
<polygon fill="#000103" fill-opacity="0.501961" points="227,151 227,80 237,114" />
<polygon fill="#ffefbb" fill-opacity="0.501961" points="105,29 99,26 116,26" />
<polygon fill="#070806" fill-opacity="0.501961" points="226,43 242,-16 271,13" />
<polygon fill="#e5ffff" fill-opacity="0.501961" points="271,38 231,51 239,38" />
<polygon fill="#adb7ce" fill-opacity="0.501961" points="185,38 196,39 169,60" />
<polygon fill="#f0dbb4" fill-opacity="0.501961" points="75,85 84,77 85,105" />
<polygon fill="#c59c6c" fill-opacity="0.501961" points="90,23 73,28 106,29" />
<polygon fill="#1f1f1d" fill-opacity="0.501961" points="148,37 225,36 197,3" />
<polygon fill="#383024" fill-opacity="0.501961" points="163,83 198,33 227,33" />
<polygon fill="#bbb8b2" fill-opacity="0.501961" points="83,163 181,157 75,131" />
<polygon fill="#2e3d40" fill-opacity="0.501961" points="233,91 251,101 244,52" />
<polygon fill="#384d56" fill-opacity="0.501961" points="172,45 176,53 156,42" />
<polygon fill="#bcc7bb" fill-opacity="0.501961" points="105,61 76,40 77,62" />
<polygon fill="#565b58" fill-opacity="0.501961" points="236,151 271,156 233,124" />
<polygon fill="#443c2d" fill-opacity="0.501961" points="27,135 85,67 26,40" />
<polygon fill="#908880" fill-opacity="0.501961" points="189,132 166,185 215,144" />
<polygon fill="#617063" fill-opacity="0.501961" points="152,122 183,116 152,83" />
<polygon fill="#b4bfa7" fill-opacity="0.501961" points="140,37 130,61 146,63" />
<polygon fill="#2e281d" fill-opacity="0.501961" points="-16,28 25,31 27,134" />
<polygon fill="#d2b07b" fill-opacity="0.501961" points="15,28 29,30 28,26" />
<polygon fill="#676c53" fill-opacity="0.501961" points="90,133 113,124 139,132" />
<polygon fill="#ffffff" fill-opacity="0.501961" points="116,54 101,49 107,62" />
<polygon fill="#262718" fill-opacity="0.501961" points="182,75 183,122 191,94" />
<polygon fill="#8e7248" fill-opacity="0.501961" points="89,82 74,82 82,73" />
<polygon fill="#889760" fill-opacity="0.501961" points="165,53 123,58 115,35" />
<polygon fill="#b2bea5" fill-opacity="0.501961" points="72,50 55,51 85,63" />
<polygon fill="#d2cfc9" fill-opacity="0.501961" points="132,150 70,134 141,133" />
<polygon fill="#2b261c" fill-opacity="0.501961" points="74,123 72,63 51,133" />
<polygon fill="#151614" fill-opacity="0.501961" points="145,-15 253,-9 228,49" />
<polygon fill="#362f26" fill-opacity="0.501961" points="9,141 47,119 87,122" />
<polygon fill="#0b0c0c" fill-opacity="0.501961" points="266,169 240,157 271,160" />
<polygon fill="#ffffff" fill-opacity="0.501961" points="40,39 61,53 73,38" />
<polygon fill="#f9fff6" fill-opacity="0.501961" points="137,37 148,37 142,50" />
<polygon fill="#ad9d50" fill-opacity="0.501961" points="176,86 180,103 181,83" />
<polygon fill="#3c3429" fill-opacity="0.501961" points="73,62 175,62 96,90" />
<polygon fill="#cc9e72" fill-opacity="0.501961" points="134,29 118,26 138,24" />
<polygon fill="#342c22" fill-opacity="0.501961" points="108,125 152,73 151,120" />
<polygon fill="#667482" fill-opacity="0.501961" points="197,62 203,88 225,46" />
<polygon fill="#c8ccbc" fill-opacity="0.501961" points="77,37 97,39 105,58" />
<polygon fill="#ffffe1" fill-opacity="0.501961" points="76,96 75,82 80,86" />
<polygon fill="#2f2c27" fill-opacity="0.501961" points="59,25 125,-4 93,26" />
<polygon fill="#6f7345" fill-opacity="0.501961" points="187,97 196,122 197,86" />
<polygon fill="#ffffff" fill-opacity="0.501961" points="103,37 113,51 118,38" />
</g>
</svg>