<svg xmlns="http://www.w3.org/2000/svg" version="1.1" width="1024" height="680">
<rect x="0" y="0" width="1024" height="680" fill="#5f463d" />
<g transform="scale(4.000000) translate(0.5 0.5)">
<polygon fill="#ffceae" fill-opacity="0.501961" points="198,104 -16,45 200,1" />
<polygon fill="#000000" fill-opacity="0.501961" points="-16,80 24,185 271,154" />
<polygon fill="#ffedc7" fill-opacity="0.501961" points="138,75 33,62 11,93" />
<polygon fill="#000010" fill-opacity="0.501961" points="38,177 271,175 258,55" />
<polygon fill="#eaad87" fill-opacity="0.501961" points="196,28 50,8 79,90" />
<polygon fill="#363961" fill-opacity="0.501961" points="185,70 229,163 126,83" />
<polygon fill="#84461d" fill-opacity="0.501961" points="71,98 35,70 55,-16" />
<polygon fill="#0a0503" fill-opacity="0.501961" points="263,70 259,-8 178,-10" />
<polygon fill="#fffffb" fill-opacity="0.501961" points="35,91 7,73 47,71" />
<polygon fill="#ffecc8" fill-opacity="0.501961" points="237,78 214,70 253,69" />
<polygon fill="#000000" fill-opacity="0.501961" points="271,79 201,74 250,185" />
<polygon fill="#9c644c" fill-opacity="0.501961" points="100,123 163,131 103,140" />
<polygon fill="#cc8d9b" fill-opacity="0.501961" points="180,110 152,91 95,107" />
<polygon fill="#ffffff" fill-opacity="0.501961" points="162,72 109,70 138,79" />
<polygon fill="#000000" fill-opacity="0.501961" points="218,45 202,92 202,-3" />
<polygon fill="#310500" fill-opacity="0.501961" points="-8,66 -8,-4 29,0" />
<polygon fill="#020000" fill-opacity="0.501961" points="26,185 132,117 42,115" />
<polygon fill="#080000" fill-opacity="0.501961" points="46,38 42,81 54,80" />
<polygon fill="#3b1100" fill-opacity="0.501961" points="180,78 152,92 168,63" />
<polygon fill="#f6e7df" fill-opacity="0.501961" points="200,61 156,47 104,61" />
<polygon fill="#6e341b" fill-opacity="0.501961" points="139,104 156,79 84,78" />
<polygon fill="#c5835c" fill-opacity="0.501961" points="-16,37 190,56 133,7" />
<polygon fill="#fdfef7" fill-opacity="0.501961" points="20,42 4,55 42,54" />
<polygon fill="#e9d9c7" fill-opacity="0.501961" points="255,61 210,62 231,54" />
<polygon fill="#deb99d" fill-opacity="0.501961" points="62,15 98,20 73,96" />
<polygon fill="#5d2b13" fill-opacity="0.501961" points="58,-1 235,-7 148,20" />
<polygon fill="#090505" fill-opacity="0.501961" points="186,136 87,116 174,108" />
<polygon fill="#5b2916" fill-opacity="0.501961" points="-9,185 12,74 39,151" />
<polygon fill="#4c1a03" fill-opacity="0.501961" points="141,69 133,61 104,68" />
<polygon fill="#240700" fill-opacity="0.501961" points="-16,74 42,68 -15,46" />
<polygon fill="#1f3858" fill-opacity="0.501961" points="176,85 234,94 190,163" />
<polygon fill="#cfa7a0" fill-opacity="0.501961" points="201,80 166,54 201,5" />
<polygon fill="#fffffb" fill-opacity="0.501961" points="167,68 116,73 150,79" />
<polygon fill="#704a3d" fill-opacity="0.501961" points="159,145 155,123 75,133" />
<polygon fill="#723b15" fill-opacity="0.501961" points="110,60 90,69 70,66" />
<polygon fill="#ffffff" fill-opacity="0.501961" points="121,69 99,78 68,70" />
<polygon fill="#522716" fill-opacity="0.501961" points="179,78 173,62 136,63" />
<polygon fill="#e7e5df" fill-opacity="0.501961" points="92,62 131,58 85,50" />
<polygon fill="#dd9f75" fill-opacity="0.501961" points="76,90 50,91 59,67" />
<polygon fill="#000002" fill-opacity="0.501961" points="262,176 260,48 211,177" />
<polygon fill="#83441d" fill-opacity="0.501961" points="64,45 4,30 42,-7" />
<polygon fill="#f5cca9" fill-opacity="0.501961" points="22,70 52,90 10,91" />
<polygon fill="#000000" fill-opacity="0.501961" points="251,-16 251,122 271,53" />
<polygon fill="#4f392f" fill-opacity="0.501961" points="213,56 255,57 214,-9" />
<polygon fill="#3c1e16" fill-opacity="0.501961" points="103,97 -16,139 40,91" />
<polygon fill="#0c0600" fill-opacity="0.501961" points="66,128 0,185 238,172" />
<polygon fill="#e6c1a9" fill-opacity="0.501961" points="239,70 218,78 212,70" />
<polygon fill="#8e6f99" fill-opacity="0.501961" points="148,85 142,110 185,99" />
<polygon fill="#92572f" fill-opacity="0.501961" points="62,59 102,67 66,70" />
<polygon fill="#b2715b" fill-opacity="0.501961" points="124,96 74,108 139,110" />
<polygon fill="#fbe3d4" fill-opacity="0.501961" points="116,28 163,27 140,21" />
<polygon fill="#bc7852" fill-opacity="0.501961" points="181,35 75,55 78,27" />
<polygon fill="#784229" fill-opacity="0.501961" points="177,94 186,77 125,79" />
<polygon fill="#a48ebd" fill-opacity="0.501961" points="184,97 183,60 195,80" />
<polygon fill="#b57458" fill-opacity="0.501961" points="189,10 99,15 145,25" />
<polygon fill="#764628" fill-opacity="0.501961" points="97,69 77,62 119,63" />
<polygon fill="#fff9ec" fill-opacity="0.501961" points="120,69 163,69 152,80" />
<polygon fill="#edc5ab" fill-opacity="0.501961" points="106,27 54,28 60,15" />
<polygon fill="#90592f" fill-opacity="0.501961" points="46,53 48,68 7,72" />
<polygon fill="#f4ffff" fill-opacity="0.501961" points="44,57 34,51 19,55" />
<polygon fill="#3b1a00" fill-opacity="0.501961" points="-16,-5 43,1 -14,49" />
<polygon fill="#010104" fill-opacity="0.501961" points="235,66 207,69 203,59" />
<polygon fill="#2e1f22" fill-opacity="0.501961" points="141,135 85,154 82,135" />
<polygon fill="#152038" fill-opacity="0.501961" points="225,104 222,185 179,157" />
<polygon fill="#765535" fill-opacity="0.501961" points="15,91 7,75 22,78" />
<polygon fill="#6b4f43" fill-opacity="0.501961" points="213,9 249,29 214,29" />
<polygon fill="#714f3a" fill-opacity="0.501961" points="228,81 218,74 254,73" />
<polygon fill="#ffffff" fill-opacity="0.501961" points="14,73 38,71 34,81" />
<polygon fill="#000000" fill-opacity="0.501961" points="174,140 169,116 136,117" />
<polygon fill="#e1e0d9" fill-opacity="0.501961" points="100,61 67,45 69,61" />
<polygon fill="#000000" fill-opacity="0.501961" points="-1,46 -12,80 12,67" />
<polygon fill="#fffffe" fill-opacity="0.501961" points="111,75 131,78 123,70" />
<polygon fill="#6f4438" fill-opacity="0.501961" points="59,91 163,77 130,104" />
<polygon fill="#fbf8ee" fill-opacity="0.501961" points="70,69 71,79 108,72" />
<polygon fill="#87563d" fill-opacity="0.501961" points="94,126 116,132 78,135" />
<polygon fill="#261201" fill-opacity="0.501961" points="107,6 141,-6 67,-3" />
<polygon fill="#6b6c85" fill-opacity="0.501961" points="177,102 194,96 210,100" />
<polygon fill="#9d6747" fill-opacity="0.501961" points="48,1 67,6 40,65" />
<polygon fill="#0a0909" fill-opacity="0.501961" points="271,19 266,-16 209,3" />
<polygon fill="#331a12" fill-opacity="0.501961" points="11,76 4,185 -15,97" />
<polygon fill="#49291b" fill-opacity="0.501961" points="4,181 9,91 70,92" />
<polygon fill="#ce8856" fill-opacity="0.501961" points="49,92 45,66 39,81" />
<polygon fill="#88b4ff" fill-opacity="0.501961" points="148,97 159,101 147,90" />
<polygon fill="#84422d" fill-opacity="0.501961" points="157,103 168,103 159,77" />
<polygon fill="#281714" fill-opacity="0.501961" points="131,139 160,185 162,135" />
<polygon fill="#0b080b" fill-opacity="0.501961" points="210,8 213,76 201,48" />
<polygon fill="#d7c7c6" fill-opacity="0.501961" points="199,11 197,32 185,13" />
<polygon fill="#c7a9d8" fill-opacity="0.501961" points="171,105 174,96 165,91" />
<polygon fill="#d9bfa8" fill-opacity="0.501961" points="62,82 58,56 54,80" />
<polygon fill="#846951" fill-opacity="0.501961" points="-9,73 21,84 20,75" />
<polygon fill="#d08f6e" fill-opacity="0.501961" points="181,13 190,44 128,56" />
<polygon fill="#173c68" fill-opacity="0.501961" points="192,143 203,85 185,88" />
<polygon fill="#996447" fill-opacity="0.501961" points="68,14 60,3 95,13" />
<polygon fill="#000000" fill-opacity="0.501961" points="47,81 51,62 54,81" />
<polygon fill="#f0eae0" fill-opacity="0.501961" points="18,76 3,74 15,72" />
<polygon fill="#e7c3ac" fill-opacity="0.501961" points="91,24 114,30 132,23" />
<polygon fill="#d8c0ad" fill-opacity="0.501961" points="16,41 40,51 1,54" />
<polygon fill="#f3c79b" fill-opacity="0.501961" points="186,60 178,71 176,30" />
<polygon fill="#674b4b" fill-opacity="0.501961" points="208,5 179,12 195,-14" />
<polygon fill="#644b46" fill-opacity="0.501961" points="231,103 232,95 203,100" />
</g>
</svg>