<svg xmlns="http://www.w3.org/2000/svg" version="1.1" width="1024" height="680">
<rect x="0" y="0" width="1024" height="680" fill="#737578" />
<g transform="scale(4.000000) translate(0.5 0.5)">
<polygon fill="#f4f7fa" fill-opacity="0.501961" points="250,113 243,-16 101,26" />
<polygon fill="#1c2432" fill-opacity="0.501961" points="136,76 -16,168 271,169" />
<polygon fill="#e4ddd2" fill-opacity="0.501961" points="21,-16 22,93 79,123" />
<polygon fill="#2d2b28" fill-opacity="0.501961" points="47,69 121,85 112,-16" />
<polygon fill="#dadde2" fill-opacity="0.501961" points="250,29 141,96 117,8" />
<polygon fill="#282e2d" fill-opacity="0.501961" points="-16,165 33,143 5,-16" />
<polygon fill="#55585a" fill-opacity="0.501961" points="110,67 262,93 252,185" />
<polygon fill="#aeaa9f" fill-opacity="0.501961" points="5,81 18,116 141,83" />
<polygon fill="#ebeae4" fill-opacity="0.501961" points="51,20 32,76 21,10" />
<polygon fill="#1d2631" fill-opacity="0.501961" points="271,127 159,106 271,165" />
<polygon fill="#8c8a87" fill-opacity="0.501961" points="243,-16 104,3 271,31" />
<polygon fill="#959390" fill-opacity="0.501961" points="181,73 141,96 271,128" />
<polygon fill="#6e6963" fill-opacity="0.501961" points="49,96 81,93 47,-16" />
<polygon fill="#252729" fill-opacity="0.501961" points="155,185 85,100 60,185" />
<polygon fill="#6e7798" fill-opacity="0.501961" points="258,180 211,137 119,183" />
<polygon fill="#364041" fill-opacity="0.501961" points="-11,154 76,122 -1,96" />
<polygon fill="#5a573c" fill-opacity="0.501961" points="-12,11 70,-16 116,14" />
<polygon fill="#c1bfbf" fill-opacity="0.501961" points="117,64 122,25 202,82" />
<polygon fill="#d0ccc6" fill-opacity="0.501961" points="90,78 54,112 116,87" />
<polygon fill="#0e0f07" fill-opacity="0.501961" points="190,141 69,179 126,182" />
<polygon fill="#13161c" fill-opacity="0.501961" points="-16,109 -1,59 22,66" />
<polygon fill="#353536" fill-opacity="0.501961" points="73,73 112,84 88,-16" />
<polygon fill="#535354" fill-opacity="0.501961" points="60,24 119,-16 118,42" />
<polygon fill="#b0aeac" fill-opacity="0.501961" points="30,66 5,96 79,121" />
<polygon fill="#747270" fill-opacity="0.501961" points="48,91 81,95 67,-16" />
<polygon fill="#606465" fill-opacity="0.501961" points="121,116 124,164 194,130" />
<polygon fill="#18202b" fill-opacity="0.501961" points="115,122 72,123 143,94" />
<polygon fill="#464343" fill-opacity="0.501961" points="248,43 260,70 248,113" />
<polygon fill="#4b60aa" fill-opacity="0.501961" points="191,166 164,152 121,185" />
<polygon fill="#959595" fill-opacity="0.501961" points="254,-16 267,29 104,5" />
<polygon fill="#464444" fill-opacity="0.501961" points="-16,11 21,-16 20,82" />
<polygon fill="#a1d1ff" fill-opacity="0.501961" points="163,31 172,62 191,40" />
<polygon fill="#e7e3de" fill-opacity="0.501961" points="48,50 47,16 36,20" />
<polygon fill="#73716f" fill-opacity="0.501961" points="137,98 108,63 174,75" />
<polygon fill="#565e63" fill-opacity="0.501961" points="81,128 19,177 22,109" />
<polygon fill="#bdbec3" fill-opacity="0.501961" points="239,91 131,66 218,51" />
<polygon fill="#120c09" fill-opacity="0.501961" points="142,160 169,141 192,147" />
<polygon fill="#46677c" fill-opacity="0.501961" points="231,68 216,71 230,58" />
<polygon fill="#8e8d8b" fill-opacity="0.501961" points="254,49 250,112 271,133" />
<polygon fill="#d9d8d6" fill-opacity="0.501961" points="248,26 247,57 139,18" />
<polygon fill="#3a424a" fill-opacity="0.501961" points="271,131 112,88 174,131" />
<polygon fill="#8a8455" fill-opacity="0.501961" points="33,117 -14,113 18,107" />
<polygon fill="#757574" fill-opacity="0.501961" points="263,127 263,93 137,94" />
<polygon fill="#202830" fill-opacity="0.501961" points="267,183 243,185 249,133" />
<polygon fill="#66686a" fill-opacity="0.501961" points="241,147 160,123 251,185" />
<polygon fill="#c9c7c3" fill-opacity="0.501961" points="42,82 47,16 24,12" />
<polygon fill="#c2c0be" fill-opacity="0.501961" points="118,11 124,59 146,12" />
<polygon fill="#272525" fill-opacity="0.501961" points="254,46 249,56 248,29" />
<polygon fill="#262e34" fill-opacity="0.501961" points="5,132 -16,68 7,80" />
<polygon fill="#351908" fill-opacity="0.501961" points="118,185 109,154 32,185" />
<polygon fill="#c3c0bf" fill-opacity="0.501961" points="78,117 75,103 50,93" />
<polygon fill="#606060" fill-opacity="0.501961" points="110,29 135,96 111,82" />
<polygon fill="#eefbff" fill-opacity="0.501961" points="187,43 166,59 188,53" />
<polygon fill="#4e4848" fill-opacity="0.501961" points="129,84 76,124 79,102" />
<polygon fill="#908984" fill-opacity="0.501961" points="36,29 47,57 37,47" />
<polygon fill="#344151" fill-opacity="0.501961" points="151,101 44,146 50,183" />
<polygon fill="#b8b5ae" fill-opacity="0.501961" points="81,101 107,91 79,75" />
<polygon fill="#94979f" fill-opacity="0.501961" points="239,82 226,50 238,39" />
<polygon fill="#2c3b4d" fill-opacity="0.501961" points="3,185 29,136 -12,105" />
<polygon fill="#7e869a" fill-opacity="0.501961" points="146,35 141,62 150,45" />
<polygon fill="#0c0b11" fill-opacity="0.501961" points="252,92 249,74 247,93" />
<polygon fill="#73706e" fill-opacity="0.501961" points="47,-4 47,88 82,91" />
<polygon fill="#746953" fill-opacity="0.501961" points="148,152 111,141 135,162" />
<polygon fill="#435aba" fill-opacity="0.501961" points="186,158 169,185 162,155" />
<polygon fill="#616249" fill-opacity="0.501961" points="121,185 167,185 159,156" />
<polygon fill="#6fa1f0" fill-opacity="0.501961" points="166,40 180,46 179,33" />
<polygon fill="#8b8551" fill-opacity="0.501961" points="36,12 73,4 36,-8" />
<polygon fill="#5b7192" fill-opacity="0.501961" points="183,56 183,62 177,63" />
<polygon fill="#d1d3d4" fill-opacity="0.501961" points="227,65 192,75 216,26" />
<polygon fill="#4b4a4b" fill-opacity="0.501961" points="103,-13 75,90 75,-16" />
<polygon fill="#dfdcd8" fill-opacity="0.501961" points="160,43 186,20 124,10" />
<polygon fill="#363635" fill-opacity="0.501961" points="75,76 99,79 105,15" />
<polygon fill="#a8a39e" fill-opacity="0.501961" points="8,82 7,91 33,75" />
<polygon fill="#53585c" fill-opacity="0.501961" points="77,126 8,112 75,148" />
<polygon fill="#a3a3a2" fill-opacity="0.501961" points="137,68 117,57 120,14" />
<polygon fill="#959595" fill-opacity="0.501961" points="96,-8 256,-14 271,33" />
<polygon fill="#0f130e" fill-opacity="0.501961" points="152,156 92,170 121,185" />
<polygon fill="#60676e" fill-opacity="0.501961" points="19,142 42,159 23,185" />
<polygon fill="#646464" fill-opacity="0.501961" points="118,61 98,-8 117,-16" />
<polygon fill="#8b8b8a" fill-opacity="0.501961" points="253,62 271,54 250,1" />
<polygon fill="#504c29" fill-opacity="0.501961" points="47,16 59,-4 42,9" />
<polygon fill="#6f716c" fill-opacity="0.501961" points="200,136 185,167 219,185" />
<polygon fill="#70757d" fill-opacity="0.501961" points="172,139 202,138 163,127" />
<polygon fill="#d2d2ce" fill-opacity="0.501961" points="23,15 50,15 22,58" />
<polygon fill="#cecfce" fill-opacity="0.501961" points="185,63 159,52 134,57" />
<polygon fill="#32363d" fill-opacity="0.501961" points="127,93 110,106 163,123" />
<polygon fill="#353b42" fill-opacity="0.501961" points="244,123 175,125 269,155" />
<polygon fill="#d7d6d5" fill-opacity="0.501961" points="234,56 236,39 215,26" />
<polygon fill="#57575c" fill-opacity="0.501961" points="27,11 -14,11 17,-16" />
<polygon fill="#493737" fill-opacity="0.501961" points="134,153 180,138 160,153" />
<polygon fill="#d1cdd1" fill-opacity="0.501961" points="235,78 229,71 235,53" />
<polygon fill="#c2c0bd" fill-opacity="0.501961" points="92,94 82,80 119,87" />
<polygon fill="#4d514e" fill-opacity="0.501961" points="117,162 112,134 131,153" />
<polygon fill="#6c6c6c" fill-opacity="0.501961" points="113,84 148,97 136,68" />
<polygon fill="#5b6068" fill-opacity="0.501961" points="244,147 244,185 174,127" />
<polygon fill="#414750" fill-opacity="0.501961" points="199,131 268,130 151,100" />
<polygon fill="#b9b6b4" fill-opacity="0.501961" points="46,45 22,66 46,86" />
<polygon fill="#b0b0b4" fill-opacity="0.501961" points="188,80 248,92 226,70" />
<polygon fill="#737375" fill-opacity="0.501961" points="48,59 76,32 71,85" />
<polygon fill="#9e9e9e" fill-opacity="0.501961" points="224,21 137,10 170,-11" />
</g>
</svg>