<svg xmlns="http://www.w3.org/2000/svg" version="1.1" width="1024" height="680">
<rect x="0" y="0" width="1024" height="680" fill="#504e46" />
<g transform="scale(4.000000) translate(0.5 0.5)">
<polygon fill="#ffffff" fill-opacity="0.501961" points="148,119 24,135 158,159" />
<polygon fill="#ffffff" fill-opacity="0.501961" points="175,53 147,78 227,81" />
<polygon fill="#fdfdf5" fill-opacity="0.501961" points="18,103 86,59 79,102" />
<polygon fill="#f8ffff" fill-opacity="0.501961" points="210,-10 226,14 133,23" />
<polygon fill="#060703" fill-opacity="0.501961" points="271,18 249,185 181,25" />
<polygon fill="#0b0a06" fill-opacity="0.501961" points="147,3 144,83 -16,56" />
<polygon fill="#000000" fill-opacity="0.501961" points="271,164 145,159 248,106" />
<polygon fill="#120c01" fill-opacity="0.501961" points="57,145 -7,55 -16,132" />
<polygon fill="#feffff" fill-opacity="0.501961" points="26,30 68,16 89,27" />
<polygon fill="#ffffff" fill-opacity="0.501961" points="160,156 124,126 43,142" />
<polygon fill="#fffffa" fill-opacity="0.501961" points="174,95 211,98 175,111" />
<polygon fill="#030401" fill-opacity="0.501961" points="12,94 -16,2 47,-12" />
<polygon fill="#312a1e" fill-opacity="0.501961" points="98,-16 85,124 164,130" />
<polygon fill="#c5c4b6" fill-opacity="0.501961" points="168,30 154,84 227,78" />
<polygon fill="#ffffff" fill-opacity="0.501961" points="35,72 83,72 41,84" />
<polygon fill="#1a1a15" fill-opacity="0.501961" points="190,67 271,79 251,-16" />
<polygon fill="#8d8574" fill-opacity="0.501961" points="143,167 -13,140 7,185" />
<polygon fill="#ffffff" fill-opacity="0.501961" points="98,125 48,128 48,143" />
<polygon fill="#fffff5" fill-opacity="0.501961" points="192,78 192,56 142,75" />
<polygon fill="#9c7f59" fill-opacity="0.501961" points="149,132 116,112 217,98" />
<polygon fill="#3a3a33" fill-opacity="0.501961" points="19,93 86,88 -10,67" />
<polygon fill="#ffffff" fill-opacity="0.501961" points="39,104 74,96 20,92" />
<polygon fill="#262821" fill-opacity="0.501961" points="170,62 8,-7 129,-16" />
<polygon fill="#050007" fill-opacity="0.501961" points="33,35 90,27 14,89" />
<polygon fill="#d8ddde" fill-opacity="0.501961" points="226,70 214,87 201,73" />
<polygon fill="#000004" fill-opacity="0.501961" points="169,161 249,140 166,129" />
<polygon fill="#f1f4f5" fill-opacity="0.501961" points="161,137 71,123 141,154" />
<polygon fill="#020504" fill-opacity="0.501961" points="44,143 51,119 -16,122" />
<polygon fill="#a6a496" fill-opacity="0.501961" points="89,61 82,106 71,59" />
<polygon fill="#6e706e" fill-opacity="0.501961" points="243,-3 175,-16 137,19" />
<polygon fill="#625137" fill-opacity="0.501961" points="228,69 182,132 225,131" />
<polygon fill="#1e1b14" fill-opacity="0.501961" points="206,26 248,70 190,71" />
<polygon fill="#101406" fill-opacity="0.501961" points="136,46 145,23 194,25" />
<polygon fill="#fcffff" fill-opacity="0.501961" points="218,8 188,16 219,17" />
<polygon fill="#2c2922" fill-opacity="0.501961" points="70,126 110,76 185,95" />
<polygon fill="#7c5b34" fill-opacity="0.501961" points="79,116 8,98 7,117" />
<polygon fill="#777d78" fill-opacity="0.501961" points="30,24 92,23 65,14" />
<polygon fill="#181c12" fill-opacity="0.501961" points="173,163 135,158 206,147" />
<polygon fill="#f9fbfb" fill-opacity="0.501961" points="175,21 192,12 152,18" />
<polygon fill="#c8c4ae" fill-opacity="0.501961" points="179,107 137,104 156,112" />
<polygon fill="#988e81" fill-opacity="0.501961" points="51,160 74,185 163,165" />
<polygon fill="#eef4f2" fill-opacity="0.501961" points="36,83 34,73 63,73" />
<polygon fill="#4a483c" fill-opacity="0.501961" points="-16,153 47,141 45,168" />
<polygon fill="#3a392a" fill-opacity="0.501961" points="183,162 105,150 159,174" />
<polygon fill="#090209" fill-opacity="0.501961" points="65,72 71,45 24,72" />
<polygon fill="#6c695b" fill-opacity="0.501961" points="207,56 185,36 155,55" />
<polygon fill="#1b1c0f" fill-opacity="0.501961" points="83,160 127,155 55,144" />
<polygon fill="#99918a" fill-opacity="0.501961" points="165,135 150,134 159,155" />
<polygon fill="#61615b" fill-opacity="0.501961" points="52,93 103,85 23,76" />
<polygon fill="#6c5234" fill-opacity="0.501961" points="209,115 117,105 149,135" />
<polygon fill="#e2e2d5" fill-opacity="0.501961" points="187,110 200,98 173,97" />
<polygon fill="#342d22" fill-opacity="0.501961" points="39,125 128,80 123,124" />
<polygon fill="#ffffff" fill-opacity="0.501961" points="71,90 60,96 84,95" />
<polygon fill="#535a56" fill-opacity="0.501961" points="237,79 138,78 188,96" />
<polygon fill="#fffffe" fill-opacity="0.501961" points="180,56 148,74 175,75" />
<polygon fill="#d3d6d7" fill-opacity="0.501961" points="83,17 39,30 70,30" />
<polygon fill="#ffffff" fill-opacity="0.501961" points="26,94 45,91 51,104" />
<polygon fill="#644b23" fill-opacity="0.501961" points="180,69 182,56 184,72" />
<polygon fill="#e1e5e4" fill-opacity="0.501961" points="50,29 33,24 33,31" />
<polygon fill="#1f1c1b" fill-opacity="0.501961" points="-16,35 -16,87 74,29" />
<polygon fill="#34322a" fill-opacity="0.501961" points="30,43 22,107 -16,56" />
<polygon fill="#fafdfd" fill-opacity="0.501961" points="223,71 207,79 185,71" />
<polygon fill="#302f2a" fill-opacity="0.501961" points="83,-10 160,-16 97,100" />
<polygon fill="#2d2e28" fill-opacity="0.501961" points="271,-11 226,-16 245,136" />
<polygon fill="#676755" fill-opacity="0.501961" points="171,64 165,35 154,56" />
<polygon fill="#2d331e" fill-opacity="0.501961" points="118,74 156,71 160,28" />
<polygon fill="#7a6345" fill-opacity="0.501961" points="184,130 138,102 117,126" />
<polygon fill="#4c4f49" fill-opacity="0.501961" points="40,9 92,16 21,29" />
<polygon fill="#725939" fill-opacity="0.501961" points="224,106 221,134 167,127" />
<polygon fill="#646561" fill-opacity="0.501961" points="96,71 86,92 58,92" />
<polygon fill="#f6fafa" fill-opacity="0.501961" points="72,78 64,73 91,71" />
<polygon fill="#e2e4e3" fill-opacity="0.501961" points="78,124 141,130 110,151" />
<polygon fill="#aead9f" fill-opacity="0.501961" points="178,48 165,38 182,35" />
<polygon fill="#2b2d2b" fill-opacity="0.501961" points="231,112 191,84 253,88" />
<polygon fill="#807a6c" fill-opacity="0.501961" points="214,174 124,185 74,154" />
<polygon fill="#e6eae8" fill-opacity="0.501961" points="62,28 74,21 84,26" />
<polygon fill="#b8b6a4" fill-opacity="0.501961" points="207,107 226,110 218,112" />
<polygon fill="#eceeed" fill-opacity="0.501961" points="151,156 97,145 151,137" />
<polygon fill="#eff4f4" fill-opacity="0.501961" points="145,21 154,14 170,18" />
<polygon fill="#909696" fill-opacity="0.501961" points="143,76 179,86 206,76" />
<polygon fill="#1e1f1a" fill-opacity="0.501961" points="56,148 29,120 -16,130" />
<polygon fill="#654f2f" fill-opacity="0.501961" points="11,106 96,102 78,122" />
<polygon fill="#73776f" fill-opacity="0.501961" points="217,-4 225,21 231,15" />
<polygon fill="#ffffff" fill-opacity="0.501961" points="44,104 31,93 55,94" />
<polygon fill="#13110f" fill-opacity="0.501961" points="231,22 163,26 228,49" />
<polygon fill="#767774" fill-opacity="0.501961" points="240,-10 196,-16 136,21" />
<polygon fill="#bcbbac" fill-opacity="0.501961" points="201,110 162,108 186,102" />
<polygon fill="#181812" fill-opacity="0.501961" points="-8,-16 31,-3 0,71" />
<polygon fill="#777265" fill-opacity="0.501961" points="9,142 36,155 53,146" />
<polygon fill="#9e978a" fill-opacity="0.501961" points="-16,159 26,165 -16,178" />
<polygon fill="#22231f" fill-opacity="0.501961" points="215,96 194,117 231,98" />
<polygon fill="#d9dad7" fill-opacity="0.501961" points="56,131 87,147 48,142" />
<polygon fill="#e0e4e6" fill-opacity="0.501961" points="191,9 170,19 219,14" />
<polygon fill="#454233" fill-opacity="0.501961" points="271,185 258,160 178,160" />
<polygon fill="#191914" fill-opacity="0.501961" points="266,165 271,114 154,156" />
<polygon fill="#f0e0bf" fill-opacity="0.501961" points="193,78 192,59 182,56" />
<polygon fill="#6a6655" fill-opacity="0.501961" points="92,69 69,60 68,73" />
<polygon fill="#313128" fill-opacity="0.501961" points="75,32 166,32 123,115" />
<polygon fill="#131308" fill-opacity="0.501961" points="133,159 149,156 123,154" />
<polygon fill="#343126" fill-opacity="0.501961" points="217,71 192,27 194,71" />
</g>
</svg>