<svg xmlns="http://www.w3.org/2000/svg" version="1.1" width="1024" height="680">
<rect x="0" y="0" width="1024" height="680" fill="#504d43" />
<g transform="scale(4.000000) translate(0.5 0.5)">
<polygon fill="#000100" fill-opacity="0.501961" points="75,134 271,16 77,14" />
<polygon fill="#f7f9f3" fill-opacity="0.501961" points="237,12 35,15 127,-16" />
<polygon fill="#ece7db" fill-opacity="0.501961" points="-16,44 19,177 20,-16" />
<polygon fill="#e8e3d8" fill-opacity="0.501961" points="50,41 74,-16 74,129" />
<polygon fill="#ffffff" fill-opacity="0.501961" points="204,185 271,158 178,157" />
<polygon fill="#0b0c02" fill-opacity="0.501961" points="174,72 194,155 271,15" />
<polygon fill="#f6faf4" fill-opacity="0.501961" points="271,0 238,14 192,-2" />
<polygon fill="#b7afa3" fill-opacity="0.501961" points="193,30 208,78 207,16" />
<polygon fill="#aaa69f" fill-opacity="0.501961" points="134,137 128,75 110,130" />
<polygon fill="#0f0400" fill-opacity="0.501961" points="23,122 18,164 135,159" />
<polygon fill="#dbd6ca" fill-opacity="0.501961" points="58,77 78,125 58,121" />
<polygon fill="#a5a497" fill-opacity="0.501961" points="20,65 13,185 -16,146" />
<polygon fill="#000000" fill-opacity="0.501961" points="76,155 146,144 182,171" />
<polygon fill="#5d5749" fill-opacity="0.501961" points="20,-4 58,-16 58,101" />
<polygon fill="#9d8f7c" fill-opacity="0.501961" points="22,185 59,148 143,185" />
<polygon fill="#beb6ad" fill-opacity="0.501961" points="32,3 -15,52 4,-16" />
<polygon fill="#191805" fill-opacity="0.501961" points="261,12 233,114 261,130" />
<polygon fill="#17150f" fill-opacity="0.501961" points="132,142 203,38 139,17" />
<polygon fill="#746f5f" fill-opacity="0.501961" points="137,76 99,94 193,100" />
<polygon fill="#0b0700" fill-opacity="0.501961" points="60,127 10,185 34,121" />
<polygon fill="#10100f" fill-opacity="0.501961" points="164,91 73,13 185,13" />
<polygon fill="#070701" fill-opacity="0.501961" points="19,19 24,82 37,13" />
<polygon fill="#c3bfb5" fill-opacity="0.501961" points="53,-16 75,3 72,70" />
<polygon fill="#828550" fill-opacity="0.501961" points="239,69 212,100 243,96" />
<polygon fill="#ffffff" fill-opacity="0.501961" points="164,121 163,125 178,124" />
<polygon fill="#bbb0a6" fill-opacity="0.501961" points="187,85 163,108 167,85" />
<polygon fill="#232414" fill-opacity="0.501961" points="271,118 159,121 188,89" />
<polygon fill="#403d31" fill-opacity="0.501961" points="120,146 104,91 122,29" />
<polygon fill="#0a0909" fill-opacity="0.501961" points="248,14 249,80 203,51" />
<polygon fill="#998370" fill-opacity="0.501961" points="172,136 192,185 151,141" />
<polygon fill="#b4b6ad" fill-opacity="0.501961" points="271,13 161,-16 117,14" />
<polygon fill="#100f0d" fill-opacity="0.501961" points="183,93 176,71 253,65" />
<polygon fill="#bda284" fill-opacity="0.501961" points="72,140 108,149 85,135" />
<polygon fill="#776f65" fill-opacity="0.501961" points="242,118 250,134 187,126" />
<polygon fill="#0b0b06" fill-opacity="0.501961" points="28,114 20,74 33,44" />
<polygon fill="#928d82" fill-opacity="0.501961" points="186,-16 189,16 209,42" />
<polygon fill="#c7bcae" fill-opacity="0.501961" points="250,180 271,158 172,157" />
<polygon fill="#a89788" fill-opacity="0.501961" points="108,145 151,145 136,137" />
<polygon fill="#ffffff" fill-opacity="0.501961" points="176,102 165,104 176,106" />
<polygon fill="#cccbc8" fill-opacity="0.501961" points="122,137 132,133 133,105" />
<polygon fill="#362b1d" fill-opacity="0.501961" points="174,155 261,129 257,156" />
<polygon fill="#554d42" fill-opacity="0.501961" points="62,110 62,73 68,89" />
<polygon fill="#19150c" fill-opacity="0.501961" points="100,137 105,80 81,133" />
<polygon fill="#6b6555" fill-opacity="0.501961" points="38,-13 28,131 59,43" />
<polygon fill="#918f83" fill-opacity="0.501961" points="9,61 20,164 -16,181" />
<polygon fill="#9a8d84" fill-opacity="0.501961" points="157,169 83,162 69,185" />
<polygon fill="#4b483e" fill-opacity="0.501961" points="58,-16 33,-16 57,71" />
<polygon fill="#2e2f27" fill-opacity="0.501961" points="142,89 85,78 95,19" />
<polygon fill="#605849" fill-opacity="0.501961" points="58,132 63,173 87,116" />
<polygon fill="#18150f" fill-opacity="0.501961" points="139,136 132,95 160,134" />
<polygon fill="#000000" fill-opacity="0.501961" points="102,159 74,159 72,147" />
<polygon fill="#aca79d" fill-opacity="0.501961" points="31,13 -16,13 32,-16" />
<polygon fill="#12110d" fill-opacity="0.501961" points="205,17 271,13 215,40" />
<polygon fill="#100d02" fill-opacity="0.501961" points="30,105 20,85 21,137" />
<polygon fill="#a39687" fill-opacity="0.501961" points="145,93 144,75 137,82" />
<polygon fill="#131208" fill-opacity="0.501961" points="170,101 135,91 135,102" />
<polygon fill="#fdf9ef" fill-opacity="0.501961" points="201,32 208,36 209,42" />
<polygon fill="#b5b2a7" fill-opacity="0.501961" points="58,-16 59,72 78,-1" />
<polygon fill="#232324" fill-opacity="0.501961" points="74,16 131,14 74,61" />
<polygon fill="#b4aca4" fill-opacity="0.501961" points="19,66 -16,64 19,11" />
<polygon fill="#bea48e" fill-opacity="0.501961" points="122,146 108,148 104,139" />
<polygon fill="#eeeadf" fill-opacity="0.501961" points="204,45 197,50 199,55" />
<polygon fill="#020000" fill-opacity="0.501961" points="140,153 170,166 111,160" />
<polygon fill="#9f9a8d" fill-opacity="0.501961" points="232,-16 209,18 176,-16" />
<polygon fill="#251d11" fill-opacity="0.501961" points="59,132 7,174 29,184" />
<polygon fill="#353526" fill-opacity="0.501961" points="205,120 180,97 186,25" />
<polygon fill="#a5a29d" fill-opacity="0.501961" points="118,87 131,112 132,91" />
<polygon fill="#727649" fill-opacity="0.501961" points="232,101 231,75 253,73" />
<polygon fill="#a59083" fill-opacity="0.501961" points="173,136 187,139 179,146" />
<polygon fill="#746e5d" fill-opacity="0.501961" points="35,14 34,85 57,12" />
<polygon fill="#23211c" fill-opacity="0.501961" points="251,10 256,-16 249,-14" />
<polygon fill="#090f00" fill-opacity="0.501961" points="162,108 188,105 173,118" />
<polygon fill="#655d55" fill-opacity="0.501961" points="170,120 146,114 147,101" />
<polygon fill="#7d7468" fill-opacity="0.501961" points="225,138 249,140 249,122" />
<polygon fill="#110f0b" fill-opacity="0.501961" points="200,30 188,14 133,22" />
<polygon fill="#c2c1ba" fill-opacity="0.501961" points="119,129 104,133 133,134" />
<polygon fill="#11110c" fill-opacity="0.501961" points="211,83 151,85 124,34" />
<polygon fill="#c8c6be" fill-opacity="0.501961" points="204,59 211,65 208,70" />
<polygon fill="#453b2f" fill-opacity="0.501961" points="214,119 174,152 229,155" />
<polygon fill="#c3beb3" fill-opacity="0.501961" points="74,83 58,80 73,30" />
<polygon fill="#14110b" fill-opacity="0.501961" points="250,89 271,124 250,148" />
<polygon fill="#a9a397" fill-opacity="0.501961" points="208,25 197,37 196,19" />
<polygon fill="#2b241a" fill-opacity="0.501961" points="115,143 129,136 99,135" />
<polygon fill="#deddd1" fill-opacity="0.501961" points="78,122 62,123 60,115" />
<polygon fill="#241f1a" fill-opacity="0.501961" points="182,34 202,27 169,25" />
<polygon fill="#17160f" fill-opacity="0.501961" points="201,18 128,31 124,88" />
<polygon fill="#31311e" fill-opacity="0.501961" points="127,87 155,100 166,89" />
<polygon fill="#352e23" fill-opacity="0.501961" points="80,143 21,168 25,148" />
<polygon fill="#989589" fill-opacity="0.501961" points="215,-2 181,-6 193,17" />
<polygon fill="#48372b" fill-opacity="0.501961" points="127,151 172,159 159,144" />
<polygon fill="#2b281f" fill-opacity="0.501961" points="32,123 32,81 39,99" />
<polygon fill="#b49e86" fill-opacity="0.501961" points="114,142 101,136 91,139" />
<polygon fill="#141410" fill-opacity="0.501961" points="238,13 200,19 246,31" />
<polygon fill="#16170b" fill-opacity="0.501961" points="77,113 108,119 78,32" />
<polygon fill="#131310" fill-opacity="0.501961" points="33,10 34,69 24,35" />
<polygon fill="#beb5ac" fill-opacity="0.501961" points="163,99 177,100 179,89" />
<polygon fill="#191915" fill-opacity="0.501961" points="202,39 225,72 220,45" />
<polygon fill="#a49e91" fill-opacity="0.501961" points="34,115 32,101 28,125" />
<polygon fill="#c6c7bf" fill-opacity="0.501961" points="159,13 122,11 120,-16" />
<polygon fill="#867e6c" fill-opacity="0.501961" points="46,118 51,88 55,121" />
</g>
</svg>