<svg xmlns="http://www.w3.org/2000/svg" version="1.1" width="1024" height="680">
<rect x="0" y="0" width="1024" height="680" fill="#7c7e87" />
<g transform="scale(4.000000) translate(0.5 0.5)">
<polygon fill="#e2fcff" fill-opacity="0.501961" points="252,-16 271,85 37,45" />
<polygon fill="#2c1c1c" fill-opacity="0.501961" points="-16,41 135,163 256,131" />
<polygon fill="#b0e7ff" fill-opacity="0.501961" points="14,-16 45,41 218,-7" />
<polygon fill="#854e33" fill-opacity="0.501961" points="-1,-6 151,145 -16,97" />
<polygon fill="#000434" fill-opacity="0.501961" points="97,179 27,141 -5,175" />
<polygon fill="#1e4069" fill-opacity="0.501961" points="133,66 260,85 168,182" />
<polygon fill="#f6fdff" fill-opacity="0.501961" points="271,30 244,-1 122,63" />
<polygon fill="#d3b48b" fill-opacity="0.501961" points="79,108 47,90 -12,168" />
<polygon fill="#ffae66" fill-opacity="0.501961" points="147,75 63,59 88,84" />
<polygon fill="#000b18" fill-opacity="0.501961" points="38,119 22,69 14,104" />
<polygon fill="#140300" fill-opacity="0.501961" points="180,114 185,141 93,113" />
<polygon fill="#96837b" fill-opacity="0.501961" points="258,33 151,65 271,85" />
<polygon fill="#886f58" fill-opacity="0.501961" points="161,132 107,177 6,114" />
<polygon fill="#000f25" fill-opacity="0.501961" points="136,141 77,142 146,160" />
<polygon fill="#699ccb" fill-opacity="0.501961" points="63,12 92,56 255,-9" />
<polygon fill="#00213e" fill-opacity="0.501961" points="-11,-11 -16,52 29,74" />
<polygon fill="#06111a" fill-opacity="0.501961" points="33,47 10,-3 30,12" />
<polygon fill="#ffe4c1" fill-opacity="0.501961" points="34,120 11,153 11,111" />
<polygon fill="#ffffff" fill-opacity="0.501961" points="93,4 31,10 6,-16" />
<polygon fill="#404145" fill-opacity="0.501961" points="76,120 2,167 35,123" />
<polygon fill="#4f658f" fill-opacity="0.501961" points="259,113 271,162 98,178" />
<polygon fill="#b8a68a" fill-opacity="0.501961" points="155,149 157,132 97,133" />
<polygon fill="#210e00" fill-opacity="0.501961" points="128,73 102,62 151,68" />
<polygon fill="#d0b28e" fill-opacity="0.501961" points="100,123 49,156 43,136" />
<polygon fill="#623f30" fill-opacity="0.501961" points="114,63 48,69 46,50" />
<polygon fill="#57719c" fill-opacity="0.501961" points="121,106 84,84 189,76" />
<polygon fill="#ffe8b5" fill-opacity="0.501961" points="13,150 -13,150 -8,184" />
<polygon fill="#f3f0eb" fill-opacity="0.501961" points="141,64 180,32 100,55" />
<polygon fill="#cac3b6" fill-opacity="0.501961" points="-6,108 15,79 18,94" />
<polygon fill="#fef7f8" fill-opacity="0.501961" points="37,20 64,21 40,36" />
<polygon fill="#372b1d" fill-opacity="0.501961" points="83,139 128,111 98,147" />
<polygon fill="#de764f" fill-opacity="0.501961" points="-16,-16 23,49 13,4" />
<polygon fill="#cca38f" fill-opacity="0.501961" points="125,172 132,156 76,145" />
<polygon fill="#002a4f" fill-opacity="0.501961" points="261,139 190,127 238,122" />
<polygon fill="#f2f5f8" fill-opacity="0.501961" points="40,35 89,52 55,50" />
<polygon fill="#b26a27" fill-opacity="0.501961" points="74,158 92,131 44,146" />
<polygon fill="#101e1d" fill-opacity="0.501961" points="22,108 41,85 47,95" />
<polygon fill="#93a9c9" fill-opacity="0.501961" points="262,170 146,155 216,185" />
<polygon fill="#404358" fill-opacity="0.501961" points="136,156 117,185 203,169" />
<polygon fill="#466185" fill-opacity="0.501961" points="249,130 99,103 252,78" />
<polygon fill="#f6c08b" fill-opacity="0.501961" points="39,87 27,90 29,74" />
<polygon fill="#6e97bc" fill-opacity="0.501961" points="50,42 92,-15 118,26" />
<polygon fill="#8fbee6" fill-opacity="0.501961" points="183,12 243,-16 271,13" />
<polygon fill="#d2d0d2" fill-opacity="0.501961" points="68,107 79,117 35,115" />
<polygon fill="#1b2c3d" fill-opacity="0.501961" points="247,88 198,115 219,116" />
<polygon fill="#052e56" fill-opacity="0.501961" points="134,116 179,107 97,99" />
<polygon fill="#90533e" fill-opacity="0.501961" points="105,112 33,79 30,25" />
<polygon fill="#e7e3e5" fill-opacity="0.501961" points="140,-16 130,10 60,-11" />
<polygon fill="#000907" fill-opacity="0.501961" points="41,140 7,176 17,153" />
<polygon fill="#000818" fill-opacity="0.501961" points="-16,66 0,109 4,88" />
<polygon fill="#2f2c36" fill-opacity="0.501961" points="119,121 71,126 77,109" />
<polygon fill="#c99f82" fill-opacity="0.501961" points="92,65 99,93 57,58" />
<polygon fill="#8a9ebd" fill-opacity="0.501961" points="207,145 181,149 166,140" />
<polygon fill="#e5e9ea" fill-opacity="0.501961" points="161,60 196,17 271,26" />
<polygon fill="#221403" fill-opacity="0.501961" points="169,138 112,111 198,123" />
<polygon fill="#7b5c44" fill-opacity="0.501961" points="25,116 2,151 -2,139" />
<polygon fill="#ab9980" fill-opacity="0.501961" points="153,136 100,134 134,125" />
<polygon fill="#8b4f21" fill-opacity="0.501961" points="36,104 69,105 37,113" />
<polygon fill="#7a86a3" fill-opacity="0.501961" points="271,70 271,123 217,120" />
<polygon fill="#104b79" fill-opacity="0.501961" points="-1,178 39,150 86,169" />
<polygon fill="#002a4e" fill-opacity="0.501961" points="219,138 192,143 164,126" />
<polygon fill="#171d22" fill-opacity="0.501961" points="117,66 94,65 87,55" />
<polygon fill="#97a7c4" fill-opacity="0.501961" points="218,146 260,152 246,160" />
<polygon fill="#ffd2a2" fill-opacity="0.501961" points="53,92 59,100 31,107" />
<polygon fill="#e1c1a5" fill-opacity="0.501961" points="25,110 9,115 -4,143" />
<polygon fill="#d4dce0" fill-opacity="0.501961" points="76,36 65,53 100,54" />
<polygon fill="#8db3d0" fill-opacity="0.501961" points="161,18 110,50 214,23" />
<polygon fill="#142030" fill-opacity="0.501961" points="181,87 161,98 154,91" />
<polygon fill="#64728e" fill-opacity="0.501961" points="194,121 260,74 183,89" />
<polygon fill="#0b161b" fill-opacity="0.501961" points="60,53 69,60 86,59" />
<polygon fill="#5f4f49" fill-opacity="0.501961" points="-16,131 21,104 16,89" />
<polygon fill="#8dacd1" fill-opacity="0.501961" points="79,162 49,157 47,147" />
<polygon fill="#753519" fill-opacity="0.501961" points="60,79 19,71 91,115" />
<polygon fill="#c2c0c3" fill-opacity="0.501961" points="220,79 258,74 256,47" />
<polygon fill="#000407" fill-opacity="0.501961" points="131,144 152,148 141,153" />
<polygon fill="#425a81" fill-opacity="0.501961" points="51,135 87,124 31,117" />
<polygon fill="#172430" fill-opacity="0.501961" points="175,105 150,159 193,112" />
<polygon fill="#a16921" fill-opacity="0.501961" points="31,136 37,147 50,133" />
<polygon fill="#2f283a" fill-opacity="0.501961" points="90,162 124,185 161,177" />
<polygon fill="#293136" fill-opacity="0.501961" points="13,65 37,105 28,119" />
<polygon fill="#d9dcdc" fill-opacity="0.501961" points="215,22 153,63 98,57" />
<polygon fill="#fffffb" fill-opacity="0.501961" points="81,6 38,3 69,-16" />
<polygon fill="#444148" fill-opacity="0.501961" points="130,65 157,77 185,72" />
<polygon fill="#5a596e" fill-opacity="0.501961" points="206,164 213,148 271,161" />
<polygon fill="#563f38" fill-opacity="0.501961" points="-16,119 -11,146 13,148" />
<polygon fill="#1d334c" fill-opacity="0.501961" points="189,80 216,78 172,94" />
<polygon fill="#b6c3d2" fill-opacity="0.501961" points="36,-13 31,19 43,39" />
<polygon fill="#af6d2f" fill-opacity="0.501961" points="120,67 84,70 98,76" />
<polygon fill="#0b1a22" fill-opacity="0.501961" points="17,18 21,6 24,34" />
<polygon fill="#987480" fill-opacity="0.501961" points="76,90 99,111 114,109" />
<polygon fill="#fda059" fill-opacity="0.501961" points="132,73 140,76 151,70" />
<polygon fill="#493f33" fill-opacity="0.501961" points="15,100 40,86 47,99" />
<polygon fill="#000206" fill-opacity="0.501961" points="137,149 124,185 135,173" />
<polygon fill="#18263c" fill-opacity="0.501961" points="131,144 94,136 90,147" />
<polygon fill="#779cc1" fill-opacity="0.501961" points="36,27 63,4 40,9" />
<polygon fill="#8c8783" fill-opacity="0.501961" points="146,65 230,44 195,67" />
<polygon fill="#f7d4b3" fill-opacity="0.501961" points="116,74 85,76 101,80" />
<polygon fill="#80564a" fill-opacity="0.501961" points="72,97 126,76 58,83" />
<polygon fill="#b3705d" fill-opacity="0.501961" points="52,66 18,46 -3,2" />
<polygon fill="#a36543" fill-opacity="0.501961" points="85,163 70,147 125,162" />
</g>
</svg>