<svg xmlns="http://www.w3.org/2000/svg" version="1.1" width="1024" height="680">
<rect x="0" y="0" width="1024" height="680" fill="#5e5642" />
<g transform="scale(4.000000) translate(0.5 0.5)">
<polygon fill="#b9a48b" fill-opacity="0.501961" points="-7,185 27,98 271,130" />
<polygon fill="#2c1100" fill-opacity="0.501961" points="-5,99 225,-16 160,105" />
<polygon fill="#000000" fill-opacity="0.501961" points="246,-16 271,106 232,102" />
<polygon fill="#8c9570" fill-opacity="0.501961" points="121,60 192,60 110,-16" />
<polygon fill="#cfb79e" fill-opacity="0.501961" points="8,109 143,103 59,148" />
<polygon fill="#000f0f" fill-opacity="0.501961" points="34,-15 129,-16 83,36" />
<polygon fill="#001516" fill-opacity="0.501961" points="200,-8 123,-15 207,68" />
<polygon fill="#290e00" fill-opacity="0.501961" points="55,101 11,103 1,16" />
<polygon fill="#767664" fill-opacity="0.501961" points="236,166 235,29 140,141" />
<polygon fill="#c2542c" fill-opacity="0.501961" points="59,106 83,72 52,33" />
<polygon fill="#524531" fill-opacity="0.501961" points="-16,130 138,154 59,173" />
<polygon fill="#79aa93" fill-opacity="0.501961" points="32,-16 57,33 15,48" />
<polygon fill="#1e0800" fill-opacity="0.501961" points="91,104 212,75 72,52" />
<polygon fill="#000002" fill-opacity="0.501961" points="235,29 255,109 258,-16" />
<polygon fill="#3e827a" fill-opacity="0.501961" points="231,88 242,-16 195,26" />
<polygon fill="#ddb880" fill-opacity="0.501961" points="88,51 91,34 129,34" />
<polygon fill="#d3b494" fill-opacity="0.501961" points="225,102 210,81 175,90" />
<polygon fill="#2a0000" fill-opacity="0.501961" points="124,38 155,52 99,54" />
<polygon fill="#fff7de" fill-opacity="0.501961" points="-16,185 31,171 -9,153" />
<polygon fill="#ffffc2" fill-opacity="0.501961" points="55,54 30,55 36,61" />
<polygon fill="#47301d" fill-opacity="0.501961" points="-16,141 18,48 17,159" />
<polygon fill="#387371" fill-opacity="0.501961" points="168,33 95,35 117,-16" />
<polygon fill="#fff1a3" fill-opacity="0.501961" points="117,54 146,54 134,60" />
<polygon fill="#803305" fill-opacity="0.501961" points="25,39 85,37 82,68" />
<polygon fill="#746a55" fill-opacity="0.501961" points="150,119 271,166 265,102" />
<polygon fill="#e09d27" fill-opacity="0.501961" points="197,58 170,52 197,74" />
<polygon fill="#381f07" fill-opacity="0.501961" points="-9,56 44,104 51,61" />
<polygon fill="#583f17" fill-opacity="0.501961" points="16,114 -16,-2 16,0" />
<polygon fill="#cfc7ae" fill-opacity="0.501961" points="20,133 18,107 64,143" />
<polygon fill="#0c0003" fill-opacity="0.501961" points="118,51 87,48 109,112" />
<polygon fill="#ffce7e" fill-opacity="0.501961" points="18,36 17,45 46,34" />
<polygon fill="#e9bf6d" fill-opacity="0.501961" points="71,36 56,43 37,35" />
<polygon fill="#714c09" fill-opacity="0.501961" points="121,59 125,75 181,60" />
<polygon fill="#190000" fill-opacity="0.501961" points="50,36 31,53 53,54" />
<polygon fill="#133027" fill-opacity="0.501961" points="107,34 44,33 89,-16" />
<polygon fill="#000b0b" fill-opacity="0.501961" points="241,-16 237,95 271,27" />
<polygon fill="#5c4f37" fill-opacity="0.501961" points="176,83 112,79 226,149" />
<polygon fill="#172c22" fill-opacity="0.501961" points="194,57 221,-16 138,16" />
<polygon fill="#010001" fill-opacity="0.501961" points="19,50 16,100 35,76" />
<polygon fill="#887559" fill-opacity="0.501961" points="25,83 43,79 65,88" />
<polygon fill="#457b75" fill-opacity="0.501961" points="63,6 22,35 16,-16" />
<polygon fill="#877e67" fill-opacity="0.501961" points="144,164 158,105 86,103" />
<polygon fill="#c0ab91" fill-opacity="0.501961" points="57,98 120,139 15,123" />
<polygon fill="#7e3905" fill-opacity="0.501961" points="160,41 106,50 109,36" />
<polygon fill="#47341c" fill-opacity="0.501961" points="207,155 110,164 173,185" />
<polygon fill="#ac8c55" fill-opacity="0.501961" points="170,36 166,51 121,34" />
<polygon fill="#573d07" fill-opacity="0.501961" points="200,77 214,62 151,68" />
<polygon fill="#6e4f2e" fill-opacity="0.501961" points="21,127 4,40 -16,107" />
<polygon fill="#30180a" fill-opacity="0.501961" points="204,55 175,32 167,52" />
<polygon fill="#c57d53" fill-opacity="0.501961" points="63,45 46,57 60,78" />
<polygon fill="#8a8671" fill-opacity="0.501961" points="245,116 251,149 187,113" />
<polygon fill="#452c13" fill-opacity="0.501961" points="124,159 96,145 96,158" />
<polygon fill="#24252a" fill-opacity="0.501961" points="9,122 27,139 -16,158" />
<polygon fill="#948264" fill-opacity="0.501961" points="179,125 231,97 204,90" />
<polygon fill="#547c6f" fill-opacity="0.501961" points="208,0 240,-16 211,85" />
<polygon fill="#698d83" fill-opacity="0.501961" points="110,9 131,36 150,-16" />
<polygon fill="#433a2b" fill-opacity="0.501961" points="250,124 237,131 271,143" />
<polygon fill="#61513c" fill-opacity="0.501961" points="183,87 157,87 163,163" />
<polygon fill="#121104" fill-opacity="0.501961" points="270,185 218,174 220,159" />
<polygon fill="#010000" fill-opacity="0.501961" points="66,101 119,102 113,88" />
<polygon fill="#b29276" fill-opacity="0.501961" points="58,150 58,127 132,134" />
<polygon fill="#7b6433" fill-opacity="0.501961" points="195,34 139,38 143,52" />
<polygon fill="#deaf72" fill-opacity="0.501961" points="130,58 152,52 168,58" />
<polygon fill="#8f8265" fill-opacity="0.501961" points="-14,153 71,185 113,165" />
<polygon fill="#621e10" fill-opacity="0.501961" points="93,98 57,97 85,51" />
<polygon fill="#ffdfab" fill-opacity="0.501961" points="34,59 24,54 51,55" />
<polygon fill="#061313" fill-opacity="0.501961" points="148,-2 189,36 197,0" />
<polygon fill="#968a6e" fill-opacity="0.501961" points="194,156 214,143 159,153" />
<polygon fill="#9f9b85" fill-opacity="0.501961" points="137,148 161,142 132,113" />
<polygon fill="#8c9493" fill-opacity="0.501961" points="204,164 216,156 213,176" />
<polygon fill="#ffc577" fill-opacity="0.501961" points="109,35 120,40 135,35" />
<polygon fill="#130000" fill-opacity="0.501961" points="60,48 78,39 71,50" />
<polygon fill="#26260d" fill-opacity="0.501961" points="18,-16 15,40 6,8" />
<polygon fill="#5b5239" fill-opacity="0.501961" points="223,131 200,150 265,185" />
<polygon fill="#9c7c60" fill-opacity="0.501961" points="88,123 100,109 57,99" />
<polygon fill="#dacab7" fill-opacity="0.501961" points="36,113 63,110 86,124" />
<polygon fill="#5c1d00" fill-opacity="0.501961" points="138,52 141,38 111,37" />
<polygon fill="#47372e" fill-opacity="0.501961" points="117,125 98,139 111,122" />
<polygon fill="#807155" fill-opacity="0.501961" points="142,168 153,154 92,140" />
<polygon fill="#c2d0d0" fill-opacity="0.501961" points="83,47 99,47 101,39" />
<polygon fill="#876c2c" fill-opacity="0.501961" points="77,37 72,52 102,38" />
<polygon fill="#585e5c" fill-opacity="0.501961" points="234,44 201,78 235,100" />
<polygon fill="#040c0b" fill-opacity="0.501961" points="156,88 192,74 113,73" />
<polygon fill="#aca297" fill-opacity="0.501961" points="250,113 260,110 236,104" />
<polygon fill="#76897f" fill-opacity="0.501961" points="155,44 184,48 164,51" />
<polygon fill="#b8a486" fill-opacity="0.501961" points="211,85 201,100 178,85" />
<polygon fill="#443622" fill-opacity="0.501961" points="199,77 116,81 139,106" />
<polygon fill="#ffffdd" fill-opacity="0.501961" points="41,53 31,53 30,56" />
<polygon fill="#ecc983" fill-opacity="0.501961" points="144,36 142,42 154,35" />
<polygon fill="#4f4b32" fill-opacity="0.501961" points="149,51 158,17 165,53" />
<polygon fill="#713d0c" fill-opacity="0.501961" points="48,38 25,57 28,39" />
<polygon fill="#325344" fill-opacity="0.501961" points="191,24 209,74 212,54" />
<polygon fill="#aba398" fill-opacity="0.501961" points="172,106 172,114 179,102" />
<polygon fill="#061412" fill-opacity="0.501961" points="265,36 236,63 237,33" />
<polygon fill="#43695f" fill-opacity="0.501961" points="39,35 65,26 51,2" />
<polygon fill="#c4cfc4" fill-opacity="0.501961" points="108,133 121,139 126,136" />
<polygon fill="#353827" fill-opacity="0.501961" points="203,123 206,135 219,123" />
<polygon fill="#4e493e" fill-opacity="0.501961" points="179,122 128,114 164,109" />
<polygon fill="#111813" fill-opacity="0.501961" points="90,21 108,-16 39,-16" />
<polygon fill="#454544" fill-opacity="0.501961" points="153,137 148,128 173,138" />
</g>
</svg>