<svg xmlns="http://www.w3.org/2000/svg" version="1.1" width="1024" height="576">
<rect x="0" y="0" width="1024" height="576" fill="#5f5e57" />
<g transform="scale(4.000000) translate(0.5 0.5)">
<polygon fill="#000000" fill-opacity="0.501961" points="271,152 202,145 225,33" />
<polygon fill="#cfd2d1" fill-opacity="0.501961" points="198,6 252,-16 176,159" />
<polygon fill="#fee8d0" fill-opacity="0.501961" points="96,33 147,77 146,6" />
<polygon fill="#000000" fill-opacity="0.501961" points="20,101 28,-16 -16,14" />
<polygon fill="#f0f0f8" fill-opacity="0.501961" points="31,3 50,121 18,122" />
<polygon fill="#563b08" fill-opacity="0.501961" points="187,79 69,159 57,39" />
<polygon fill="#c9e8ff" fill-opacity="0.501961" points="271,91 261,21 223,29" />
<polygon fill="#ffd989" fill-opacity="0.501961" points="85,110 128,109 101,69" />
<polygon fill="#000600" fill-opacity="0.501961" points="215,29 228,68 228,11" />
<polygon fill="#0f1d27" fill-opacity="0.501961" points="194,-16 137,23 179,87" />
<polygon fill="#000000" fill-opacity="0.501961" points="271,93 201,99 238,159" />
<polygon fill="#dedce0" fill-opacity="0.501961" points="28,97 68,119 -10,126" />
<polygon fill="#bbe6f2" fill-opacity="0.501961" points="51,43 51,5 74,23" />
<polygon fill="#695746" fill-opacity="0.501961" points="67,96 -16,104 15,65" />
<polygon fill="#01181d" fill-opacity="0.501961" points="53,49 113,-14 69,94" />
<polygon fill="#dbddde" fill-opacity="0.501961" points="213,94 193,48 219,-16" />
<polygon fill="#000000" fill-opacity="0.501961" points="28,55 9,-16 -16,88" />
<polygon fill="#b3928c" fill-opacity="0.501961" points="210,104 198,139 103,142" />
<polygon fill="#120902" fill-opacity="0.501961" points="74,113 38,159 146,108" />
<polygon fill="#f6e1cb" fill-opacity="0.501961" points="121,76 123,24 154,51" />
<polygon fill="#eef5f7" fill-opacity="0.501961" points="186,102 192,84 167,92" />
<polygon fill="#f3ab10" fill-opacity="0.501961" points="112,92 83,75 130,73" />
<polygon fill="#81a1af" fill-opacity="0.501961" points="248,1 223,68 246,96" />
<polygon fill="#00152a" fill-opacity="0.501961" points="42,6 56,87 37,58" />
<polygon fill="#e2feff" fill-opacity="0.501961" points="39,12 29,-10 26,43" />
<polygon fill="#000000" fill-opacity="0.501961" points="211,92 201,146 271,143" />
<polygon fill="#000000" fill-opacity="0.501961" points="90,99 69,85 51,109" />
<polygon fill="#828079" fill-opacity="0.501961" points="63,31 100,54 164,8" />
<polygon fill="#433021" fill-opacity="0.501961" points="196,125 105,103 163,93" />
<polygon fill="#021225" fill-opacity="0.501961" points="-15,129 18,159 104,143" />
<polygon fill="#00000a" fill-opacity="0.501961" points="24,-16 -16,62 27,73" />
<polygon fill="#0a1e27" fill-opacity="0.501961" points="121,-16 131,16 58,3" />
<polygon fill="#f5ffff" fill-opacity="0.501961" points="26,50 33,82 37,22" />
<polygon fill="#ffffff" fill-opacity="0.501961" points="92,101 98,76 100,97" />
<polygon fill="#000514" fill-opacity="0.501961" points="46,58 40,10 53,12" />
<polygon fill="#817d85" fill-opacity="0.501961" points="72,123 170,159 148,129" />
<polygon fill="#8e908d" fill-opacity="0.501961" points="61,98 64,70 2,73" />
<polygon fill="#ffffff" fill-opacity="0.501961" points="252,25 271,77 250,65" />
<polygon fill="#5d85a4" fill-opacity="0.501961" points="185,17 185,93 203,78" />
<polygon fill="#000000" fill-opacity="0.501961" points="250,-13 271,2 248,25" />
<polygon fill="#f0d6ae" fill-opacity="0.501961" points="19,111 52,108 -10,91" />
<polygon fill="#7a3900" fill-opacity="0.501961" points="14,110 -16,117 -16,72" />
<polygon fill="#565a6b" fill-opacity="0.501961" points="145,75 102,47 77,73" />
<polygon fill="#deeef0" fill-opacity="0.501961" points="72,21 72,35 54,35" />
<polygon fill="#040000" fill-opacity="0.501961" points="240,156 248,68 271,74" />
<polygon fill="#080c00" fill-opacity="0.501961" points="55,70 98,57 56,32" />
<polygon fill="#3f5834" fill-opacity="0.501961" points="234,91 211,102 225,23" />
<polygon fill="#43362e" fill-opacity="0.501961" points="0,83 10,101 59,80" />
<polygon fill="#7b8580" fill-opacity="0.501961" points="120,14 145,-16 160,56" />
<polygon fill="#ebded7" fill-opacity="0.501961" points="216,82 195,89 207,36" />
<polygon fill="#172120" fill-opacity="0.501961" points="208,-11 173,40 146,-16" />
<polygon fill="#3a6e81" fill-opacity="0.501961" points="69,25 23,-3 84,-16" />
<polygon fill="#0e0500" fill-opacity="0.501961" points="192,103 206,94 232,101" />
<polygon fill="#4a3400" fill-opacity="0.501961" points="162,74 109,91 167,106" />
<polygon fill="#000b15" fill-opacity="0.501961" points="-16,-3 26,73 27,-4" />
<polygon fill="#d9edf5" fill-opacity="0.501961" points="190,99 169,88 167,98" />
<polygon fill="#c8a674" fill-opacity="0.501961" points="65,106 109,111 111,95" />
<polygon fill="#d08b6b" fill-opacity="0.501961" points="195,138 207,105 182,100" />
<polygon fill="#1c150e" fill-opacity="0.501961" points="57,107 90,96 33,95" />
<polygon fill="#f3dfc0" fill-opacity="0.501961" points="141,68 112,34 136,27" />
<polygon fill="#000000" fill-opacity="0.501961" points="227,17 229,47 219,31" />
<polygon fill="#bbb2a9" fill-opacity="0.501961" points="156,133 160,116 207,133" />
<polygon fill="#f5cca9" fill-opacity="0.501961" points="29,70 27,89 37,87" />
<polygon fill="#333233" fill-opacity="0.501961" points="177,20 177,41 126,14" />
<polygon fill="#9daeb1" fill-opacity="0.501961" points="248,4 210,-16 196,24" />
<polygon fill="#7d808d" fill-opacity="0.501961" points="21,127 18,116 55,121" />
<polygon fill="#3d383a" fill-opacity="0.501961" points="157,140 194,151 187,136" />
<polygon fill="#c0cccb" fill-opacity="0.501961" points="55,24 49,44 54,64" />
<polygon fill="#15232a" fill-opacity="0.501961" points="38,65 49,69 51,33" />
<polygon fill="#ffefca" fill-opacity="0.501961" points="111,91 106,111 104,91" />
<polygon fill="#7b5903" fill-opacity="0.501961" points="174,76 108,93 125,74" />
<polygon fill="#41280b" fill-opacity="0.501961" points="146,132 113,109 152,108" />
<polygon fill="#887a74" fill-opacity="0.501961" points="118,99 140,96 154,110" />
<polygon fill="#f0e3e2" fill-opacity="0.501961" points="42,88 56,90 37,95" />
<polygon fill="#aec7e1" fill-opacity="0.501961" points="248,64 241,58 244,87" />
<polygon fill="#000000" fill-opacity="0.501961" points="98,125 71,103 72,120" />
<polygon fill="#233a46" fill-opacity="0.501961" points="73,38 96,27 73,-16" />
<polygon fill="#632d11" fill-opacity="0.501961" points="239,4 245,21 237,26" />
<polygon fill="#90898d" fill-opacity="0.501961" points="152,74 126,74 154,47" />
<polygon fill="#c4c5c9" fill-opacity="0.501961" points="67,120 -10,119 42,99" />
<polygon fill="#8cb7ba" fill-opacity="0.501961" points="158,15 133,-9 134,15" />
<polygon fill="#424e49" fill-opacity="0.501961" points="210,95 243,95 238,51" />
<polygon fill="#856557" fill-opacity="0.501961" points="192,108 193,84 164,124" />
<polygon fill="#060800" fill-opacity="0.501961" points="176,101 150,102 137,90" />
<polygon fill="#ffb300" fill-opacity="0.501961" points="12,104 -16,77 -16,99" />
<polygon fill="#000000" fill-opacity="0.501961" points="35,88 49,87 50,79" />
<polygon fill="#000000" fill-opacity="0.501961" points="203,124 246,159 271,87" />
<polygon fill="#7ea9d8" fill-opacity="0.501961" points="20,71 -2,75 12,77" />
<polygon fill="#fcb413" fill-opacity="0.501961" points="100,82 123,75 80,75" />
<polygon fill="#827063" fill-opacity="0.501961" points="165,102 177,123 148,104" />
<polygon fill="#10364a" fill-opacity="0.501961" points="36,20 23,20 45,27" />
<polygon fill="#fffffe" fill-opacity="0.501961" points="206,81 195,91 195,82" />
<polygon fill="#98b4c4" fill-opacity="0.501961" points="230,55 242,42 230,5" />
<polygon fill="#8e8179" fill-opacity="0.501961" points="91,33 111,12 123,67" />
<polygon fill="#ffffff" fill-opacity="0.501961" points="29,19 36,3 27,9" />
<polygon fill="#4d7082" fill-opacity="0.501961" points="193,51 184,15 197,10" />
<polygon fill="#96b3b6" fill-opacity="0.501961" points="233,94 234,75 230,84" />
<polygon fill="#33270e" fill-opacity="0.501961" points="93,102 73,82 46,105" />
<polygon fill="#001c31" fill-opacity="0.501961" points="193,85 195,90 188,92" />
<polygon fill="#736c6f" fill-opacity="0.501961" points="85,128 40,129 69,119" />
</g>
</svg>