<svg xmlns="http://www.w3.org/2000/svg" version="1.1" width="1024" height="576">
<rect x="0" y="0" width="1024" height="576" fill="#443d31" />
<g transform="scale(4.000000) translate(0.5 0.5)">
<polygon fill="#b69c82" fill-opacity="0.501961" points="17,64 207,4 207,95" />
<polygon fill="#000000" fill-opacity="0.501961" points="-16,114 173,152 173,83" />
<polygon fill="#000000" fill-opacity="0.501961" points="250,159 202,-16 271,1" />
<polygon fill="#aa9277" fill-opacity="0.501961" points="142,20 46,112 56,3" />
<polygon fill="#1b1511" fill-opacity="0.501961" points="112,78 162,77 159,-16" />
<polygon fill="#fffddf" fill-opacity="0.501961" points="163,53 180,23 199,52" />
<polygon fill="#000605" fill-opacity="0.501961" points="59,153 27,6 -16,141" />
<polygon fill="#000000" fill-opacity="0.501961" points="199,92 210,159 271,132" />
<polygon fill="#d1c2b2" fill-opacity="0.501961" points="141,93 91,80 163,79" />
<polygon fill="#7c6f6a" fill-opacity="0.501961" points="86,143 123,122 46,128" />
<polygon fill="#baa897" fill-opacity="0.501961" points="171,105 199,110 180,129" />
<polygon fill="#9c908b" fill-opacity="0.501961" points="8,98 20,83 5,44" />
<polygon fill="#382612" fill-opacity="0.501961" points="60,91 128,72 59,67" />
<polygon fill="#030405" fill-opacity="0.501961" points="128,31 94,-16 160,6" />
<polygon fill="#dac6a9" fill-opacity="0.501961" points="197,50 200,77 175,65" />
<polygon fill="#b7a493" fill-opacity="0.501961" points="39,85 132,50 51,47" />
<polygon fill="#000000" fill-opacity="0.501961" points="186,143 104,86 108,159" />
<polygon fill="#000100" fill-opacity="0.501961" points="10,17 15,79 44,61" />
<polygon fill="#010000" fill-opacity="0.501961" points="271,-14 254,159 221,0" />
<polygon fill="#4b3c2b" fill-opacity="0.501961" points="50,134 63,56 103,122" />
<polygon fill="#9f7d56" fill-opacity="0.501961" points="218,77 234,108 239,77" />
<polygon fill="#6a8062" fill-opacity="0.501961" points="45,32 46,1 -16,-15" />
<polygon fill="#393322" fill-opacity="0.501961" points="52,54 47,2 76,41" />
<polygon fill="#8f755a" fill-opacity="0.501961" points="152,45 216,14 166,3" />
<polygon fill="#00111f" fill-opacity="0.501961" points="-4,159 2,104 93,155" />
<polygon fill="#110f0c" fill-opacity="0.501961" points="151,-16 164,28 10,-16" />
<polygon fill="#98836e" fill-opacity="0.501961" points="63,1 135,30 122,69" />
<polygon fill="#251409" fill-opacity="0.501961" points="190,99 123,97 188,74" />
<polygon fill="#564737" fill-opacity="0.501961" points="172,-16 228,19 207,54" />
<polygon fill="#0a0b01" fill-opacity="0.501961" points="202,102 238,53 233,-2" />
<polygon fill="#000001" fill-opacity="0.501961" points="6,76 3,-3 -16,22" />
<polygon fill="#2a4111" fill-opacity="0.501961" points="48,78 24,75 35,12" />
<polygon fill="#876f4f" fill-opacity="0.501961" points="152,69 153,31 190,89" />
<polygon fill="#1b150c" fill-opacity="0.501961" points="152,64 92,71 146,79" />
<polygon fill="#000000" fill-opacity="0.501961" points="17,85 17,127 47,83" />
<polygon fill="#877766" fill-opacity="0.501961" points="101,10 144,19 96,22" />
<polygon fill="#9e958b" fill-opacity="0.501961" points="60,102 47,64 49,114" />
<polygon fill="#b39b84" fill-opacity="0.501961" points="104,67 92,28 73,73" />
<polygon fill="#030000" fill-opacity="0.501961" points="221,132 261,159 271,26" />
<polygon fill="#045367" fill-opacity="0.501961" points="8,123 56,143 52,159" />
<polygon fill="#0b0604" fill-opacity="0.501961" points="216,87 182,101 222,110" />
<polygon fill="#9f9089" fill-opacity="0.501961" points="98,139 98,118 108,129" />
<polygon fill="#ffe8d4" fill-opacity="0.501961" points="194,52 171,45 180,31" />
<polygon fill="#cec8bc" fill-opacity="0.501961" points="138,86 110,78 129,76" />
<polygon fill="#4d4130" fill-opacity="0.501961" points="91,35 98,9 98,48" />
<polygon fill="#ebd8c7" fill-opacity="0.501961" points="113,79 100,85 88,82" />
<polygon fill="#927657" fill-opacity="0.501961" points="221,106 231,101 219,72" />
<polygon fill="#d3b99f" fill-opacity="0.501961" points="89,31 94,17 92,46" />
<polygon fill="#796f72" fill-opacity="0.501961" points="5,16 24,20 4,-16" />
<polygon fill="#c1a687" fill-opacity="0.501961" points="164,53 171,32 173,67" />
<polygon fill="#f3ddbb" fill-opacity="0.501961" points="144,-5 169,6 152,-8" />
<polygon fill="#1b0d06" fill-opacity="0.501961" points="172,140 89,92 169,85" />
<polygon fill="#d6c4b2" fill-opacity="0.501961" points="117,22 113,38 112,13" />
<polygon fill="#d4bc9e" fill-opacity="0.501961" points="81,25 77,34 82,49" />
<polygon fill="#cfcfc8" fill-opacity="0.501961" points="56,55 50,81 46,54" />
<polygon fill="#948779" fill-opacity="0.501961" points="201,123 190,103 171,108" />
<polygon fill="#251a0a" fill-opacity="0.501961" points="82,35 83,10 87,20" />
<polygon fill="#5a442c" fill-opacity="0.501961" points="56,71 58,108 95,101" />
<polygon fill="#665642" fill-opacity="0.501961" points="81,44 112,40 114,49" />
<polygon fill="#171618" fill-opacity="0.501961" points="171,-16 233,7 201,13" />
<polygon fill="#64ac53" fill-opacity="0.501961" points="38,9 49,22 41,40" />
<polygon fill="#c1a897" fill-opacity="0.501961" points="92,46 119,48 116,67" />
<polygon fill="#192f11" fill-opacity="0.501961" points="28,59 50,52 23,8" />
<polygon fill="#886c4b" fill-opacity="0.501961" points="211,15 184,11 209,94" />
<polygon fill="#000000" fill-opacity="0.501961" points="10,18 16,79 26,37" />
<polygon fill="#504236" fill-opacity="0.501961" points="174,144 203,121 172,118" />
<polygon fill="#7c726d" fill-opacity="0.501961" points="10,62 7,110 17,90" />
<polygon fill="#000611" fill-opacity="0.501961" points="184,57 171,53 178,60" />
<polygon fill="#ead1bc" fill-opacity="0.501961" points="128,45 131,29 133,45" />
<polygon fill="#ceb8a8" fill-opacity="0.501961" points="103,49 93,59 61,53" />
<polygon fill="#2e2924" fill-opacity="0.501961" points="119,0 130,14 126,45" />
<polygon fill="#2a1f12" fill-opacity="0.501961" points="98,81 130,71 76,73" />
<polygon fill="#010000" fill-opacity="0.501961" points="57,3 99,2 26,-16" />
<polygon fill="#423834" fill-opacity="0.501961" points="124,44 177,69 128,65" />
<polygon fill="#010201" fill-opacity="0.501961" points="80,114 -1,128 15,108" />
<polygon fill="#433b2b" fill-opacity="0.501961" points="71,12 64,33 80,19" />
<polygon fill="#585c0f" fill-opacity="0.501961" points="27,53 33,85 38,62" />
<polygon fill="#d5c2a7" fill-opacity="0.501961" points="99,46 103,23 105,43" />
<polygon fill="#d0cac2" fill-opacity="0.501961" points="126,87 147,82 127,78" />
<polygon fill="#46454a" fill-opacity="0.501961" points="224,12 189,2 165,14" />
<polygon fill="#171612" fill-opacity="0.501961" points="162,29 133,23 162,6" />
<polygon fill="#897973" fill-opacity="0.501961" points="67,159 95,124 93,153" />
<polygon fill="#443e3b" fill-opacity="0.501961" points="61,117 39,127 92,148" />
<polygon fill="#000000" fill-opacity="0.501961" points="112,159 67,159 51,133" />
<polygon fill="#50412f" fill-opacity="0.501961" points="113,32 106,48 107,12" />
<polygon fill="#937d66" fill-opacity="0.501961" points="135,64 76,73 82,56" />
<polygon fill="#000000" fill-opacity="0.501961" points="95,159 130,96 130,151" />
<polygon fill="#493b2e" fill-opacity="0.501961" points="93,45 51,34 45,46" />
<polygon fill="#483824" fill-opacity="0.501961" points="70,97 65,58 56,105" />
<polygon fill="#9e8260" fill-opacity="0.501961" points="212,13 151,40 172,15" />
<polygon fill="#c1ad98" fill-opacity="0.501961" points="110,29 116,12 115,46" />
<polygon fill="#c2ac92" fill-opacity="0.501961" points="184,67 203,65 191,31" />
<polygon fill="#0c0904" fill-opacity="0.501961" points="47,122 32,133 45,77" />
<polygon fill="#2d251b" fill-opacity="0.501961" points="104,85 97,138 88,85" />
<polygon fill="#907b5f" fill-opacity="0.501961" points="182,61 175,92 186,92" />
<polygon fill="#2e2b23" fill-opacity="0.501961" points="167,83 191,73 174,73" />
<polygon fill="#29241f" fill-opacity="0.501961" points="109,81 125,86 118,80" />
<polygon fill="#695b6b" fill-opacity="0.501961" points="39,83 47,70 45,51" />
<polygon fill="#382e24" fill-opacity="0.501961" points="192,128 184,149 185,107" />
<polygon fill="#7e6445" fill-opacity="0.501961" points="208,98 207,43 190,89" />
</g>
</svg>