<svg xmlns="http://www.w3.org/2000/svg" version="1.1" width="1024" height="576">
<rect x="0" y="0" width="1024" height="576" fill="#362b1a" />
<g transform="scale(4.000000) translate(0.5 0.5)">
<polygon fill="#ffffff" fill-opacity="0.501961" points="132,159 237,131 27,130" />
<polygon fill="#f5be79" fill-opacity="0.501961" points="177,74 236,120 185,45" />
<polygon fill="#000000" fill-opacity="0.501961" points="189,128 -16,109 165,19" />
<polygon fill="#f8e0bd" fill-opacity="0.501961" points="271,123 241,149 152,131" />
<polygon fill="#d2a465" fill-opacity="0.501961" points="-5,125 42,159 37,105" />
<polygon fill="#ef9700" fill-opacity="0.501961" points="81,10 162,-16 159,12" />
<polygon fill="#e9ba7e" fill-opacity="0.501961" points="38,73 -16,63 39,53" />
<polygon fill="#ffffff" fill-opacity="0.501961" points="243,63 224,66 233,75" />
<polygon fill="#340a00" fill-opacity="0.501961" points="70,140 212,138 140,159" />
<polygon fill="#c28a48" fill-opacity="0.501961" points="81,47 84,85 53,51" />
<polygon fill="#000000" fill-opacity="0.501961" points="271,50 184,79 246,-16" />
<polygon fill="#110700" fill-opacity="0.501961" points="-16,-14 215,40 -9,52" />
<polygon fill="#000000" fill-opacity="0.501961" points="35,128 43,66 237,126" />
<polygon fill="#6b562d" fill-opacity="0.501961" points="140,-9 110,79 144,77" />
<polygon fill="#000000" fill-opacity="0.501961" points="26,129 232,116 165,74" />
<polygon fill="#000000" fill-opacity="0.501961" points="29,85 18,38 -16,144" />
<polygon fill="#917549" fill-opacity="0.501961" points="227,140 232,103 271,145" />
<polygon fill="#ffffff" fill-opacity="0.501961" points="67,132 41,138 32,129" />
<polygon fill="#b78a52" fill-opacity="0.501961" points="186,38 218,101 172,78" />
<polygon fill="#ffffff" fill-opacity="0.501961" points="155,139 144,130 114,135" />
<polygon fill="#000000" fill-opacity="0.501961" points="271,136 213,85 265,61" />
<polygon fill="#d08b39" fill-opacity="0.501961" points="56,32 59,77 68,38" />
<polygon fill="#191103" fill-opacity="0.501961" points="191,76 224,83 227,-16" />
<polygon fill="#000000" fill-opacity="0.501961" points="83,117 127,57 82,8" />
<polygon fill="#ffffff" fill-opacity="0.501961" points="147,129 149,138 178,137" />
<polygon fill="#e3b57b" fill-opacity="0.501961" points="10,72 8,53 -16,56" />
<polygon fill="#beffff" fill-opacity="0.501961" points="226,64 245,68 227,75" />
<polygon fill="#845e32" fill-opacity="0.501961" points="153,80 198,44 212,66" />
<polygon fill="#f9f2e3" fill-opacity="0.501961" points="106,135 58,139 75,129" />
<polygon fill="#514c49" fill-opacity="0.501961" points="187,109 179,89 158,113" />
<polygon fill="#623f06" fill-opacity="0.501961" points="131,139 37,137 58,159" />
<polygon fill="#f4d09b" fill-opacity="0.501961" points="39,65 33,79 23,52" />
<polygon fill="#000000" fill-opacity="0.501961" points="36,47 58,108 54,15" />
<polygon fill="#898572" fill-opacity="0.501961" points="244,118 228,92 237,159" />
<polygon fill="#ffffff" fill-opacity="0.501961" points="120,138 131,130 97,133" />
<polygon fill="#010000" fill-opacity="0.501961" points="45,119 69,127 70,46" />
<polygon fill="#ffffff" fill-opacity="0.501961" points="214,127 224,138 175,136" />
<polygon fill="#deb37a" fill-opacity="0.501961" points="230,113 205,82 188,86" />
<polygon fill="#995f00" fill-opacity="0.501961" points="178,12 65,5 164,-16" />
<polygon fill="#e0ad72" fill-opacity="0.501961" points="73,49 70,80 81,60" />
<polygon fill="#110a03" fill-opacity="0.501961" points="184,0 251,-8 256,80" />
<polygon fill="#040400" fill-opacity="0.501961" points="227,111 205,74 231,78" />
<polygon fill="#000000" fill-opacity="0.501961" points="173,89 143,18 174,11" />
<polygon fill="#d49734" fill-opacity="0.501961" points="125,-16 114,13 143,8" />
<polygon fill="#000000" fill-opacity="0.501961" points="228,110 168,92 231,135" />
<polygon fill="#5898ac" fill-opacity="0.501961" points="244,75 223,75 241,69" />
<polygon fill="#755f3e" fill-opacity="0.501961" points="168,74 114,67 142,80" />
<polygon fill="#000000" fill-opacity="0.501961" points="138,92 141,42 171,28" />
<polygon fill="#62481f" fill-opacity="0.501961" points="31,74 22,110 39,83" />
<polygon fill="#5d3f14" fill-opacity="0.501961" points="65,8 82,-7 83,60" />
<polygon fill="#9c7746" fill-opacity="0.501961" points="8,119 9,159 43,106" />
<polygon fill="#f7ffff" fill-opacity="0.501961" points="187,139 209,130 159,132" />
<polygon fill="#3b3423" fill-opacity="0.501961" points="230,30 194,29 246,-5" />
<polygon fill="#000000" fill-opacity="0.501961" points="-16,109 37,80 -16,68" />
<polygon fill="#020000" fill-opacity="0.501961" points="147,127 78,130 87,17" />
<polygon fill="#5b4b29" fill-opacity="0.501961" points="140,74 120,77 114,14" />
<polygon fill="#9b703b" fill-opacity="0.501961" points="271,128 211,150 236,118" />
<polygon fill="#6b4000" fill-opacity="0.501961" points="186,16 192,-16 136,6" />
<polygon fill="#daac6e" fill-opacity="0.501961" points="207,93 207,72 187,84" />
<polygon fill="#aa885c" fill-opacity="0.501961" points="-16,46 18,59 -16,79" />
<polygon fill="#000000" fill-opacity="0.501961" points="32,130 54,78 158,78" />
<polygon fill="#382107" fill-opacity="0.501961" points="209,76 180,64 187,78" />
<polygon fill="#6e5024" fill-opacity="0.501961" points="187,38 174,18 174,68" />
<polygon fill="#513e20" fill-opacity="0.501961" points="-10,25 45,43 -16,40" />
<polygon fill="#cdb18b" fill-opacity="0.501961" points="196,58 187,70 195,40" />
<polygon fill="#0d0b07" fill-opacity="0.501961" points="271,76 201,23 179,41" />
<polygon fill="#624b2a" fill-opacity="0.501961" points="-16,124 27,159 13,119" />
<polygon fill="#6d522e" fill-opacity="0.501961" points="22,159 41,137 104,139" />
<polygon fill="#000000" fill-opacity="0.501961" points="119,83 90,11 112,13" />
<polygon fill="#ffffe4" fill-opacity="0.501961" points="27,61 37,68 34,59" />
<polygon fill="#325d73" fill-opacity="0.501961" points="244,118 234,96 225,110" />
<polygon fill="#0b0700" fill-opacity="0.501961" points="3,35 -5,-4 66,32" />
<polygon fill="#5a411d" fill-opacity="0.501961" points="271,118 233,132 271,134" />
<polygon fill="#221000" fill-opacity="0.501961" points="65,18 65,68 73,41" />
<polygon fill="#bc802e" fill-opacity="0.501961" points="206,56 202,61 208,75" />
<polygon fill="#7a5d27" fill-opacity="0.501961" points="160,138 182,159 220,140" />
<polygon fill="#100d04" fill-opacity="0.501961" points="236,70 225,98 271,119" />
<polygon fill="#1c1305" fill-opacity="0.501961" points="8,102 41,104 -2,121" />
<polygon fill="#bb7d36" fill-opacity="0.501961" points="65,69 55,76 63,37" />
<polygon fill="#90ceea" fill-opacity="0.501961" points="240,76 239,64 244,64" />
<polygon fill="#fffff6" fill-opacity="0.501961" points="76,136 53,136 70,131" />
<polygon fill="#694100" fill-opacity="0.501961" points="75,-16 72,14 120,8" />
<polygon fill="#150000" fill-opacity="0.501961" points="78,11 25,2 50,-16" />
<polygon fill="#f0eee6" fill-opacity="0.501961" points="76,135 111,138 98,130" />
<polygon fill="#3e290b" fill-opacity="0.501961" points="271,141 240,137 269,159" />
<polygon fill="#a47438" fill-opacity="0.501961" points="22,70 24,52 33,51" />
<polygon fill="#e3bc7f" fill-opacity="0.501961" points="74,70 76,77 71,77" />
<polygon fill="#f6ffff" fill-opacity="0.501961" points="227,134 216,129 197,137" />
<polygon fill="#7d5517" fill-opacity="0.501961" points="254,61 271,87 254,26" />
<polygon fill="#0c0901" fill-opacity="0.501961" points="265,124 241,118 246,34" />
<polygon fill="#010000" fill-opacity="0.501961" points="59,55 45,22 41,90" />
<polygon fill="#9f7340" fill-opacity="0.501961" points="70,44 83,53 79,73" />
<polygon fill="#b49773" fill-opacity="0.501961" points="23,134 43,139 27,125" />
<polygon fill="#070702" fill-opacity="0.501961" points="202,47 222,101 227,29" />
<polygon fill="#caa571" fill-opacity="0.501961" points="254,135 233,132 231,144" />
<polygon fill="#000000" fill-opacity="0.501961" points="27,48 -16,35 20,60" />
<polygon fill="#110d03" fill-opacity="0.501961" points="89,36 130,45 144,28" />
<polygon fill="#6f531d" fill-opacity="0.501961" points="117,11 117,22 141,27" />
<polygon fill="#b6b9b3" fill-opacity="0.501961" points="182,128 168,134 157,129" />
<polygon fill="#dac198" fill-opacity="0.501961" points="137,69 126,69 138,73" />
</g>
</svg>