<svg xmlns="http://www.w3.org/2000/svg" version="1.1" width="1024" height="576">
<rect x="0" y="0" width="1024" height="576" fill="#564425" />
<g transform="scale(4.000000) translate(0.5 0.5)">
<polygon fill="#edbb6c" fill-opacity="0.501961" points="155,-16 190,122 40,28" />
<polygon fill="#060000" fill-opacity="0.501961" points="-16,98 -6,157 190,68" />
<polygon fill="#000000" fill-opacity="0.501961" points="250,159 271,92 128,132" />
<polygon fill="#000000" fill-opacity="0.501961" points="235,97 229,-16 175,32" />
<polygon fill="#e6a44b" fill-opacity="0.501961" points="215,62 191,105 75,118" />
<polygon fill="#000000" fill-opacity="0.501961" points="-4,-16 55,20 23,78" />
<polygon fill="#ede8ad" fill-opacity="0.501961" points="234,-16 232,38 254,59" />
<polygon fill="#be8c44" fill-opacity="0.501961" points="62,-16 121,-16 31,117" />
<polygon fill="#000000" fill-opacity="0.501961" points="19,101 -10,159 119,138" />
<polygon fill="#ffffc6" fill-opacity="0.501961" points="150,80 168,27 146,20" />
<polygon fill="#000000" fill-opacity="0.501961" points="167,159 97,94 250,143" />
<polygon fill="#8bcdc5" fill-opacity="0.501961" points="177,115 241,91 210,117" />
<polygon fill="#62a7c1" fill-opacity="0.501961" points="132,66 81,47 78,79" />
<polygon fill="#ffd160" fill-opacity="0.501961" points="109,121 114,144 144,134" />
<polygon fill="#e2d7b9" fill-opacity="0.501961" points="113,105 175,92 171,110" />
<polygon fill="#000000" fill-opacity="0.501961" points="224,56 190,113 271,67" />
<polygon fill="#b05200" fill-opacity="0.501961" points="204,101 210,53 140,88" />
<polygon fill="#151711" fill-opacity="0.501961" points="175,95 114,61 85,82" />
<polygon fill="#1c1000" fill-opacity="0.501961" points="239,44 210,-16 163,70" />
<polygon fill="#000105" fill-opacity="0.501961" points="271,142 271,87 83,159" />
<polygon fill="#aa813a" fill-opacity="0.501961" points="-16,50 44,86 48,118" />
<polygon fill="#d79f3a" fill-opacity="0.501961" points="114,104 60,119 99,121" />
<polygon fill="#010000" fill-opacity="0.501961" points="-16,135 111,121 100,159" />
<polygon fill="#1a0600" fill-opacity="0.501961" points="233,83 200,107 166,107" />
<polygon fill="#f4f09a" fill-opacity="0.501961" points="95,45 109,63 85,69" />
<polygon fill="#000000" fill-opacity="0.501961" points="47,100 84,113 78,56" />
<polygon fill="#b5c4bc" fill-opacity="0.501961" points="164,23 195,19 185,13" />
<polygon fill="#b6a075" fill-opacity="0.501961" points="11,62 -16,60 8,100" />
<polygon fill="#120d00" fill-opacity="0.501961" points="12,80 4,-11 58,19" />
<polygon fill="#000000" fill-opacity="0.501961" points="175,-16 167,11 260,1" />
<polygon fill="#7c581b" fill-opacity="0.501961" points="68,16 142,21 174,-12" />
<polygon fill="#ffffff" fill-opacity="0.501961" points="157,100 183,99 144,90" />
<polygon fill="#000f3a" fill-opacity="0.501961" points="111,58 120,69 118,41" />
<polygon fill="#8edbe8" fill-opacity="0.501961" points="215,97 199,113 241,95" />
<polygon fill="#1f5a93" fill-opacity="0.501961" points="4,1 9,57 -16,47" />
<polygon fill="#ffddab" fill-opacity="0.501961" points="161,15 159,76 144,52" />
<polygon fill="#381a00" fill-opacity="0.501961" points="81,71 61,148 43,69" />
<polygon fill="#e1a556" fill-opacity="0.501961" points="137,29 118,75 142,72" />
<polygon fill="#050d09" fill-opacity="0.501961" points="215,98 271,76 205,43" />
<polygon fill="#edcb79" fill-opacity="0.501961" points="11,108 -3,111 16,115" />
<polygon fill="#235960" fill-opacity="0.501961" points="225,78 260,81 234,97" />
<polygon fill="#e9b56f" fill-opacity="0.501961" points="41,68 73,65 66,53" />
<polygon fill="#170d00" fill-opacity="0.501961" points="93,75 164,84 75,113" />
<polygon fill="#513a0e" fill-opacity="0.501961" points="30,95 12,57 46,36" />
<polygon fill="#4f8db8" fill-opacity="0.501961" points="79,81 106,60 120,69" />
<polygon fill="#6c511c" fill-opacity="0.501961" points="85,86 106,84 136,112" />
<polygon fill="#7d3600" fill-opacity="0.501961" points="80,126 37,111 67,102" />
<polygon fill="#d87600" fill-opacity="0.501961" points="207,92 150,72 169,96" />
<polygon fill="#c6b984" fill-opacity="0.501961" points="243,5 249,61 236,46" />
<polygon fill="#717248" fill-opacity="0.501961" points="231,107 162,110 192,121" />
<polygon fill="#d7a35e" fill-opacity="0.501961" points="118,19 55,30 151,39" />
<polygon fill="#ad935b" fill-opacity="0.501961" points="116,99 161,92 89,124" />
<polygon fill="#d79f50" fill-opacity="0.501961" points="167,9 166,67 148,3" />
<polygon fill="#90672f" fill-opacity="0.501961" points="44,33 45,57 128,46" />
<polygon fill="#000000" fill-opacity="0.501961" points="57,-3 -5,30 18,37" />
<polygon fill="#040000" fill-opacity="0.501961" points="167,27 178,21 196,57" />
<polygon fill="#100000" fill-opacity="0.501961" points="80,144 13,144 13,85" />
<polygon fill="#ddc171" fill-opacity="0.501961" points="201,74 202,83 171,78" />
<polygon fill="#000103" fill-opacity="0.501961" points="156,159 142,113 271,126" />
<polygon fill="#5d3b07" fill-opacity="0.501961" points="148,32 145,5 136,25" />
<polygon fill="#e36b00" fill-opacity="0.501961" points="211,77 207,60 189,61" />
<polygon fill="#d8a853" fill-opacity="0.501961" points="36,89 46,110 45,76" />
<polygon fill="#a77730" fill-opacity="0.501961" points="176,66 145,85 142,74" />
<polygon fill="#003b70" fill-opacity="0.501961" points="86,54 76,53 86,79" />
<polygon fill="#c89e5e" fill-opacity="0.501961" points="79,42 45,46 78,0" />
<polygon fill="#f7f1e5" fill-opacity="0.501961" points="141,92 135,103 150,92" />
<polygon fill="#ffab38" fill-opacity="0.501961" points="264,80 240,93 271,87" />
<polygon fill="#000000" fill-opacity="0.501961" points="119,106 89,89 48,102" />
<polygon fill="#704c1d" fill-opacity="0.501961" points="98,12 99,41 75,4" />
<polygon fill="#977030" fill-opacity="0.501961" points="12,65 27,69 8,49" />
<polygon fill="#00000b" fill-opacity="0.501961" points="256,14 226,-11 271,-9" />
<polygon fill="#655c2f" fill-opacity="0.501961" points="245,59 234,18 229,47" />
<polygon fill="#0f0c00" fill-opacity="0.501961" points="56,27 17,57 1,-16" />
<polygon fill="#bfd9c7" fill-opacity="0.501961" points="93,51 112,50 111,65" />
<polygon fill="#c0b68b" fill-opacity="0.501961" points="233,3 246,59 248,9" />
<polygon fill="#261800" fill-opacity="0.501961" points="138,109 138,132 104,117" />
<polygon fill="#00052c" fill-opacity="0.501961" points="10,58 -13,64 -9,32" />
<polygon fill="#e3c498" fill-opacity="0.501961" points="212,19 216,17 212,13" />
<polygon fill="#cc9f51" fill-opacity="0.501961" points="161,102 183,114 195,110" />
<polygon fill="#ffecd6" fill-opacity="0.501961" points="159,28 146,42 161,48" />
<polygon fill="#000000" fill-opacity="0.501961" points="269,48 241,64 271,105" />
<polygon fill="#edc000" fill-opacity="0.501961" points="97,53 91,56 91,67" />
<polygon fill="#ffb000" fill-opacity="0.501961" points="161,82 176,91 197,90" />
<polygon fill="#4c3b17" fill-opacity="0.501961" points="167,53 187,38 170,85" />
<polygon fill="#50523c" fill-opacity="0.501961" points="241,8 251,55 260,8" />
<polygon fill="#0d0700" fill-opacity="0.501961" points="183,59 231,59 229,27" />
<polygon fill="#845a1c" fill-opacity="0.501961" points="153,75 127,70 95,87" />
<polygon fill="#9b4a00" fill-opacity="0.501961" points="201,104 186,101 214,66" />
<polygon fill="#00081a" fill-opacity="0.501961" points="114,80 122,70 89,77" />
<polygon fill="#012122" fill-opacity="0.501961" points="223,106 271,83 271,155" />
<polygon fill="#af8849" fill-opacity="0.501961" points="111,14 148,-9 69,3" />
<polygon fill="#0e0600" fill-opacity="0.501961" points="210,83 247,96 199,93" />
<polygon fill="#163b3d" fill-opacity="0.501961" points="159,115 202,114 199,125" />
<polygon fill="#0e0700" fill-opacity="0.501961" points="27,65 36,86 35,53" />
<polygon fill="#503815" fill-opacity="0.501961" points="70,86 77,62 39,76" />
<polygon fill="#ac893e" fill-opacity="0.501961" points="111,128 109,159 144,128" />
<polygon fill="#5b2600" fill-opacity="0.501961" points="102,124 49,126 34,106" />
<polygon fill="#ffeec6" fill-opacity="0.501961" points="148,110 155,96 160,107" />
<polygon fill="#100000" fill-opacity="0.501961" points="-8,128 103,124 115,159" />
<polygon fill="#794f11" fill-opacity="0.501961" points="140,58 148,75 145,43" />
</g>
</svg>