<svg xmlns="http://www.w3.org/2000/svg" version="1.1" width="1024" height="576">
<rect x="0" y="0" width="1024" height="576" fill="#353129" />
<g transform="scale(4.000000) translate(0.5 0.5)">
<polygon fill="#cab290" fill-opacity="0.501961" points="232,88 62,83 173,29" />
<polygon fill="#000000" fill-opacity="0.501961" points="235,142 -16,159 -16,64" />
<polygon fill="#fffedd" fill-opacity="0.501961" points="184,56 197,106 162,46" />
<polygon fill="#938679" fill-opacity="0.501961" points="78,91 90,19 148,94" />
<polygon fill="#040200" fill-opacity="0.501961" points="-16,0 192,45 271,-15" />
<polygon fill="#6d5f4d" fill-opacity="0.501961" points="224,87 247,10 160,100" />
<polygon fill="#616589" fill-opacity="0.501961" points="4,11 41,16 47,67" />
<polygon fill="#0f100b" fill-opacity="0.501961" points="92,149 64,0 12,153" />
<polygon fill="#55493b" fill-opacity="0.501961" points="68,31 189,23 127,69" />
<polygon fill="#251d13" fill-opacity="0.501961" points="161,71 196,138 137,80" />
<polygon fill="#9f9d99" fill-opacity="0.501961" points="271,91 249,96 252,43" />
<polygon fill="#ffffff" fill-opacity="0.501961" points="139,85 129,92 125,73" />
<polygon fill="#060200" fill-opacity="0.501961" points="86,150 222,117 180,98" />
<polygon fill="#ffffff" fill-opacity="0.501961" points="170,74 183,50 169,55" />
<polygon fill="#5e503b" fill-opacity="0.501961" points="207,28 224,90 169,25" />
<polygon fill="#465163" fill-opacity="0.501961" points="56,55 -3,62 12,3" />
<polygon fill="#3e342a" fill-opacity="0.501961" points="62,104 94,72 151,116" />
<polygon fill="#998c80" fill-opacity="0.501961" points="74,34 99,25 85,55" />
<polygon fill="#e7e7b4" fill-opacity="0.501961" points="235,26 248,20 236,19" />
<polygon fill="#bda279" fill-opacity="0.501961" points="168,81 171,28 149,65" />
<polygon fill="#32525f" fill-opacity="0.501961" points="39,104 25,159 22,109" />
<polygon fill="#000e1d" fill-opacity="0.501961" points="230,16 252,75 232,85" />
<polygon fill="#a1875d" fill-opacity="0.501961" points="207,46 179,90 197,106" />
<polygon fill="#ffffff" fill-opacity="0.501961" points="86,77 78,76 86,83" />
<polygon fill="#d5c8bc" fill-opacity="0.501961" points="116,61 109,54 102,82" />
<polygon fill="#1c211a" fill-opacity="0.501961" points="59,103 -16,63 94,57" />
<polygon fill="#010000" fill-opacity="0.501961" points="120,116 -16,146 254,159" />
<polygon fill="#372e20" fill-opacity="0.501961" points="164,22 147,73 118,28" />
<polygon fill="#fef9f2" fill-opacity="0.501961" points="215,57 212,61 227,60" />
<polygon fill="#000000" fill-opacity="0.501961" points="8,159 26,91 -16,88" />
<polygon fill="#a99fa6" fill-opacity="0.501961" points="30,58 48,47 40,34" />
<polygon fill="#0e0d06" fill-opacity="0.501961" points="181,-3 225,-10 224,53" />
<polygon fill="#130e02" fill-opacity="0.501961" points="197,87 197,72 188,90" />
<polygon fill="#121208" fill-opacity="0.501961" points="30,14 21,38 31,62" />
<polygon fill="#080901" fill-opacity="0.501961" points="45,39 80,-16 142,6" />
<polygon fill="#4e3e2b" fill-opacity="0.501961" points="181,96 179,73 123,122" />
<polygon fill="#0e0c08" fill-opacity="0.501961" points="123,69 119,59 137,41" />
<polygon fill="#473a34" fill-opacity="0.501961" points="235,86 208,57 199,95" />
<polygon fill="#b99e49" fill-opacity="0.501961" points="241,131 233,123 241,147" />
<polygon fill="#0c0804" fill-opacity="0.501961" points="95,57 88,41 100,37" />
<polygon fill="#4c3e2d" fill-opacity="0.501961" points="81,111 53,90 58,47" />
<polygon fill="#f8e0cc" fill-opacity="0.501961" points="90,64 96,69 98,56" />
<polygon fill="#ece5d9" fill-opacity="0.501961" points="260,87 257,95 245,93" />
<polygon fill="#7b6e60" fill-opacity="0.501961" points="106,34 139,62 114,21" />
<polygon fill="#aa9b8f" fill-opacity="0.501961" points="120,87 141,65 134,52" />
<polygon fill="#a49174" fill-opacity="0.501961" points="141,48 153,62 147,37" />
<polygon fill="#000200" fill-opacity="0.501961" points="230,-16 247,20 271,-3" />
<polygon fill="#c8ae83" fill-opacity="0.501961" points="191,58 201,84 206,63" />
<polygon fill="#9784a7" fill-opacity="0.501961" points="6,26 35,34 7,34" />
<polygon fill="#000000" fill-opacity="0.501961" points="3,33 7,-7 -16,32" />
<polygon fill="#00070b" fill-opacity="0.501961" points="0,33 8,48 25,35" />
<polygon fill="#28272a" fill-opacity="0.501961" points="117,115 126,83 112,81" />
<polygon fill="#82716c" fill-opacity="0.501961" points="221,73 229,89 229,48" />
<polygon fill="#000000" fill-opacity="0.501961" points="73,-16 50,18 -1,-1" />
<polygon fill="#747363" fill-opacity="0.501961" points="249,20 248,30 224,37" />
<polygon fill="#5d7e4b" fill-opacity="0.501961" points="56,27 32,31 55,15" />
<polygon fill="#80785d" fill-opacity="0.501961" points="261,132 264,118 242,111" />
<polygon fill="#fffbf1" fill-opacity="0.501961" points="136,87 131,73 123,81" />
<polygon fill="#000000" fill-opacity="0.501961" points="66,21 80,56 64,68" />
<polygon fill="#8e816e" fill-opacity="0.501961" points="11,84 -9,89 -16,83" />
<polygon fill="#ffffff" fill-opacity="0.501961" points="188,73 175,50 171,61" />
<polygon fill="#8e7e70" fill-opacity="0.501961" points="94,51 108,47 105,91" />
<polygon fill="#020302" fill-opacity="0.501961" points="61,110 37,159 38,50" />
<polygon fill="#12110b" fill-opacity="0.501961" points="132,31 130,11 109,48" />
<polygon fill="#000205" fill-opacity="0.501961" points="20,88 3,65 24,64" />
<polygon fill="#342b1a" fill-opacity="0.501961" points="155,29 161,53 149,53" />
<polygon fill="#312918" fill-opacity="0.501961" points="211,15 179,28 196,57" />
<polygon fill="#a7946f" fill-opacity="0.501961" points="87,79 89,94 97,95" />
<polygon fill="#443932" fill-opacity="0.501961" points="133,96 172,113 162,66" />
<polygon fill="#7a6749" fill-opacity="0.501961" points="178,22 187,62 168,37" />
<polygon fill="#d0bd9f" fill-opacity="0.501961" points="161,57 157,74 149,59" />
<polygon fill="#000000" fill-opacity="0.501961" points="244,129 245,159 267,134" />
<polygon fill="#22373a" fill-opacity="0.501961" points="13,92 43,56 46,82" />
<polygon fill="#20190e" fill-opacity="0.501961" points="233,86 271,122 213,95" />
<polygon fill="#477585" fill-opacity="0.501961" points="23,58 21,43 8,59" />
<polygon fill="#907b58" fill-opacity="0.501961" points="182,42 181,65 201,65" />
<polygon fill="#464641" fill-opacity="0.501961" points="269,20 257,91 249,19" />
<polygon fill="#52452b" fill-opacity="0.501961" points="200,119 175,129 194,133" />
<polygon fill="#807364" fill-opacity="0.501961" points="81,91 73,96 68,89" />
<polygon fill="#efcd9a" fill-opacity="0.501961" points="180,81 190,88 182,69" />
<polygon fill="#70655a" fill-opacity="0.501961" points="217,41 215,59 195,54" />
<polygon fill="#121007" fill-opacity="0.501961" points="158,12 174,34 159,32" />
<polygon fill="#2c220a" fill-opacity="0.501961" points="77,95 96,83 97,72" />
<polygon fill="#2d2720" fill-opacity="0.501961" points="220,74 224,138 200,130" />
<polygon fill="#6f6762" fill-opacity="0.501961" points="218,107 212,101 215,85" />
<polygon fill="#5a96aa" fill-opacity="0.501961" points="35,65 29,56 34,51" />
<polygon fill="#081b29" fill-opacity="0.501961" points="249,88 250,33 230,36" />
<polygon fill="#241f17" fill-opacity="0.501961" points="143,31 126,35 133,56" />
<polygon fill="#1b1813" fill-opacity="0.501961" points="66,137 120,91 50,100" />
<polygon fill="#fffad3" fill-opacity="0.501961" points="79,72 82,83 87,78" />
<polygon fill="#8a7f75" fill-opacity="0.501961" points="147,70 105,65 96,86" />
<polygon fill="#2b1f04" fill-opacity="0.501961" points="181,81 170,76 172,88" />
<polygon fill="#171909" fill-opacity="0.501961" points="47,93 48,28 69,16" />
<polygon fill="#7dd600" fill-opacity="0.501961" points="45,33 48,30 42,22" />
<polygon fill="#d1ac73" fill-opacity="0.501961" points="166,84 177,70 168,60" />
<polygon fill="#010504" fill-opacity="0.501961" points="34,6 27,34 26,-4" />
<polygon fill="#302a22" fill-opacity="0.501961" points="109,48 129,71 128,56" />
<polygon fill="#322617" fill-opacity="0.501961" points="55,106 80,47 91,64" />
<polygon fill="#000000" fill-opacity="0.501961" points="77,106 89,136 138,132" />
<polygon fill="#060a02" fill-opacity="0.501961" points="240,57 251,91 250,64" />
</g>
</svg>