<svg xmlns="http://www.w3.org/2000/svg" version="1.1" width="1024" height="680">
<rect x="0" y="0" width="1024" height="680" fill="#5d5243" />
<g transform="scale(4.000000) translate(0.5 0.5)">
<polygon fill="#fff2d3" fill-opacity="0.501961" points="211,11 -16,19 121,62" />
<polygon fill="#150b04" fill-opacity="0.501961" points="86,23 -16,164 165,185" />
<polygon fill="#e9bf86" fill-opacity="0.501961" points="131,185 181,126 254,147" />
<polygon fill="#ffffff" fill-opacity="0.501961" points="24,69 12,18 -16,48" />
<polygon fill="#130f07" fill-opacity="0.501961" points="63,88 266,70 247,142" />
<polygon fill="#fc9d95" fill-opacity="0.501961" points="87,146 28,137 29,116" />
<polygon fill="#e7cfb9" fill-opacity="0.501961" points="108,22 208,20 97,70" />
<polygon fill="#000000" fill-opacity="0.501961" points="159,124 12,168 129,185" />
<polygon fill="#d2c8ad" fill-opacity="0.501961" points="26,12 80,19 48,65" />
<polygon fill="#736142" fill-opacity="0.501961" points="102,155 114,54 154,37" />
<polygon fill="#cfb59c" fill-opacity="0.501961" points="188,145 202,123 190,83" />
<polygon fill="#efc687" fill-opacity="0.501961" points="68,121 96,123 97,142" />
<polygon fill="#ceb59d" fill-opacity="0.501961" points="214,47 249,42 244,76" />
<polygon fill="#000e14" fill-opacity="0.501961" points="-16,77 5,144 43,95" />
<polygon fill="#ffedc5" fill-opacity="0.501961" points="201,40 192,63 187,37" />
<polygon fill="#0e0d0a" fill-opacity="0.501961" points="192,21 271,4 218,-16" />
<polygon fill="#ad9c88" fill-opacity="0.501961" points="58,105 15,59 64,87" />
<polygon fill="#dbc1a6" fill-opacity="0.501961" points="213,142 216,164 271,132" />
<polygon fill="#0e1213" fill-opacity="0.501961" points="191,52 178,127 118,98" />
<polygon fill="#856958" fill-opacity="0.501961" points="108,9 107,48 42,6" />
<polygon fill="#795d34" fill-opacity="0.501961" points="229,183 132,185 164,120" />
<polygon fill="#5e83ad" fill-opacity="0.501961" points="-16,160 3,134 17,179" />
<polygon fill="#ffffff" fill-opacity="0.501961" points="64,50 40,60 41,52" />
<polygon fill="#000200" fill-opacity="0.501961" points="271,132 215,114 242,86" />
<polygon fill="#fffff5" fill-opacity="0.501961" points="270,178 234,185 271,138" />
<polygon fill="#5a5027" fill-opacity="0.501961" points="27,41 107,40 92,58" />
<polygon fill="#0f0800" fill-opacity="0.501961" points="51,126 79,45 102,103" />
<polygon fill="#b5a37a" fill-opacity="0.501961" points="126,105 147,127 145,106" />
<polygon fill="#90796b" fill-opacity="0.501961" points="217,18 95,17 164,-1" />
<polygon fill="#0f0c00" fill-opacity="0.501961" points="88,181 131,119 174,142" />
<polygon fill="#211d20" fill-opacity="0.501961" points="271,57 271,29 195,30" />
<polygon fill="#d2c4b3" fill-opacity="0.501961" points="-8,47 16,12 19,78" />
<polygon fill="#67716e" fill-opacity="0.501961" points="172,36 101,70 176,77" />
<polygon fill="#faf0eb" fill-opacity="0.501961" points="97,56 122,21 136,38" />
<polygon fill="#818dcc" fill-opacity="0.501961" points="246,9 271,25 240,30" />
<polygon fill="#7e5b37" fill-opacity="0.501961" points="118,146 71,152 95,123" />
<polygon fill="#e5cba3" fill-opacity="0.501961" points="166,127 192,124 227,147" />
<polygon fill="#070002" fill-opacity="0.501961" points="43,185 91,180 54,127" />
<polygon fill="#3d470a" fill-opacity="0.501961" points="60,95 8,32 38,39" />
<polygon fill="#181104" fill-opacity="0.501961" points="38,10 31,-11 -11,5" />
<polygon fill="#fde7cf" fill-opacity="0.501961" points="173,106 174,112 185,106" />
<polygon fill="#e9d8ce" fill-opacity="0.501961" points="62,42 39,10 80,26" />
<polygon fill="#221a16" fill-opacity="0.501961" points="256,139 213,181 271,153" />
<polygon fill="#000d18" fill-opacity="0.501961" points="16,164 55,185 -7,97" />
<polygon fill="#0c0a00" fill-opacity="0.501961" points="195,126 142,118 172,108" />
<polygon fill="#967a6e" fill-opacity="0.501961" points="20,113 28,144 64,132" />
<polygon fill="#dcc9b5" fill-opacity="0.501961" points="189,15 157,49 93,23" />
<polygon fill="#80623f" fill-opacity="0.501961" points="137,87 137,32 106,104" />
<polygon fill="#ad927d" fill-opacity="0.501961" points="22,67 11,24 53,97" />
<polygon fill="#181209" fill-opacity="0.501961" points="20,116 121,76 62,126" />
<polygon fill="#453629" fill-opacity="0.501961" points="226,67 192,69 224,1" />
<polygon fill="#7f6742" fill-opacity="0.501961" points="65,39 74,64 98,25" />
<polygon fill="#131404" fill-opacity="0.501961" points="142,137 128,117 84,121" />
<polygon fill="#f3dcbd" fill-opacity="0.501961" points="21,29 12,12 38,22" />
<polygon fill="#ae9b8c" fill-opacity="0.501961" points="218,71 240,73 250,41" />
<polygon fill="#4b4b4c" fill-opacity="0.501961" points="154,43 179,70 118,54" />
<polygon fill="#b2816d" fill-opacity="0.501961" points="223,94 204,99 234,100" />
<polygon fill="#e8ae9f" fill-opacity="0.501961" points="219,111 211,105 201,108" />
<polygon fill="#c3b099" fill-opacity="0.501961" points="49,43 39,50 60,84" />
<polygon fill="#050709" fill-opacity="0.501961" points="178,43 176,83 197,88" />
<polygon fill="#151109" fill-opacity="0.501961" points="225,140 186,122 262,132" />
<polygon fill="#191412" fill-opacity="0.501961" points="122,7 73,-1 122,-16" />
<polygon fill="#fd6f77" fill-opacity="0.501961" points="69,147 80,145 53,128" />
<polygon fill="#d2b586" fill-opacity="0.501961" points="99,52 99,71 124,66" />
<polygon fill="#0f1a18" fill-opacity="0.501961" points="251,42 268,93 247,75" />
<polygon fill="#e9e8e3" fill-opacity="0.501961" points="5,29 4,58 25,65" />
<polygon fill="#b49874" fill-opacity="0.501961" points="214,64 226,51 215,37" />
<polygon fill="#8d8174" fill-opacity="0.501961" points="66,118 73,127 102,113" />
<polygon fill="#2b404b" fill-opacity="0.501961" points="6,107 46,185 47,144" />
<polygon fill="#79623c" fill-opacity="0.501961" points="176,153 148,121 177,125" />
<polygon fill="#9b7d55" fill-opacity="0.501961" points="138,185 248,150 145,154" />
<polygon fill="#000000" fill-opacity="0.501961" points="52,93 49,74 58,93" />
<polygon fill="#17150d" fill-opacity="0.501961" points="43,125 38,70 29,107" />
<polygon fill="#000000" fill-opacity="0.501961" points="143,149 131,184 55,161" />
<polygon fill="#030200" fill-opacity="0.501961" points="72,99 124,106 98,113" />
<polygon fill="#6d5545" fill-opacity="0.501961" points="200,60 189,-16 212,0" />
<polygon fill="#dfa48e" fill-opacity="0.501961" points="31,129 30,115 53,135" />
<polygon fill="#ac8d72" fill-opacity="0.501961" points="194,122 206,121 185,97" />
<polygon fill="#392e25" fill-opacity="0.501961" points="33,121 27,65 14,113" />
<polygon fill="#e8d7c1" fill-opacity="0.501961" points="152,9 133,22 174,30" />
<polygon fill="#917b63" fill-opacity="0.501961" points="126,25 165,8 102,10" />
<polygon fill="#2b1e11" fill-opacity="0.501961" points="95,33 60,81 103,98" />
<polygon fill="#7ba5b9" fill-opacity="0.501961" points="137,69 150,74 141,59" />
<polygon fill="#775d40" fill-opacity="0.501961" points="88,26 101,37 90,66" />
<polygon fill="#175600" fill-opacity="0.501961" points="29,55 42,43 16,27" />
<polygon fill="#e8cca3" fill-opacity="0.501961" points="122,114 106,113 120,118" />
<polygon fill="#12130c" fill-opacity="0.501961" points="131,64 173,104 146,97" />
<polygon fill="#c5ac87" fill-opacity="0.501961" points="77,33 83,53 85,43" />
<polygon fill="#fbead3" fill-opacity="0.501961" points="218,140 240,140 247,148" />
<polygon fill="#a68c6d" fill-opacity="0.501961" points="48,103 61,87 63,100" />
<polygon fill="#ffffff" fill-opacity="0.501961" points="43,52 42,59 60,50" />
<polygon fill="#3b3020" fill-opacity="0.501961" points="-5,16 10,23 3,-11" />
<polygon fill="#a9ab5f" fill-opacity="0.501961" points="28,34 53,40 37,13" />
<polygon fill="#706c58" fill-opacity="0.501961" points="22,72 22,101 -7,49" />
<polygon fill="#eadcd2" fill-opacity="0.501961" points="43,77 47,90 40,85" />
<polygon fill="#11150c" fill-opacity="0.501961" points="207,19 248,11 271,-15" />
<polygon fill="#1f1407" fill-opacity="0.501961" points="97,112 118,74 103,66" />
<polygon fill="#4c3622" fill-opacity="0.501961" points="26,64 58,82 46,57" />
<polygon fill="#746e66" fill-opacity="0.501961" points="-16,45 0,64 3,18" />
<polygon fill="#5a5b5d" fill-opacity="0.501961" points="182,110 191,82 204,93" />
</g>
</svg>