<svg xmlns="http://www.w3.org/2000/svg" version="1.1" width="1024" height="680">
<rect x="0" y="0" width="1024" height="680" fill="#544738" />
<g transform="scale(4.000000) translate(0.5 0.5)">
<polygon fill="#c3a87f" fill-opacity="0.501961" points="-16,31 126,124 271,26" />
<polygon fill="#000000" fill-opacity="0.501961" points="-1,185 5,74 271,167" />
<polygon fill="#14181b" fill-opacity="0.501961" points="150,51 39,88 151,85" />
<polygon fill="#e6cc93" fill-opacity="0.501961" points="141,10 165,46 83,25" />
<polygon fill="#08060c" fill-opacity="0.501961" points="271,81 263,185 170,81" />
<polygon fill="#ffe7c9" fill-opacity="0.501961" points="64,111 126,99 85,87" />
<polygon fill="#d9b58c" fill-opacity="0.501961" points="247,29 173,82 265,61" />
<polygon fill="#000001" fill-opacity="0.501961" points="102,31 -16,21 7,-16" />
<polygon fill="#b58f64" fill-opacity="0.501961" points="135,145 152,185 102,162" />
<polygon fill="#edd8bf" fill-opacity="0.501961" points="200,45 161,35 221,22" />
<polygon fill="#232323" fill-opacity="0.501961" points="223,94 207,-10 235,-5" />
<polygon fill="#0c0b09" fill-opacity="0.501961" points="-16,86 96,168 70,76" />
<polygon fill="#070303" fill-opacity="0.501961" points="52,138 149,151 215,101" />
<polygon fill="#fffff2" fill-opacity="0.501961" points="177,96 161,86 130,93" />
<polygon fill="#f5f0e9" fill-opacity="0.501961" points="245,5 268,11 232,16" />
<polygon fill="#6d665d" fill-opacity="0.501961" points="69,120 54,95 142,122" />
<polygon fill="#141513" fill-opacity="0.501961" points="237,15 148,-10 162,31" />
<polygon fill="#d3ffff" fill-opacity="0.501961" points="116,66 125,56 100,61" />
<polygon fill="#a37f4f" fill-opacity="0.501961" points="120,77 12,24 22,77" />
<polygon fill="#987050" fill-opacity="0.501961" points="251,124 204,146 152,135" />
<polygon fill="#ffefbf" fill-opacity="0.501961" points="202,84 185,69 212,61" />
<polygon fill="#1c0f00" fill-opacity="0.501961" points="207,47 183,49 201,66" />
<polygon fill="#727499" fill-opacity="0.501961" points="256,112 232,88 218,100" />
<polygon fill="#ffffff" fill-opacity="0.501961" points="103,19 98,10 97,34" />
<polygon fill="#3a2b12" fill-opacity="0.501961" points="23,36 61,43 112,-16" />
<polygon fill="#ffd796" fill-opacity="0.501961" points="78,61 63,45 89,44" />
<polygon fill="#635c57" fill-opacity="0.501961" points="98,105 186,91 141,129" />
<polygon fill="#ffeac8" fill-opacity="0.501961" points="177,36 177,55 200,33" />
<polygon fill="#e1c19d" fill-opacity="0.501961" points="150,31 157,67 184,80" />
<polygon fill="#ffffff" fill-opacity="0.501961" points="229,37 252,32 241,42" />
<polygon fill="#090000" fill-opacity="0.501961" points="271,38 233,84 271,108" />
<polygon fill="#000000" fill-opacity="0.501961" points="145,185 142,131 198,158" />
<polygon fill="#1b1307" fill-opacity="0.501961" points="167,78 206,83 216,151" />
<polygon fill="#8a6243" fill-opacity="0.501961" points="212,120 206,185 192,120" />
<polygon fill="#caaf7a" fill-opacity="0.501961" points="168,40 114,46 120,10" />
<polygon fill="#f6d1a7" fill-opacity="0.501961" points="206,43 209,77 218,26" />
<polygon fill="#fff5d5" fill-opacity="0.501961" points="113,97 86,104 68,96" />
<polygon fill="#c7b199" fill-opacity="0.501961" points="182,92 127,84 175,110" />
<polygon fill="#2e3946" fill-opacity="0.501961" points="109,44 136,64 92,50" />
<polygon fill="#332c20" fill-opacity="0.501961" points="118,88 152,30 150,79" />
<polygon fill="#0c0904" fill-opacity="0.501961" points="118,105 75,107 95,119" />
<polygon fill="#000000" fill-opacity="0.501961" points="136,142 142,100 120,142" />
<polygon fill="#dfc7a5" fill-opacity="0.501961" points="61,46 48,35 47,22" />
<polygon fill="#050000" fill-opacity="0.501961" points="248,185 209,144 271,148" />
<polygon fill="#62574c" fill-opacity="0.501961" points="100,185 33,184 55,151" />
<polygon fill="#cea46f" fill-opacity="0.501961" points="260,47 240,52 222,88" />
<polygon fill="#43311a" fill-opacity="0.501961" points="173,62 185,54 189,85" />
<polygon fill="#0a0c0d" fill-opacity="0.501961" points="22,-16 -16,105 -16,-16" />
<polygon fill="#46200e" fill-opacity="0.501961" points="246,50 230,51 263,32" />
<polygon fill="#4f4641" fill-opacity="0.501961" points="217,23 210,106 234,89" />
<polygon fill="#0e0a03" fill-opacity="0.501961" points="-2,74 11,119 81,87" />
<polygon fill="#fffdd1" fill-opacity="0.501961" points="225,136 219,133 211,137" />
<polygon fill="#4b4946" fill-opacity="0.501961" points="25,156 35,128 -16,112" />
<polygon fill="#9e998e" fill-opacity="0.501961" points="70,120 86,119 72,107" />
<polygon fill="#030303" fill-opacity="0.501961" points="94,116 30,144 150,137" />
<polygon fill="#514533" fill-opacity="0.501961" points="179,52 163,-6 119,-6" />
<polygon fill="#97b9d2" fill-opacity="0.501961" points="103,76 121,74 94,69" />
<polygon fill="#3f361f" fill-opacity="0.501961" points="44,81 50,64 36,52" />
<polygon fill="#6f5b47" fill-opacity="0.501961" points="81,94 94,18 104,92" />
<polygon fill="#d2fcff" fill-opacity="0.501961" points="121,67 99,58 118,58" />
<polygon fill="#d0b79d" fill-opacity="0.501961" points="112,84 100,88 124,108" />
<polygon fill="#8e8579" fill-opacity="0.501961" points="139,81 103,117 120,125" />
<polygon fill="#c78e41" fill-opacity="0.501961" points="88,59 66,30 93,30" />
<polygon fill="#645640" fill-opacity="0.501961" points="147,-13 98,0 106,30" />
<polygon fill="#ad7c39" fill-opacity="0.501961" points="5,27 32,26 34,82" />
<polygon fill="#46362d" fill-opacity="0.501961" points="227,7 271,36 213,21" />
<polygon fill="#24211b" fill-opacity="0.501961" points="96,22 56,35 52,-6" />
<polygon fill="#23211b" fill-opacity="0.501961" points="23,58 -16,52 -13,102" />
<polygon fill="#62635d" fill-opacity="0.501961" points="144,48 98,55 151,65" />
<polygon fill="#362a18" fill-opacity="0.501961" points="57,55 62,69 69,53" />
<polygon fill="#080805" fill-opacity="0.501961" points="146,118 179,108 153,133" />
<polygon fill="#b2ae9d" fill-opacity="0.501961" points="90,70 57,59 45,72" />
<polygon fill="#3e3019" fill-opacity="0.501961" points="149,82 166,79 168,68" />
<polygon fill="#8d8277" fill-opacity="0.501961" points="133,113 157,116 163,96" />
<polygon fill="#ffdba9" fill-opacity="0.501961" points="211,79 204,71 213,45" />
<polygon fill="#a39072" fill-opacity="0.501961" points="9,75 45,72 32,60" />
<polygon fill="#0a0000" fill-opacity="0.501961" points="127,95 130,82 123,87" />
<polygon fill="#1a1b1a" fill-opacity="0.501961" points="259,-15 210,25 151,21" />
<polygon fill="#573b22" fill-opacity="0.501961" points="243,125 184,175 271,134" />
<polygon fill="#020100" fill-opacity="0.501961" points="217,95 185,83 178,110" />
<polygon fill="#b8a171" fill-opacity="0.501961" points="165,30 99,30 130,49" />
<polygon fill="#0f2e47" fill-opacity="0.501961" points="99,64 103,72 129,67" />
<polygon fill="#a36b48" fill-opacity="0.501961" points="137,121 155,134 147,134" />
<polygon fill="#0b0807" fill-opacity="0.501961" points="140,87 139,62 151,78" />
<polygon fill="#e9ad78" fill-opacity="0.501961" points="192,64 181,77 200,82" />
<polygon fill="#a78b6d" fill-opacity="0.501961" points="105,158 118,153 120,172" />
<polygon fill="#527f98" fill-opacity="0.501961" points="2,99 -16,80 3,133" />
<polygon fill="#4a4023" fill-opacity="0.501961" points="204,62 210,45 186,42" />
<polygon fill="#0c000b" fill-opacity="0.501961" points="141,157 198,185 197,138" />
<polygon fill="#f3dec6" fill-opacity="0.501961" points="145,87 169,93 125,95" />
<polygon fill="#ffe5b3" fill-opacity="0.501961" points="84,58 76,48 68,60" />
<polygon fill="#4d391d" fill-opacity="0.501961" points="51,79 76,73 43,72" />
<polygon fill="#d7bd9e" fill-opacity="0.501961" points="175,29 182,58 199,26" />
<polygon fill="#fffcf6" fill-opacity="0.501961" points="241,15 241,8 257,8" />
<polygon fill="#7f7c7b" fill-opacity="0.501961" points="102,78 102,44 85,77" />
<polygon fill="#0f0a02" fill-opacity="0.501961" points="136,116 137,100 143,98" />
<polygon fill="#797469" fill-opacity="0.501961" points="234,13 257,12 246,19" />
<polygon fill="#5a3f11" fill-opacity="0.501961" points="21,45 42,26 19,36" />
<polygon fill="#4b3c2b" fill-opacity="0.501961" points="88,68 60,60 92,60" />
<polygon fill="#040000" fill-opacity="0.501961" points="36,99 32,81 79,77" />
</g>
</svg>