<svg xmlns="http://www.w3.org/2000/svg" version="1.1" width="1024" height="680">
<rect x="0" y="0" width="1024" height="680" fill="#544a36" />
<g transform="scale(4.000000) translate(0.5 0.5)">
<polygon fill="#fff0c5" fill-opacity="0.501961" points="70,87 75,38 190,62" />
<polygon fill="#ccdcdf" fill-opacity="0.501961" points="211,97 225,-16 248,94" />
<polygon fill="#f7d0a1" fill-opacity="0.501961" points="175,38 161,148 137,42" />
<polygon fill="#1c0d00" fill-opacity="0.501961" points="233,185 -9,108 271,94" />
<polygon fill="#311e03" fill-opacity="0.501961" points="149,180 -16,174 135,54" />
<polygon fill="#b6c4b8" fill-opacity="0.501961" points="-16,134 30,133 55,93" />
<polygon fill="#181810" fill-opacity="0.501961" points="177,80 157,-16 229,83" />
<polygon fill="#c1e3f9" fill-opacity="0.501961" points="219,32 260,43 218,73" />
<polygon fill="#c09f6b" fill-opacity="0.501961" points="146,100 152,166 174,119" />
<polygon fill="#0d3956" fill-opacity="0.501961" points="271,95 235,43 227,82" />
<polygon fill="#f9c07c" fill-opacity="0.501961" points="220,-16 190,12 248,8" />
<polygon fill="#a15907" fill-opacity="0.501961" points="95,165 21,153 114,123" />
<polygon fill="#0d0d0b" fill-opacity="0.501961" points="73,40 10,-13 141,32" />
<polygon fill="#001725" fill-opacity="0.501961" points="90,125 -4,117 134,90" />
<polygon fill="#fffff5" fill-opacity="0.501961" points="250,91 211,96 207,83" />
<polygon fill="#f5ffff" fill-opacity="0.501961" points="8,37 2,61 -16,23" />
<polygon fill="#dfbe9c" fill-opacity="0.501961" points="91,47 64,78 137,88" />
<polygon fill="#fbead0" fill-opacity="0.501961" points="155,41 141,74 175,86" />
<polygon fill="#000318" fill-opacity="0.501961" points="-16,169 7,139 52,169" />
<polygon fill="#1c150a" fill-opacity="0.501961" points="270,185 271,104 20,185" />
<polygon fill="#211100" fill-opacity="0.501961" points="215,12 240,31 271,15" />
<polygon fill="#d5b78e" fill-opacity="0.501961" points="19,118 -16,127 55,139" />
<polygon fill="#1a0800" fill-opacity="0.501961" points="141,83 173,102 80,103" />
<polygon fill="#2a4340" fill-opacity="0.501961" points="11,126 83,59 -16,41" />
<polygon fill="#ffffff" fill-opacity="0.501961" points="42,107 36,99 52,96" />
<polygon fill="#1e2117" fill-opacity="0.501961" points="183,15 228,33 176,67" />
<polygon fill="#b26822" fill-opacity="0.501961" points="166,50 194,102 172,100" />
<polygon fill="#8b9693" fill-opacity="0.501961" points="205,23 271,77 271,35" />
<polygon fill="#2e281c" fill-opacity="0.501961" points="134,13 83,33 139,55" />
<polygon fill="#ffffff" fill-opacity="0.501961" points="222,71 233,30 220,44" />
<polygon fill="#9b7b55" fill-opacity="0.501961" points="124,4 115,26 54,-16" />
<polygon fill="#576c77" fill-opacity="0.501961" points="44,58 15,97 58,97" />
<polygon fill="#0f2513" fill-opacity="0.501961" points="32,43 3,103 11,25" />
<polygon fill="#aca377" fill-opacity="0.501961" points="49,141 50,159 26,152" />
<polygon fill="#ff7903" fill-opacity="0.501961" points="65,108 60,96 52,109" />
<polygon fill="#a88b5f" fill-opacity="0.501961" points="173,128 150,116 157,164" />
<polygon fill="#816e53" fill-opacity="0.501961" points="86,83 158,90 157,66" />
<polygon fill="#242306" fill-opacity="0.501961" points="60,55 78,111 43,73" />
<polygon fill="#533517" fill-opacity="0.501961" points="225,76 251,87 193,84" />
<polygon fill="#cde3e6" fill-opacity="0.501961" points="-16,68 1,75 12,70" />
<polygon fill="#ffffff" fill-opacity="0.501961" points="-3,118 11,129 5,136" />
<polygon fill="#e4caa9" fill-opacity="0.501961" points="110,81 67,75 107,43" />
<polygon fill="#7b5d2f" fill-opacity="0.501961" points="71,91 104,96 87,74" />
<polygon fill="#003563" fill-opacity="0.501961" points="235,55 235,79 255,58" />
<polygon fill="#43595c" fill-opacity="0.501961" points="45,7 52,80 -2,-11" />
<polygon fill="#2f1100" fill-opacity="0.501961" points="271,116 169,96 183,135" />
<polygon fill="#ffffff" fill-opacity="0.501961" points="75,78 70,71 72,94" />
<polygon fill="#decbb7" fill-opacity="0.501961" points="46,124 13,127 14,118" />
<polygon fill="#000c13" fill-opacity="0.501961" points="36,129 75,137 124,99" />
<polygon fill="#5b6363" fill-opacity="0.501961" points="216,66 194,53 225,25" />
<polygon fill="#0c0500" fill-opacity="0.501961" points="15,100 -3,108 -6,59" />
<polygon fill="#a08a6a" fill-opacity="0.501961" points="47,54 49,33 71,41" />
<polygon fill="#947034" fill-opacity="0.501961" points="5,135 72,139 28,124" />
<polygon fill="#703800" fill-opacity="0.501961" points="218,108 194,122 186,71" />
<polygon fill="#a66422" fill-opacity="0.501961" points="88,135 117,104 115,119" />
<polygon fill="#ffffff" fill-opacity="0.501961" points="4,59 -16,68 -13,-3" />
<polygon fill="#463923" fill-opacity="0.501961" points="201,11 144,-3 109,55" />
<polygon fill="#f4b549" fill-opacity="0.501961" points="224,19 233,29 205,26" />
<polygon fill="#79a0b1" fill-opacity="0.501961" points="20,5 12,16 -16,14" />
<polygon fill="#96b1c2" fill-opacity="0.501961" points="4,107 17,111 16,103" />
<polygon fill="#080200" fill-opacity="0.501961" points="149,185 124,132 90,179" />
<polygon fill="#ffffeb" fill-opacity="0.501961" points="211,94 241,95 226,85" />
<polygon fill="#11120f" fill-opacity="0.501961" points="47,13 44,38 90,22" />
<polygon fill="#4f4235" fill-opacity="0.501961" points="131,83 140,35 109,83" />
<polygon fill="#ffffff" fill-opacity="0.501961" points="7,35 -4,33 1,44" />
<polygon fill="#a7b4b4" fill-opacity="0.501961" points="219,73 237,49 224,86" />
<polygon fill="#887028" fill-opacity="0.501961" points="83,64 73,43 63,74" />
<polygon fill="#fffffa" fill-opacity="0.501961" points="149,67 155,53 169,74" />
<polygon fill="#04353b" fill-opacity="0.501961" points="79,123 24,119 17,99" />
<polygon fill="#222115" fill-opacity="0.501961" points="175,79 186,13 209,87" />
<polygon fill="#cea575" fill-opacity="0.501961" points="156,35 139,40 137,87" />
<polygon fill="#302a1f" fill-opacity="0.501961" points="163,42 233,11 85,31" />
<polygon fill="#b0946b" fill-opacity="0.501961" points="150,31 175,46 174,82" />
<polygon fill="#8e7040" fill-opacity="0.501961" points="242,14 196,1 150,14" />
<polygon fill="#76899b" fill-opacity="0.501961" points="236,97 250,96 254,55" />
<polygon fill="#ffffff" fill-opacity="0.501961" points="227,35 218,49 225,73" />
<polygon fill="#7a9aa5" fill-opacity="0.501961" points="45,29 25,35 27,26" />
<polygon fill="#534530" fill-opacity="0.501961" points="200,136 266,128 254,144" />
<polygon fill="#bf6b1f" fill-opacity="0.501961" points="173,86 181,106 197,79" />
<polygon fill="#ebc08f" fill-opacity="0.501961" points="226,-16 231,4 203,10" />
<polygon fill="#e4edf8" fill-opacity="0.501961" points="18,75 20,81 22,73" />
<polygon fill="#280500" fill-opacity="0.501961" points="252,115 256,20 271,66" />
<polygon fill="#5c4c31" fill-opacity="0.501961" points="170,161 131,108 147,163" />
<polygon fill="#833200" fill-opacity="0.501961" points="-8,103 13,111 1,122" />
<polygon fill="#cdb190" fill-opacity="0.501961" points="116,80 77,46 113,41" />
<polygon fill="#230e00" fill-opacity="0.501961" points="148,121 127,86 147,85" />
<polygon fill="#000000" fill-opacity="0.501961" points="235,97 238,129 214,122" />
<polygon fill="#512500" fill-opacity="0.501961" points="122,91 91,166 116,157" />
<polygon fill="#001200" fill-opacity="0.501961" points="-16,19 -16,33 24,30" />
<polygon fill="#1d1e0e" fill-opacity="0.501961" points="44,143 -10,162 -12,131" />
<polygon fill="#09262b" fill-opacity="0.501961" points="105,100 87,135 69,93" />
<polygon fill="#17232e" fill-opacity="0.501961" points="217,60 215,87 204,70" />
<polygon fill="#336d73" fill-opacity="0.501961" points="54,105 51,117 26,112" />
<polygon fill="#4f2300" fill-opacity="0.501961" points="90,165 52,161 50,138" />
<polygon fill="#713801" fill-opacity="0.501961" points="248,120 253,94 231,108" />
<polygon fill="#030d09" fill-opacity="0.501961" points="105,116 75,137 31,129" />
<polygon fill="#fff8e4" fill-opacity="0.501961" points="159,79 171,70 148,78" />
<polygon fill="#2c2619" fill-opacity="0.501961" points="249,3 225,19 267,35" />
<polygon fill="#4f3100" fill-opacity="0.501961" points="23,28 12,18 37,17" />
<polygon fill="#2d332d" fill-opacity="0.501961" points="-2,65 35,44 34,78" />
</g>
</svg>