<svg xmlns="http://www.w3.org/2000/svg" version="1.1" width="1024" height="576">
<rect x="0" y="0" width="1024" height="576" fill="#3d3d31" />
<g transform="scale(4.000000) translate(0.5 0.5)">
<polygon fill="#d4cebe" fill-opacity="0.501961" points="134,22 184,122 76,96" />
<polygon fill="#fffff8" fill-opacity="0.501961" points="208,94 210,53 158,126" />
<polygon fill="#000000" fill-opacity="0.501961" points="-9,31 86,33 -8,159" />
<polygon fill="#000000" fill-opacity="0.501961" points="271,146 271,55 137,147" />
<polygon fill="#e4ded2" fill-opacity="0.501961" points="102,97 69,59 146,49" />
<polygon fill="#090903" fill-opacity="0.501961" points="147,80 135,154 -16,143" />
<polygon fill="#73795c" fill-opacity="0.501961" points="242,75 231,12 7,16" />
<polygon fill="#000000" fill-opacity="0.501961" points="151,53 96,36 185,30" />
<polygon fill="#d2d7dc" fill-opacity="0.501961" points="134,112 214,88 173,125" />
<polygon fill="#000000" fill-opacity="0.501961" points="195,87 155,99 176,53" />
<polygon fill="#080900" fill-opacity="0.501961" points="164,-16 271,16 55,11" />
<polygon fill="#bbc5cc" fill-opacity="0.501961" points="80,115 90,123 114,83" />
<polygon fill="#c8ba94" fill-opacity="0.501961" points="41,109 4,115 47,95" />
<polygon fill="#000000" fill-opacity="0.501961" points="7,-16 -16,13 111,12" />
<polygon fill="#fff6ea" fill-opacity="0.501961" points="156,72 150,51 111,51" />
<polygon fill="#0a0700" fill-opacity="0.501961" points="18,128 58,89 95,86" />
<polygon fill="#000405" fill-opacity="0.501961" points="236,-14 271,4 248,130" />
<polygon fill="#000000" fill-opacity="0.501961" points="271,102 51,141 248,159" />
<polygon fill="#959c8b" fill-opacity="0.501961" points="210,43 252,24 141,25" />
<polygon fill="#000000" fill-opacity="0.501961" points="-7,26 88,40 -3,128" />
<polygon fill="#7d765d" fill-opacity="0.501961" points="80,89 50,72 158,24" />
<polygon fill="#707679" fill-opacity="0.501961" points="128,114 166,134 181,118" />
<polygon fill="#b4a77a" fill-opacity="0.501961" points="90,44 74,25 120,24" />
<polygon fill="#000000" fill-opacity="0.501961" points="2,102 -16,159 84,159" />
<polygon fill="#403815" fill-opacity="0.501961" points="135,88 110,81 139,66" />
<polygon fill="#000000" fill-opacity="0.501961" points="157,60 198,60 166,101" />
<polygon fill="#f6ecdb" fill-opacity="0.501961" points="193,98 149,99 148,121" />
<polygon fill="#0d0c00" fill-opacity="0.501961" points="214,79 254,72 190,119" />
<polygon fill="#000000" fill-opacity="0.501961" points="139,51 180,35 137,33" />
<polygon fill="#dddfe1" fill-opacity="0.501961" points="98,97 135,50 88,74" />
<polygon fill="#cdc09b" fill-opacity="0.501961" points="53,104 22,111 43,98" />
<polygon fill="#809974" fill-opacity="0.501961" points="58,19 84,31 16,29" />
<polygon fill="#000516" fill-opacity="0.501961" points="219,41 207,60 242,50" />
<polygon fill="#61635b" fill-opacity="0.501961" points="47,115 70,129 35,132" />
<polygon fill="#b7c1cc" fill-opacity="0.501961" points="164,52 153,77 133,78" />
<polygon fill="#343524" fill-opacity="0.501961" points="128,147 151,76 125,85" />
<polygon fill="#7d7662" fill-opacity="0.501961" points="198,52 176,15 172,65" />
<polygon fill="#94907d" fill-opacity="0.501961" points="71,59 43,90 107,50" />
<polygon fill="#667c85" fill-opacity="0.501961" points="220,53 246,69 214,79" />
<polygon fill="#000000" fill-opacity="0.501961" points="98,60 94,68 83,67" />
<polygon fill="#c1b692" fill-opacity="0.501961" points="181,102 202,78 202,58" />
<polygon fill="#000001" fill-opacity="0.501961" points="186,90 198,59 155,63" />
<polygon fill="#241d00" fill-opacity="0.501961" points="90,113 156,104 99,132" />
<polygon fill="#000000" fill-opacity="0.501961" points="88,32 37,31 -16,121" />
<polygon fill="#000700" fill-opacity="0.501961" points="21,0 -16,-10 7,37" />
<polygon fill="#d8dad9" fill-opacity="0.501961" points="110,97 99,79 97,108" />
<polygon fill="#1e2724" fill-opacity="0.501961" points="85,72 83,106 92,81" />
<polygon fill="#000000" fill-opacity="0.501961" points="74,116 73,81 53,123" />
<polygon fill="#66572f" fill-opacity="0.501961" points="138,51 86,43 137,14" />
<polygon fill="#35380c" fill-opacity="0.501961" points="56,16 73,25 27,22" />
<polygon fill="#364137" fill-opacity="0.501961" points="237,12 232,51 271,14" />
<polygon fill="#ccc2ae" fill-opacity="0.501961" points="197,51 210,81 207,54" />
<polygon fill="#8f9370" fill-opacity="0.501961" points="171,13 195,31 137,30" />
<polygon fill="#000000" fill-opacity="0.501961" points="119,47 111,45 116,33" />
<polygon fill="#4a5c6e" fill-opacity="0.501961" points="93,73 98,85 102,75" />
<polygon fill="#000406" fill-opacity="0.501961" points="93,46 35,37 41,77" />
<polygon fill="#4d616f" fill-opacity="0.501961" points="193,100 216,116 208,88" />
<polygon fill="#000505" fill-opacity="0.501961" points="210,53 220,50 210,84" />
<polygon fill="#9bafb4" fill-opacity="0.501961" points="208,25 212,42 230,26" />
<polygon fill="#6a4705" fill-opacity="0.501961" points="162,89 180,98 147,97" />
<polygon fill="#cdc6b3" fill-opacity="0.501961" points="189,112 157,107 196,85" />
<polygon fill="#555038" fill-opacity="0.501961" points="208,47 166,32 208,27" />
<polygon fill="#656a69" fill-opacity="0.501961" points="170,128 174,115 126,118" />
<polygon fill="#94a1ab" fill-opacity="0.501961" points="93,89 83,99 73,98" />
<polygon fill="#ccc7b8" fill-opacity="0.501961" points="162,96 159,110 136,101" />
<polygon fill="#9f9f90" fill-opacity="0.501961" points="61,111 47,115 37,127" />
<polygon fill="#060000" fill-opacity="0.501961" points="25,63 48,95 38,100" />
<polygon fill="#000000" fill-opacity="0.501961" points="202,159 83,137 271,122" />
<polygon fill="#858b7d" fill-opacity="0.501961" points="140,24 121,16 169,16" />
<polygon fill="#121100" fill-opacity="0.501961" points="262,14 189,8 260,-16" />
<polygon fill="#697661" fill-opacity="0.501961" points="229,22 208,13 251,15" />
<polygon fill="#1c1700" fill-opacity="0.501961" points="43,132 19,126 41,106" />
<polygon fill="#e5d8c5" fill-opacity="0.501961" points="135,70 112,73 110,51" />
<polygon fill="#000000" fill-opacity="0.501961" points="168,34 128,31 173,47" />
<polygon fill="#393319" fill-opacity="0.501961" points="124,133 101,103 141,100" />
<polygon fill="#807755" fill-opacity="0.501961" points="43,87 68,63 53,92" />
<polygon fill="#000000" fill-opacity="0.501961" points="179,94 189,88 192,77" />
<polygon fill="#0b0800" fill-opacity="0.501961" points="100,138 120,103 91,113" />
<polygon fill="#000000" fill-opacity="0.501961" points="227,69 229,64 222,63" />
<polygon fill="#aeae92" fill-opacity="0.501961" points="75,25 116,28 96,34" />
<polygon fill="#99998b" fill-opacity="0.501961" points="127,29 127,40 142,55" />
<polygon fill="#495150" fill-opacity="0.501961" points="98,127 74,111 83,129" />
<polygon fill="#302d19" fill-opacity="0.501961" points="49,79 55,69 85,77" />
<polygon fill="#aba391" fill-opacity="0.501961" points="87,81 65,84 68,78" />
<polygon fill="#1b1b00" fill-opacity="0.501961" points="5,12 73,-16 173,12" />
<polygon fill="#2e2107" fill-opacity="0.501961" points="214,92 202,128 159,137" />
<polygon fill="#141710" fill-opacity="0.501961" points="55,82 84,83 86,97" />
<polygon fill="#726640" fill-opacity="0.501961" points="100,109 134,96 104,95" />
<polygon fill="#cdcece" fill-opacity="0.501961" points="154,88 144,51 154,58" />
<polygon fill="#000000" fill-opacity="0.501961" points="79,33 82,60 89,53" />
<polygon fill="#50606e" fill-opacity="0.501961" points="130,90 171,75 148,77" />
<polygon fill="#715b28" fill-opacity="0.501961" points="94,27 96,52 115,59" />
<polygon fill="#29353b" fill-opacity="0.501961" points="3,46 10,28 21,62" />
<polygon fill="#110c00" fill-opacity="0.501961" points="220,148 212,82 271,68" />
<polygon fill="#788670" fill-opacity="0.501961" points="226,21 188,19 204,12" />
<polygon fill="#868573" fill-opacity="0.501961" points="2,114 24,106 32,112" />
<polygon fill="#26313f" fill-opacity="0.501961" points="250,79 228,62 251,55" />
<polygon fill="#000000" fill-opacity="0.501961" points="8,159 -16,109 29,115" />
<polygon fill="#afaea6" fill-opacity="0.501961" points="128,88 111,79 92,86" />
<polygon fill="#5e6d7a" fill-opacity="0.501961" points="159,54 191,53 176,63" />
</g>
</svg>