<svg xmlns="http://www.w3.org/2000/svg" version="1.1" width="1024" height="680">
<rect x="0" y="0" width="1024" height="680" fill="#574331" />
<g transform="scale(4.000000) translate(0.5 0.5)">
<polygon fill="#dbf4ff" fill-opacity="0.501961" points="65,64 127,136 147,60" />
<polygon fill="#fbb174" fill-opacity="0.501961" points="149,51 225,17 215,117" />
<polygon fill="#0f0000" fill-opacity="0.501961" points="214,100 241,185 -16,162" />
<polygon fill="#ffffff" fill-opacity="0.501961" points="83,98 80,115 146,115" />
<polygon fill="#030000" fill-opacity="0.501961" points="60,94 117,87 170,110" />
<polygon fill="#faffff" fill-opacity="0.501961" points="141,62 75,64 143,94" />
<polygon fill="#0e130c" fill-opacity="0.501961" points="72,117 22,108 51,-16" />
<polygon fill="#0c0300" fill-opacity="0.501961" points="-5,35 -16,-12 165,-13" />
<polygon fill="#000000" fill-opacity="0.501961" points="174,66 144,65 145,178" />
<polygon fill="#8e593c" fill-opacity="0.501961" points="145,116 102,151 -16,112" />
<polygon fill="#c38a5c" fill-opacity="0.501961" points="173,109 172,14 250,75" />
<polygon fill="#d4f2ff" fill-opacity="0.501961" points="143,122 83,107 143,104" />
<polygon fill="#270b00" fill-opacity="0.501961" points="222,167 -16,124 6,185" />
<polygon fill="#000000" fill-opacity="0.501961" points="271,128 248,179 252,48" />
<polygon fill="#d2e0ed" fill-opacity="0.501961" points="212,146 244,153 222,155" />
<polygon fill="#feede3" fill-opacity="0.501961" points="96,28 85,11 79,29" />
<polygon fill="#7b5535" fill-opacity="0.501961" points="251,-16 248,97 186,-16" />
<polygon fill="#1c0f02" fill-opacity="0.501961" points="79,55 2,32 153,34" />
<polygon fill="#b5b872" fill-opacity="0.501961" points="16,80 -15,47 -4,109" />
<polygon fill="#dfd7d9" fill-opacity="0.501961" points="59,18 71,32 55,32" />
<polygon fill="#110b0b" fill-opacity="0.501961" points="164,140 262,113 269,153" />
<polygon fill="#413320" fill-opacity="0.501961" points="78,57 76,121 -16,-6" />
<polygon fill="#7e583e" fill-opacity="0.501961" points="225,8 165,63 88,63" />
<polygon fill="#ffe69f" fill-opacity="0.501961" points="122,14 116,21 112,7" />
<polygon fill="#d9aa82" fill-opacity="0.501961" points="215,78 208,0 196,66" />
<polygon fill="#1c0e01" fill-opacity="0.501961" points="218,177 119,182 160,76" />
<polygon fill="#775135" fill-opacity="0.501961" points="132,99 218,122 231,97" />
<polygon fill="#2a394b" fill-opacity="0.501961" points="69,111 139,120 115,130" />
<polygon fill="#d3e6ee" fill-opacity="0.501961" points="80,63 124,64 79,90" />
<polygon fill="#000000" fill-opacity="0.501961" points="250,-16 271,34 256,85" />
<polygon fill="#94a7a9" fill-opacity="0.501961" points="74,86 101,69 144,94" />
<polygon fill="#ffba6f" fill-opacity="0.501961" points="43,18 36,25 45,30" />
<polygon fill="#291710" fill-opacity="0.501961" points="152,107 144,93 98,98" />
<polygon fill="#cf7222" fill-opacity="0.501961" points="66,75 81,80 63,45" />
<polygon fill="#3c2515" fill-opacity="0.501961" points="181,-16 68,48 150,49" />
<polygon fill="#150f05" fill-opacity="0.501961" points="50,85 75,108 -11,107" />
<polygon fill="#caccd3" fill-opacity="0.501961" points="248,153 230,152 245,159" />
<polygon fill="#110e0f" fill-opacity="0.501961" points="270,166 179,183 170,141" />
<polygon fill="#bbd3e1" fill-opacity="0.501961" points="78,112 79,99 116,106" />
<polygon fill="#a55c2e" fill-opacity="0.501961" points="36,132 96,126 -11,106" />
<polygon fill="#825a3b" fill-opacity="0.501961" points="251,79 208,109 218,9" />
<polygon fill="#c58e61" fill-opacity="0.501961" points="135,67 227,65 191,40" />
<polygon fill="#2b2019" fill-opacity="0.501961" points="3,27 192,-3 92,-16" />
<polygon fill="#465043" fill-opacity="0.501961" points="-16,7 60,76 14,86" />
<polygon fill="#0c0000" fill-opacity="0.501961" points="77,103 88,103 80,106" />
<polygon fill="#000000" fill-opacity="0.501961" points="144,93 172,99 170,66" />
<polygon fill="#673b1e" fill-opacity="0.501961" points="24,133 135,132 107,156" />
<polygon fill="#ffffff" fill-opacity="0.501961" points="142,72 142,63 116,66" />
<polygon fill="#342d2a" fill-opacity="0.501961" points="107,87 60,94 100,101" />
<polygon fill="#74502e" fill-opacity="0.501961" points="207,43 167,22 206,6" />
<polygon fill="#ffd193" fill-opacity="0.501961" points="122,21 121,12 113,15" />
<polygon fill="#7d7673" fill-opacity="0.501961" points="197,148 219,152 213,145" />
<polygon fill="#000000" fill-opacity="0.501961" points="78,78 59,94 62,77" />
<polygon fill="#bb895f" fill-opacity="0.501961" points="198,99 172,99 172,30" />
<polygon fill="#605f00" fill-opacity="0.501961" points="4,87 30,78 4,108" />
<polygon fill="#5b412a" fill-opacity="0.501961" points="209,-16 249,22 211,33" />
<polygon fill="#eccbad" fill-opacity="0.501961" points="203,57 211,69 208,31" />
<polygon fill="#382d25" fill-opacity="0.501961" points="113,32 114,-1 84,7" />
<polygon fill="#cac5c5" fill-opacity="0.501961" points="-16,86 9,81 -16,60" />
<polygon fill="#cfae94" fill-opacity="0.501961" points="89,27 93,19 87,9" />
<polygon fill="#000000" fill-opacity="0.501961" points="250,170 254,87 271,165" />
<polygon fill="#8d6446" fill-opacity="0.501961" points="130,129 78,120 80,140" />
<polygon fill="#41230d" fill-opacity="0.501961" points="145,130 166,164 182,102" />
<polygon fill="#c88861" fill-opacity="0.501961" points="69,95 76,100 65,102" />
<polygon fill="#26180c" fill-opacity="0.501961" points="66,-16 82,11 71,56" />
<polygon fill="#292c22" fill-opacity="0.501961" points="-16,24 71,70 37,25" />
<polygon fill="#785845" fill-opacity="0.501961" points="168,40 170,65 112,59" />
<polygon fill="#ffffff" fill-opacity="0.501961" points="78,106 95,104 100,110" />
<polygon fill="#b2a399" fill-opacity="0.501961" points="57,28 62,16 68,25" />
<polygon fill="#432f23" fill-opacity="0.501961" points="251,139 169,113 247,112" />
<polygon fill="#2e1200" fill-opacity="0.501961" points="72,185 -16,145 54,138" />
<polygon fill="#545855" fill-opacity="0.501961" points="105,99 108,72 112,88" />
<polygon fill="#5d5c57" fill-opacity="0.501961" points="102,93 92,83 89,90" />
<polygon fill="#c08351" fill-opacity="0.501961" points="207,42 188,31 205,89" />
<polygon fill="#432819" fill-opacity="0.501961" points="66,63 113,4 109,56" />
<polygon fill="#603217" fill-opacity="0.501961" points="80,155 -16,122 57,127" />
<polygon fill="#c5d1d0" fill-opacity="0.501961" points="108,86 139,79 142,89" />
<polygon fill="#152330" fill-opacity="0.501961" points="158,75 144,98 143,68" />
<polygon fill="#6f513b" fill-opacity="0.501961" points="208,110 249,95 250,40" />
<polygon fill="#ffffff" fill-opacity="0.501961" points="93,64 121,65 100,72" />
<polygon fill="#e4f5fd" fill-opacity="0.501961" points="144,117 137,107 132,115" />
<polygon fill="#ffb873" fill-opacity="0.501961" points="38,29 45,27 39,21" />
<polygon fill="#190f09" fill-opacity="0.501961" points="-10,-1 56,15 136,-16" />
<polygon fill="#2e2d35" fill-opacity="0.501961" points="145,122 100,120 123,128" />
<polygon fill="#2c2321" fill-opacity="0.501961" points="120,93 105,105 99,94" />
<polygon fill="#0d0b07" fill-opacity="0.501961" points="123,19 109,26 132,25" />
<polygon fill="#ffe0b9" fill-opacity="0.501961" points="210,22 208,8 206,24" />
<polygon fill="#5b3f26" fill-opacity="0.501961" points="212,-16 173,-3 175,42" />
<polygon fill="#d1ebef" fill-opacity="0.501961" points="106,84 100,79 94,86" />
<polygon fill="#382010" fill-opacity="0.501961" points="84,120 43,112 71,101" />
<polygon fill="#583622" fill-opacity="0.501961" points="92,124 130,132 132,157" />
<polygon fill="#5f6057" fill-opacity="0.501961" points="41,75 10,84 1,62" />
<polygon fill="#f3e5d4" fill-opacity="0.501961" points="208,66 210,81 206,78" />
<polygon fill="#180d03" fill-opacity="0.501961" points="61,37 116,36 83,46" />
<polygon fill="#a9754a" fill-opacity="0.501961" points="209,98 209,16 228,61" />
<polygon fill="#8d6a3a" fill-opacity="0.501961" points="23,41 26,36 10,39" />
<polygon fill="#21130c" fill-opacity="0.501961" points="148,158 171,106 143,104" />
<polygon fill="#8c9fad" fill-opacity="0.501961" points="100,111 101,117 123,115" />
<polygon fill="#453930" fill-opacity="0.501961" points="200,-2 67,15 141,-16" />
<polygon fill="#0e0600" fill-opacity="0.501961" points="209,157 172,124 170,158" />
</g>
</svg>